%TF.GenerationSoftware,KiCad,Pcbnew,9.0.6-9.0.6~ubuntu22.04.1*%
%TF.CreationDate,2026-01-06T17:11:06-05:00*%
%TF.ProjectId,psc_carrier_brd,7073635f-6361-4727-9269-65725f627264,rev?*%
%TF.SameCoordinates,Original*%
%TF.FileFunction,Soldermask,Bot*%
%TF.FilePolarity,Negative*%
%FSLAX46Y46*%
G04 Gerber Fmt 4.6, Leading zero omitted, Abs format (unit mm)*
G04 Created by KiCad (PCBNEW 9.0.6-9.0.6~ubuntu22.04.1) date 2026-01-06 17:11:06*
%MOMM*%
%LPD*%
G01*
G04 APERTURE LIST*
G04 Aperture macros list*
%AMRoundRect*
0 Rectangle with rounded corners*
0 $1 Rounding radius*
0 $2 $3 $4 $5 $6 $7 $8 $9 X,Y pos of 4 corners*
0 Add a 4 corners polygon primitive as box body*
4,1,4,$2,$3,$4,$5,$6,$7,$8,$9,$2,$3,0*
0 Add four circle primitives for the rounded corners*
1,1,$1+$1,$2,$3*
1,1,$1+$1,$4,$5*
1,1,$1+$1,$6,$7*
1,1,$1+$1,$8,$9*
0 Add four rect primitives between the rounded corners*
20,1,$1+$1,$2,$3,$4,$5,0*
20,1,$1+$1,$4,$5,$6,$7,0*
20,1,$1+$1,$6,$7,$8,$9,0*
20,1,$1+$1,$8,$9,$2,$3,0*%
G04 Aperture macros list end*
%ADD10C,1.226200*%
%ADD11C,1.576200*%
%ADD12C,0.010000*%
%ADD13C,1.000000*%
%ADD14C,3.600000*%
%ADD15C,6.400000*%
%ADD16C,2.000000*%
%ADD17C,4.204000*%
%ADD18C,5.284000*%
%ADD19C,2.997200*%
%ADD20C,1.804200*%
%ADD21C,7.500000*%
%ADD22C,1.524000*%
%ADD23C,0.830000*%
%ADD24C,1.230000*%
%ADD25R,1.016000X1.016000*%
%ADD26C,1.016000*%
%ADD27C,3.937000*%
%ADD28RoundRect,0.102000X-0.500000X-0.500000X0.500000X-0.500000X0.500000X0.500000X-0.500000X0.500000X0*%
%ADD29C,1.204000*%
%ADD30C,3.000000*%
%ADD31RoundRect,0.140000X-0.140000X-0.170000X0.140000X-0.170000X0.140000X0.170000X-0.140000X0.170000X0*%
%ADD32RoundRect,0.140000X0.170000X-0.140000X0.170000X0.140000X-0.170000X0.140000X-0.170000X-0.140000X0*%
%ADD33RoundRect,0.140000X0.140000X0.170000X-0.140000X0.170000X-0.140000X-0.170000X0.140000X-0.170000X0*%
%ADD34RoundRect,0.140000X-0.170000X0.140000X-0.170000X-0.140000X0.170000X-0.140000X0.170000X0.140000X0*%
G04 APERTURE END LIST*
D10*
%TO.C,J4*%
X288683100Y-312000000D02*
G75*
G02*
X287456900Y-312000000I-613100J0D01*
G01*
X287456900Y-312000000D02*
G75*
G02*
X288683100Y-312000000I613100J0D01*
G01*
D11*
X301658100Y-312000000D02*
G75*
G02*
X300081900Y-312000000I-788100J0D01*
G01*
X300081900Y-312000000D02*
G75*
G02*
X301658100Y-312000000I788100J0D01*
G01*
D12*
X294796200Y-313226200D02*
X292343800Y-313226200D01*
X292343800Y-310773800D01*
X294796200Y-310773800D01*
X294796200Y-313226200D01*
G36*
X294796200Y-313226200D02*
G01*
X292343800Y-313226200D01*
X292343800Y-310773800D01*
X294796200Y-310773800D01*
X294796200Y-313226200D01*
G37*
%TD*%
D13*
%TO.C,REF\u002A\u002A*%
X303500000Y-333500000D03*
%TD*%
%TO.C,REF\u002A\u002A*%
X303500000Y-81500000D03*
%TD*%
%TO.C,REF\u002A\u002A*%
X65000000Y-81500000D03*
%TD*%
D14*
%TO.C,MT11*%
X125000000Y-145000000D03*
D15*
X125000000Y-145000000D03*
%TD*%
D16*
%TO.C,TP4*%
X253500000Y-232500000D03*
%TD*%
D17*
%TO.C,U17*%
X173142000Y-122500000D03*
X178142000Y-122500000D03*
X191858000Y-122500000D03*
X196858000Y-122500000D03*
X173142000Y-127500000D03*
X178142000Y-127500000D03*
X191858000Y-127500000D03*
X196858000Y-127500000D03*
D18*
X185000000Y-125000000D03*
%TD*%
D19*
%TO.C,J7*%
X259727000Y-92212400D03*
X293026400Y-92212400D03*
D20*
X285000000Y-94600000D03*
X282714000Y-94600000D03*
X280428000Y-94600000D03*
X278142000Y-94600000D03*
X275830600Y-94600000D03*
X273544600Y-94600000D03*
X271258600Y-94600000D03*
X268972600Y-94600000D03*
X266686600Y-94600000D03*
X286143000Y-92060000D03*
X283857000Y-92060000D03*
X281571000Y-92060000D03*
X279259600Y-92060000D03*
X276973600Y-92060000D03*
X274687600Y-92060000D03*
X272401600Y-92060000D03*
X270115600Y-92060000D03*
X267829600Y-92060000D03*
X285000000Y-89520000D03*
X282714000Y-89520000D03*
X280428000Y-89520000D03*
X278142000Y-89520000D03*
X275830600Y-89520000D03*
X273544600Y-89520000D03*
X271258600Y-89520000D03*
X268972600Y-89520000D03*
%TD*%
D21*
%TO.C,MT2*%
X111960000Y-329920000D03*
%TD*%
D14*
%TO.C,MT21*%
X214866500Y-295000000D03*
D15*
X214866500Y-295000000D03*
%TD*%
D17*
%TO.C,U16*%
X128142000Y-122500000D03*
X133142000Y-122500000D03*
X146858000Y-122500000D03*
X151858000Y-122500000D03*
X128142000Y-127500000D03*
X133142000Y-127500000D03*
X146858000Y-127500000D03*
X151858000Y-127500000D03*
D18*
X140000000Y-125000000D03*
%TD*%
D22*
%TO.C,U1*%
X299200000Y-239040000D03*
X299200000Y-241580000D03*
X299200000Y-244120000D03*
X299200000Y-246660000D03*
X299200000Y-249200000D03*
X299200000Y-251740000D03*
%TD*%
D16*
%TO.C,TP5*%
X253500000Y-261000000D03*
%TD*%
D23*
%TO.C,J15*%
X215900000Y-155000000D03*
D24*
X244100000Y-155000000D03*
%TD*%
D14*
%TO.C,MT22*%
X245000000Y-295000000D03*
D15*
X245000000Y-295000000D03*
%TD*%
D16*
%TO.C,TP10*%
X253500000Y-134500000D03*
%TD*%
%TO.C,TP3*%
X253500000Y-244000000D03*
%TD*%
D23*
%TO.C,J10*%
X125900000Y-285000000D03*
D24*
X154100000Y-285000000D03*
%TD*%
D16*
%TO.C,TP7*%
X253500000Y-274500000D03*
%TD*%
D14*
%TO.C,MT14*%
X155000000Y-295000000D03*
D15*
X155000000Y-295000000D03*
%TD*%
D23*
%TO.C,J9*%
X125900000Y-155000000D03*
D24*
X154100000Y-155000000D03*
%TD*%
D14*
%TO.C,MT9*%
X80000000Y-295000000D03*
D15*
X80000000Y-295000000D03*
%TD*%
D17*
%TO.C,U15*%
X83142000Y-122500000D03*
X88142000Y-122500000D03*
X101858000Y-122500000D03*
X106858000Y-122500000D03*
X83142000Y-127500000D03*
X88142000Y-127500000D03*
X101858000Y-127500000D03*
X106858000Y-127500000D03*
D18*
X95000000Y-125000000D03*
%TD*%
D14*
%TO.C,MT17*%
X170000000Y-295000000D03*
D15*
X170000000Y-295000000D03*
%TD*%
D21*
%TO.C,MT4*%
X299920000Y-85000000D03*
%TD*%
D14*
%TO.C,MT18*%
X200000000Y-295000000D03*
D15*
X200000000Y-295000000D03*
%TD*%
D23*
%TO.C,J12*%
X170900000Y-155000000D03*
D24*
X199100000Y-155000000D03*
%TD*%
D16*
%TO.C,TP2*%
X301500000Y-301300000D03*
%TD*%
D23*
%TO.C,J5*%
X80900000Y-155000000D03*
D24*
X109100000Y-155000000D03*
%TD*%
D21*
%TO.C,MT5*%
X299920000Y-329920000D03*
%TD*%
D16*
%TO.C,TP8*%
X253500000Y-196000000D03*
%TD*%
D23*
%TO.C,J16*%
X215900000Y-285000000D03*
D24*
X244100000Y-285000000D03*
%TD*%
D21*
%TO.C,MT24*%
X68780000Y-180000000D03*
%TD*%
D14*
%TO.C,MT16*%
X200000000Y-145000000D03*
D15*
X200000000Y-145000000D03*
%TD*%
D21*
%TO.C,MT6*%
X68780000Y-85000000D03*
%TD*%
D25*
%TO.C,J11*%
X147620000Y-90000000D03*
D26*
X146350000Y-90000000D03*
X145080000Y-90000000D03*
X143810000Y-90000000D03*
X142540000Y-90000000D03*
X141270000Y-90000000D03*
X140000000Y-90000000D03*
X138730000Y-90000000D03*
X137460000Y-90000000D03*
X136190000Y-90000000D03*
X134920000Y-90000000D03*
X133650000Y-90000000D03*
X132380000Y-90000000D03*
X146985000Y-87460000D03*
X145715000Y-87460000D03*
X144445000Y-87460000D03*
X143175000Y-87460000D03*
X141905000Y-87460000D03*
X140635000Y-87460000D03*
X139365000Y-87460000D03*
X138095000Y-87460000D03*
X136825000Y-87460000D03*
X135555000Y-87460000D03*
X134285000Y-87460000D03*
X133015000Y-87460000D03*
D27*
X127744500Y-86190000D03*
X152255500Y-86190000D03*
%TD*%
D25*
%TO.C,J17*%
X237620000Y-90000000D03*
D26*
X236350000Y-90000000D03*
X235080000Y-90000000D03*
X233810000Y-90000000D03*
X232540000Y-90000000D03*
X231270000Y-90000000D03*
X230000000Y-90000000D03*
X228730000Y-90000000D03*
X227460000Y-90000000D03*
X226190000Y-90000000D03*
X224920000Y-90000000D03*
X223650000Y-90000000D03*
X222380000Y-90000000D03*
X236985000Y-87460000D03*
X235715000Y-87460000D03*
X234445000Y-87460000D03*
X233175000Y-87460000D03*
X231905000Y-87460000D03*
X230635000Y-87460000D03*
X229365000Y-87460000D03*
X228095000Y-87460000D03*
X226825000Y-87460000D03*
X225555000Y-87460000D03*
X224285000Y-87460000D03*
X223015000Y-87460000D03*
D27*
X217744500Y-86190000D03*
X242255500Y-86190000D03*
%TD*%
D16*
%TO.C,TP9*%
X253500000Y-218500000D03*
%TD*%
D23*
%TO.C,J13*%
X170900000Y-285000000D03*
D24*
X199100000Y-285000000D03*
%TD*%
D14*
%TO.C,MT20*%
X245000000Y-145000000D03*
D15*
X245000000Y-145000000D03*
%TD*%
D28*
%TO.C,J2*%
X166824000Y-321284000D03*
D29*
X164324000Y-321284000D03*
X161824000Y-321284000D03*
X159324000Y-321284000D03*
X156824000Y-321284000D03*
X154324000Y-321284000D03*
X151824000Y-321284000D03*
X149324000Y-321284000D03*
X146824000Y-321284000D03*
X144324000Y-321284000D03*
X166824000Y-319784000D03*
X164324000Y-319784000D03*
X161824000Y-319784000D03*
X159324000Y-319784000D03*
X156824000Y-319784000D03*
X154324000Y-319784000D03*
X151824000Y-319784000D03*
X149324000Y-319784000D03*
X146824000Y-319784000D03*
X144324000Y-319784000D03*
X166824000Y-318284000D03*
X164324000Y-318284000D03*
X161824000Y-318284000D03*
X159324000Y-318284000D03*
X156824000Y-318284000D03*
X154324000Y-318284000D03*
X151824000Y-318284000D03*
X149324000Y-318284000D03*
X146824000Y-318284000D03*
X144324000Y-318284000D03*
X166824000Y-316784000D03*
X164324000Y-316784000D03*
X161824000Y-316784000D03*
X159324000Y-316784000D03*
X156824000Y-316784000D03*
X154324000Y-316784000D03*
X151824000Y-316784000D03*
X149324000Y-316784000D03*
X146824000Y-316784000D03*
X144324000Y-316784000D03*
X166824000Y-315284000D03*
X164324000Y-315284000D03*
X161824000Y-315284000D03*
X159324000Y-315284000D03*
X156824000Y-315284000D03*
X154324000Y-315284000D03*
X151824000Y-315284000D03*
X149324000Y-315284000D03*
X146824000Y-315284000D03*
X144324000Y-315284000D03*
X166824000Y-313784000D03*
X164324000Y-313784000D03*
X161824000Y-313784000D03*
X159324000Y-313784000D03*
X156824000Y-313784000D03*
X154324000Y-313784000D03*
X151824000Y-313784000D03*
X149324000Y-313784000D03*
X146824000Y-313784000D03*
X144324000Y-313784000D03*
%TD*%
D28*
%TO.C,J1*%
X217624000Y-321284000D03*
D29*
X215124000Y-321284000D03*
X212624000Y-321284000D03*
X210124000Y-321284000D03*
X207624000Y-321284000D03*
X205124000Y-321284000D03*
X202624000Y-321284000D03*
X200124000Y-321284000D03*
X197624000Y-321284000D03*
X195124000Y-321284000D03*
X217624000Y-319784000D03*
X215124000Y-319784000D03*
X212624000Y-319784000D03*
X210124000Y-319784000D03*
X207624000Y-319784000D03*
X205124000Y-319784000D03*
X202624000Y-319784000D03*
X200124000Y-319784000D03*
X197624000Y-319784000D03*
X195124000Y-319784000D03*
X217624000Y-318284000D03*
X215124000Y-318284000D03*
X212624000Y-318284000D03*
X210124000Y-318284000D03*
X207624000Y-318284000D03*
X205124000Y-318284000D03*
X202624000Y-318284000D03*
X200124000Y-318284000D03*
X197624000Y-318284000D03*
X195124000Y-318284000D03*
X217624000Y-316784000D03*
X215124000Y-316784000D03*
X212624000Y-316784000D03*
X210124000Y-316784000D03*
X207624000Y-316784000D03*
X205124000Y-316784000D03*
X202624000Y-316784000D03*
X200124000Y-316784000D03*
X197624000Y-316784000D03*
X195124000Y-316784000D03*
X217624000Y-315284000D03*
X215124000Y-315284000D03*
X212624000Y-315284000D03*
X210124000Y-315284000D03*
X207624000Y-315284000D03*
X205124000Y-315284000D03*
X202624000Y-315284000D03*
X200124000Y-315284000D03*
X197624000Y-315284000D03*
X195124000Y-315284000D03*
X217624000Y-313784000D03*
X215124000Y-313784000D03*
X212624000Y-313784000D03*
X210124000Y-313784000D03*
X207624000Y-313784000D03*
X205124000Y-313784000D03*
X202624000Y-313784000D03*
X200124000Y-313784000D03*
X197624000Y-313784000D03*
X195124000Y-313784000D03*
%TD*%
D14*
%TO.C,MT8*%
X110000000Y-145000000D03*
D15*
X110000000Y-145000000D03*
%TD*%
D14*
%TO.C,MT19*%
X215000000Y-145000000D03*
D15*
X215000000Y-145000000D03*
%TD*%
D23*
%TO.C,J6*%
X80900000Y-285000000D03*
D24*
X109100000Y-285000000D03*
%TD*%
D21*
%TO.C,MT3*%
X250644000Y-329920000D03*
%TD*%
D30*
%TO.C,J4*%
X300870000Y-312000000D03*
%TD*%
D17*
%TO.C,U18*%
X218142000Y-122500000D03*
X223142000Y-122500000D03*
X236858000Y-122500000D03*
X241858000Y-122500000D03*
X218142000Y-127500000D03*
X223142000Y-127500000D03*
X236858000Y-127500000D03*
X241858000Y-127500000D03*
D18*
X230000000Y-125000000D03*
%TD*%
D14*
%TO.C,MT15*%
X170000000Y-145000000D03*
D15*
X170000000Y-145000000D03*
%TD*%
D28*
%TO.C,J3*%
X243024000Y-321284000D03*
D29*
X240524000Y-321284000D03*
X238024000Y-321284000D03*
X235524000Y-321284000D03*
X233024000Y-321284000D03*
X230524000Y-321284000D03*
X228024000Y-321284000D03*
X225524000Y-321284000D03*
X223024000Y-321284000D03*
X220524000Y-321284000D03*
X243024000Y-319784000D03*
X240524000Y-319784000D03*
X238024000Y-319784000D03*
X235524000Y-319784000D03*
X233024000Y-319784000D03*
X230524000Y-319784000D03*
X228024000Y-319784000D03*
X225524000Y-319784000D03*
X223024000Y-319784000D03*
X220524000Y-319784000D03*
X243024000Y-318284000D03*
X240524000Y-318284000D03*
X238024000Y-318284000D03*
X235524000Y-318284000D03*
X233024000Y-318284000D03*
X230524000Y-318284000D03*
X228024000Y-318284000D03*
X225524000Y-318284000D03*
X223024000Y-318284000D03*
X220524000Y-318284000D03*
X243024000Y-316784000D03*
X240524000Y-316784000D03*
X238024000Y-316784000D03*
X235524000Y-316784000D03*
X233024000Y-316784000D03*
X230524000Y-316784000D03*
X228024000Y-316784000D03*
X225524000Y-316784000D03*
X223024000Y-316784000D03*
X220524000Y-316784000D03*
X243024000Y-315284000D03*
X240524000Y-315284000D03*
X238024000Y-315284000D03*
X235524000Y-315284000D03*
X233024000Y-315284000D03*
X230524000Y-315284000D03*
X228024000Y-315284000D03*
X225524000Y-315284000D03*
X223024000Y-315284000D03*
X220524000Y-315284000D03*
X243024000Y-313784000D03*
X240524000Y-313784000D03*
X238024000Y-313784000D03*
X235524000Y-313784000D03*
X233024000Y-313784000D03*
X230524000Y-313784000D03*
X228024000Y-313784000D03*
X225524000Y-313784000D03*
X223024000Y-313784000D03*
X220524000Y-313784000D03*
%TD*%
D14*
%TO.C,MT13*%
X125100000Y-295000000D03*
D15*
X125100000Y-295000000D03*
%TD*%
D16*
%TO.C,TP1*%
X297600000Y-271150000D03*
%TD*%
D14*
%TO.C,MT10*%
X110000000Y-295000000D03*
D15*
X110000000Y-295000000D03*
%TD*%
D14*
%TO.C,MT7*%
X80000000Y-145000000D03*
D15*
X80000000Y-145000000D03*
%TD*%
D25*
%TO.C,J14*%
X192620000Y-90000000D03*
D26*
X191350000Y-90000000D03*
X190080000Y-90000000D03*
X188810000Y-90000000D03*
X187540000Y-90000000D03*
X186270000Y-90000000D03*
X185000000Y-90000000D03*
X183730000Y-90000000D03*
X182460000Y-90000000D03*
X181190000Y-90000000D03*
X179920000Y-90000000D03*
X178650000Y-90000000D03*
X177380000Y-90000000D03*
X191985000Y-87460000D03*
X190715000Y-87460000D03*
X189445000Y-87460000D03*
X188175000Y-87460000D03*
X186905000Y-87460000D03*
X185635000Y-87460000D03*
X184365000Y-87460000D03*
X183095000Y-87460000D03*
X181825000Y-87460000D03*
X180555000Y-87460000D03*
X179285000Y-87460000D03*
X178015000Y-87460000D03*
D27*
X172744500Y-86190000D03*
X197255500Y-86190000D03*
%TD*%
D21*
%TO.C,MT23*%
X299920000Y-180000000D03*
%TD*%
D16*
%TO.C,TP11*%
X253500000Y-155500000D03*
%TD*%
D14*
%TO.C,MT12*%
X155000000Y-145000000D03*
D15*
X155000000Y-145000000D03*
%TD*%
D25*
%TO.C,J8*%
X102620000Y-90000000D03*
D26*
X101350000Y-90000000D03*
X100080000Y-90000000D03*
X98810000Y-90000000D03*
X97540000Y-90000000D03*
X96270000Y-90000000D03*
X95000000Y-90000000D03*
X93730000Y-90000000D03*
X92460000Y-90000000D03*
X91190000Y-90000000D03*
X89920000Y-90000000D03*
X88650000Y-90000000D03*
X87380000Y-90000000D03*
X101985000Y-87460000D03*
X100715000Y-87460000D03*
X99445000Y-87460000D03*
X98175000Y-87460000D03*
X96905000Y-87460000D03*
X95635000Y-87460000D03*
X94365000Y-87460000D03*
X93095000Y-87460000D03*
X91825000Y-87460000D03*
X90555000Y-87460000D03*
X89285000Y-87460000D03*
X88015000Y-87460000D03*
D27*
X82744500Y-86190000D03*
X107255500Y-86190000D03*
%TD*%
D16*
%TO.C,TP6*%
X253500000Y-287500000D03*
%TD*%
D21*
%TO.C,MT1*%
X68780000Y-329920000D03*
%TD*%
D31*
%TO.C,C58*%
X285220000Y-248400000D03*
X286180000Y-248400000D03*
%TD*%
D32*
%TO.C,C14*%
X269125000Y-224050000D03*
X269125000Y-223090000D03*
%TD*%
D33*
%TO.C,C75*%
X268380000Y-316200000D03*
X267420000Y-316200000D03*
%TD*%
D34*
%TO.C,C13*%
X264150000Y-223515000D03*
X264150000Y-224475000D03*
%TD*%
%TO.C,C72*%
X263800000Y-174800000D03*
X263800000Y-175760000D03*
%TD*%
D32*
%TO.C,C74*%
X268412500Y-151960000D03*
X268412500Y-151000000D03*
%TD*%
%TO.C,C15*%
X268590000Y-201660000D03*
X268590000Y-200700000D03*
%TD*%
D31*
%TO.C,C59*%
X285220000Y-240400000D03*
X286180000Y-240400000D03*
%TD*%
D32*
%TO.C,C73*%
X268800000Y-175760000D03*
X268800000Y-174800000D03*
%TD*%
D31*
%TO.C,C57*%
X285240000Y-232500000D03*
X286200000Y-232500000D03*
%TD*%
M02*
