%TF.GenerationSoftware,KiCad,Pcbnew,9.0.4-9.0.4-0~ubuntu22.04.1*%
%TF.CreationDate,2025-12-27T11:22:28-05:00*%
%TF.ProjectId,psc_carrier_brd,7073635f-6361-4727-9269-65725f627264,rev?*%
%TF.SameCoordinates,Original*%
%TF.FileFunction,Copper,L10,Bot*%
%TF.FilePolarity,Positive*%
%FSLAX46Y46*%
G04 Gerber Fmt 4.6, Leading zero omitted, Abs format (unit mm)*
G04 Created by KiCad (PCBNEW 9.0.4-9.0.4-0~ubuntu22.04.1) date 2025-12-27 11:22:28*
%MOMM*%
%LPD*%
G01*
G04 APERTURE LIST*
G04 Aperture macros list*
%AMRoundRect*
0 Rectangle with rounded corners*
0 $1 Rounding radius*
0 $2 $3 $4 $5 $6 $7 $8 $9 X,Y pos of 4 corners*
0 Add a 4 corners polygon primitive as box body*
4,1,4,$2,$3,$4,$5,$6,$7,$8,$9,$2,$3,0*
0 Add four circle primitives for the rounded corners*
1,1,$1+$1,$2,$3*
1,1,$1+$1,$4,$5*
1,1,$1+$1,$6,$7*
1,1,$1+$1,$8,$9*
0 Add four rect primitives between the rounded corners*
20,1,$1+$1,$2,$3,$4,$5,0*
20,1,$1+$1,$4,$5,$6,$7,0*
20,1,$1+$1,$6,$7,$8,$9,0*
20,1,$1+$1,$8,$9,$2,$3,0*%
G04 Aperture macros list end*
%TA.AperFunction,ComponentPad*%
%ADD10C,7.500000*%
%TD*%
%TA.AperFunction,ComponentPad*%
%ADD11C,1.524000*%
%TD*%
%TA.AperFunction,ComponentPad*%
%ADD12R,1.000000X1.000000*%
%TD*%
%TA.AperFunction,ComponentPad*%
%ADD13C,1.000000*%
%TD*%
%TA.AperFunction,ComponentPad*%
%ADD14C,3.600000*%
%TD*%
%TA.AperFunction,ConnectorPad*%
%ADD15C,6.400000*%
%TD*%
%TA.AperFunction,ComponentPad*%
%ADD16C,4.000000*%
%TD*%
%TA.AperFunction,ComponentPad*%
%ADD17C,5.080000*%
%TD*%
%TA.AperFunction,ComponentPad*%
%ADD18C,2.000000*%
%TD*%
%TA.AperFunction,ComponentPad*%
%ADD19R,1.016000X1.016000*%
%TD*%
%TA.AperFunction,ComponentPad*%
%ADD20C,1.016000*%
%TD*%
%TA.AperFunction,ComponentPad*%
%ADD21C,3.937000*%
%TD*%
%TA.AperFunction,ComponentPad*%
%ADD22R,2.300000X2.300000*%
%TD*%
%TA.AperFunction,ComponentPad*%
%ADD23C,2.300000*%
%TD*%
%TA.AperFunction,SMDPad,CuDef*%
%ADD24RoundRect,0.140000X-0.140000X-0.170000X0.140000X-0.170000X0.140000X0.170000X-0.140000X0.170000X0*%
%TD*%
%TA.AperFunction,SMDPad,CuDef*%
%ADD25RoundRect,0.140000X0.170000X-0.140000X0.170000X0.140000X-0.170000X0.140000X-0.170000X-0.140000X0*%
%TD*%
%TA.AperFunction,SMDPad,CuDef*%
%ADD26RoundRect,0.140000X0.140000X0.170000X-0.140000X0.170000X-0.140000X-0.170000X0.140000X-0.170000X0*%
%TD*%
%TA.AperFunction,SMDPad,CuDef*%
%ADD27RoundRect,0.140000X-0.170000X0.140000X-0.170000X-0.140000X0.170000X-0.140000X0.170000X0.140000X0*%
%TD*%
%TA.AperFunction,ComponentPad*%
%ADD28C,1.600200*%
%TD*%
%TA.AperFunction,ViaPad*%
%ADD29C,0.600000*%
%TD*%
%TA.AperFunction,ViaPad*%
%ADD30C,1.000000*%
%TD*%
%TA.AperFunction,Conductor*%
%ADD31C,0.200000*%
%TD*%
%TA.AperFunction,Conductor*%
%ADD32C,0.150000*%
%TD*%
%TA.AperFunction,Conductor*%
%ADD33C,0.300000*%
%TD*%
%TA.AperFunction,Conductor*%
%ADD34C,0.110000*%
%TD*%
%TA.AperFunction,Conductor*%
%ADD35C,1.016000*%
%TD*%
%TA.AperFunction,Conductor*%
%ADD36C,1.500000*%
%TD*%
%TA.AperFunction,Conductor*%
%ADD37C,1.000000*%
%TD*%
G04 APERTURE END LIST*
D10*
%TO.P,MT24,1,1*%
%TO.N,GND*%
X68780000Y-180000000D03*
%TD*%
%TO.P,MT23,1,1*%
%TO.N,GND*%
X299920000Y-180000000D03*
%TD*%
D11*
%TO.P,U1,1,1*%
%TO.N,+18V*%
X299200000Y-239040000D03*
%TO.P,U1,2,2*%
%TO.N,GND*%
X299200000Y-241580000D03*
%TO.P,U1,3,3*%
%TO.N,-18V*%
X299200000Y-244120000D03*
%TO.P,U1,4,4*%
%TO.N,GND*%
X299200000Y-246660000D03*
%TO.P,U1,5,5*%
X299200000Y-249200000D03*
%TO.P,U1,6,6*%
X299200000Y-251740000D03*
%TD*%
D12*
%TO.P,J1,A1,A1*%
%TO.N,/Ch4 Daughterboard/dcct.cnv*%
X217624000Y-321284000D03*
D13*
%TO.P,J1,A2,A2*%
%TO.N,/Ch4 Daughterboard/dcct.sdo1*%
X215124000Y-321284000D03*
%TO.P,J1,A3,A3*%
%TO.N,/Ch4 Daughterboard/dac.syncn*%
X212624000Y-321284000D03*
%TO.P,J1,A4,A4*%
%TO.N,/Ch4 Daughterboard/digio.out2*%
X210124000Y-321284000D03*
%TO.P,J1,A5,A5*%
%TO.N,/Ch4 Daughterboard/digio.in2*%
X207624000Y-321284000D03*
%TO.P,J1,A6,A6*%
%TO.N,unconnected-(J1-PadA6)*%
X205124000Y-321284000D03*
%TO.P,J1,A7,A7*%
%TO.N,/Ch3 Daughterboard/dcct.sck*%
X202624000Y-321284000D03*
%TO.P,J1,A8,A8*%
%TO.N,/Ch3 Daughterboard/dac.sclk*%
X200124000Y-321284000D03*
%TO.P,J1,A9,A9*%
%TO.N,/Ch3 Daughterboard/digio.out0*%
X197624000Y-321284000D03*
%TO.P,J1,A10,A10*%
%TO.N,/Ch3 Daughterboard/digio.in0*%
X195124000Y-321284000D03*
%TO.P,J1,B1,B1*%
%TO.N,/Ch4 Daughterboard/dcct.busy*%
X217624000Y-319784000D03*
%TO.P,J1,B2,B2*%
%TO.N,unconnected-(J1-PadB2)*%
X215124000Y-319784000D03*
%TO.P,J1,B3,B3*%
%TO.N,unconnected-(J1-PadB3)*%
X212624000Y-319784000D03*
%TO.P,J1,B4,B4*%
%TO.N,/Ch4 Daughterboard/digio.out3*%
X210124000Y-319784000D03*
%TO.P,J1,B5,B5*%
%TO.N,/Ch4 Daughterboard/digio.in3*%
X207624000Y-319784000D03*
%TO.P,J1,B6,B6*%
%TO.N,unconnected-(J1-PadB6)*%
X205124000Y-319784000D03*
%TO.P,J1,B7,B7*%
%TO.N,/Ch3 Daughterboard/dcct.sdo0*%
X202624000Y-319784000D03*
%TO.P,J1,B8,B8*%
%TO.N,/Ch3 Daughterboard/dac.sdin*%
X200124000Y-319784000D03*
%TO.P,J1,B9,B9*%
%TO.N,/Ch3 Daughterboard/digio.out1*%
X197624000Y-319784000D03*
%TO.P,J1,B10,B10*%
%TO.N,/Ch3 Daughterboard/digio.in1*%
X195124000Y-319784000D03*
%TO.P,J1,BG1,BG1*%
%TO.N,GND*%
X217624000Y-318284000D03*
%TO.P,J1,BG2,BG2*%
X215124000Y-318284000D03*
%TO.P,J1,BG3,BG3*%
X212624000Y-318284000D03*
%TO.P,J1,BG4,BG4*%
X210124000Y-318284000D03*
%TO.P,J1,BG5,BG5*%
X207624000Y-318284000D03*
%TO.P,J1,BG6,BG6*%
X205124000Y-318284000D03*
%TO.P,J1,BG7,BG7*%
X202624000Y-318284000D03*
%TO.P,J1,BG8,BG8*%
X200124000Y-318284000D03*
%TO.P,J1,BG9,BG9*%
X197624000Y-318284000D03*
%TO.P,J1,BG10,BG10*%
X195124000Y-318284000D03*
%TO.P,J1,C1,C1*%
%TO.N,/Ch4 Daughterboard/dcct.sck*%
X217624000Y-316784000D03*
%TO.P,J1,C2,C2*%
%TO.N,/Ch4 Daughterboard/dac.sclk*%
X215124000Y-316784000D03*
%TO.P,J1,C3,C3*%
%TO.N,/Ch4 Daughterboard/digio.out0*%
X212624000Y-316784000D03*
%TO.P,J1,C4,C4*%
%TO.N,/Ch4 Daughterboard/digio.in0*%
X210124000Y-316784000D03*
%TO.P,J1,C5,C5*%
%TO.N,unconnected-(J1-PadC5)*%
X207624000Y-316784000D03*
%TO.P,J1,C6,C6*%
%TO.N,/Ch3 Daughterboard/dcct.cnv*%
X205124000Y-316784000D03*
%TO.P,J1,C7,C7*%
%TO.N,/Ch3 Daughterboard/dcct.sdo1*%
X202624000Y-316784000D03*
%TO.P,J1,C8,C8*%
%TO.N,/Ch3 Daughterboard/dac.syncn*%
X200124000Y-316784000D03*
%TO.P,J1,C9,C9*%
%TO.N,/Ch3 Daughterboard/digio.out2*%
X197624000Y-316784000D03*
%TO.P,J1,C10,C10*%
%TO.N,/Ch3 Daughterboard/digio.in2*%
X195124000Y-316784000D03*
%TO.P,J1,D1,D1*%
%TO.N,/Ch4 Daughterboard/dcct.sdo0*%
X217624000Y-315284000D03*
%TO.P,J1,D2,D2*%
%TO.N,/Ch4 Daughterboard/dac.sdin*%
X215124000Y-315284000D03*
%TO.P,J1,D3,D3*%
%TO.N,/Ch4 Daughterboard/digio.out1*%
X212624000Y-315284000D03*
%TO.P,J1,D4,D4*%
%TO.N,/Ch4 Daughterboard/digio.in1*%
X210124000Y-315284000D03*
%TO.P,J1,D5,D5*%
%TO.N,unconnected-(J1-PadD5)*%
X207624000Y-315284000D03*
%TO.P,J1,D6,D6*%
%TO.N,/Ch3 Daughterboard/dcct.busy*%
X205124000Y-315284000D03*
%TO.P,J1,D7,D7*%
%TO.N,unconnected-(J1-PadD7)*%
X202624000Y-315284000D03*
%TO.P,J1,D8,D8*%
%TO.N,unconnected-(J1-PadD8)*%
X200124000Y-315284000D03*
%TO.P,J1,D9,D9*%
%TO.N,/Ch3 Daughterboard/digio.out3*%
X197624000Y-315284000D03*
%TO.P,J1,D10,D10*%
%TO.N,/Ch3 Daughterboard/digio.in3*%
X195124000Y-315284000D03*
%TO.P,J1,DG1,DG1*%
%TO.N,GND*%
X217624000Y-313784000D03*
%TO.P,J1,DG2,DG2*%
X215124000Y-313784000D03*
%TO.P,J1,DG3,DG3*%
X212624000Y-313784000D03*
%TO.P,J1,DG4,DG4*%
X210124000Y-313784000D03*
%TO.P,J1,DG5,DG5*%
X207624000Y-313784000D03*
%TO.P,J1,DG6,DG6*%
X205124000Y-313784000D03*
%TO.P,J1,DG7,DG7*%
X202624000Y-313784000D03*
%TO.P,J1,DG8,DG8*%
X200124000Y-313784000D03*
%TO.P,J1,DG9,DG9*%
X197624000Y-313784000D03*
%TO.P,J1,DG10,DG10*%
X195124000Y-313784000D03*
%TD*%
D14*
%TO.P,MT11,1,1*%
%TO.N,GND*%
X125000000Y-145000000D03*
D15*
X125000000Y-145000000D03*
%TD*%
D16*
%TO.P,U17,1,I+*%
%TO.N,/Ch3 Burden Resistor/Iin0.dcct+*%
X173142000Y-122500000D03*
%TO.P,U17,2,Vout+*%
%TO.N,/Ch3 Burden Resistor/Vout0.dcct+*%
X178142000Y-122500000D03*
%TO.P,U17,3,Vout-*%
%TO.N,/Ch3 Burden Resistor/Vout0.dcct-*%
X191858000Y-122500000D03*
%TO.P,U17,4,I-*%
%TO.N,/Ch3 Burden Resistor/Iin0.dcct-*%
X196858000Y-122500000D03*
%TO.P,U17,5,I+*%
%TO.N,/Ch3 Burden Resistor/Iin1.dcct+*%
X173142000Y-127500000D03*
%TO.P,U17,6,Vout+*%
%TO.N,/Ch3 Burden Resistor/Vout1.dcct+*%
X178142000Y-127500000D03*
%TO.P,U17,7,Vout-*%
%TO.N,/Ch3 Burden Resistor/Vout1.dcct-*%
X191858000Y-127500000D03*
%TO.P,U17,8,I-*%
%TO.N,/Ch3 Burden Resistor/Iin1.dcct-*%
X196858000Y-127500000D03*
D17*
%TO.P,U17,9*%
%TO.N,N/C*%
X185000000Y-125000000D03*
%TD*%
D10*
%TO.P,MT2,1,1*%
%TO.N,GND*%
X111960000Y-329920000D03*
%TD*%
D14*
%TO.P,MT21,1,1*%
%TO.N,GND*%
X214866500Y-295000000D03*
D15*
X214866500Y-295000000D03*
%TD*%
D16*
%TO.P,U16,1,I+*%
%TO.N,/Ch2 Burden Resistor/Iin0.dcct+*%
X128142000Y-122500000D03*
%TO.P,U16,2,Vout+*%
%TO.N,/Ch2 Burden Resistor/Vout0.dcct+*%
X133142000Y-122500000D03*
%TO.P,U16,3,Vout-*%
%TO.N,/Ch2 Burden Resistor/Vout0.dcct-*%
X146858000Y-122500000D03*
%TO.P,U16,4,I-*%
%TO.N,/Ch2 Burden Resistor/Iin0.dcct-*%
X151858000Y-122500000D03*
%TO.P,U16,5,I+*%
%TO.N,/Ch2 Burden Resistor/Iin1.dcct+*%
X128142000Y-127500000D03*
%TO.P,U16,6,Vout+*%
%TO.N,/Ch2 Burden Resistor/Vout1.dcct+*%
X133142000Y-127500000D03*
%TO.P,U16,7,Vout-*%
%TO.N,/Ch2 Burden Resistor/Vout1.dcct-*%
X146858000Y-127500000D03*
%TO.P,U16,8,I-*%
%TO.N,/Ch2 Burden Resistor/Iin1.dcct-*%
X151858000Y-127500000D03*
D17*
%TO.P,U16,9*%
%TO.N,N/C*%
X140000000Y-125000000D03*
%TD*%
D14*
%TO.P,MT22,1,1*%
%TO.N,GND*%
X245000000Y-295000000D03*
D15*
X245000000Y-295000000D03*
%TD*%
D14*
%TO.P,MT14,1,1*%
%TO.N,GND*%
X155000000Y-295000000D03*
D15*
X155000000Y-295000000D03*
%TD*%
D14*
%TO.P,MT9,1,1*%
%TO.N,GND*%
X80000000Y-295000000D03*
D15*
X80000000Y-295000000D03*
%TD*%
D16*
%TO.P,U15,1,I+*%
%TO.N,/Ch1 Burden Resistor/Iin0.dcct+*%
X83142000Y-122500000D03*
%TO.P,U15,2,Vout+*%
%TO.N,/Ch1 Burden Resistor/Vout0.dcct+*%
X88142000Y-122500000D03*
%TO.P,U15,3,Vout-*%
%TO.N,/Ch1 Burden Resistor/Vout0.dcct-*%
X101858000Y-122500000D03*
%TO.P,U15,4,I-*%
%TO.N,/Ch1 Burden Resistor/Iin0.dcct-*%
X106858000Y-122500000D03*
%TO.P,U15,5,I+*%
%TO.N,/Ch1 Burden Resistor/Iin1.dcct+*%
X83142000Y-127500000D03*
%TO.P,U15,6,Vout+*%
%TO.N,/Ch1 Burden Resistor/Vout1.dcct+*%
X88142000Y-127500000D03*
%TO.P,U15,7,Vout-*%
%TO.N,/Ch1 Burden Resistor/Vout1.dcct-*%
X101858000Y-127500000D03*
%TO.P,U15,8,I-*%
%TO.N,/Ch1 Burden Resistor/Iin1.dcct-*%
X106858000Y-127500000D03*
D17*
%TO.P,U15,9*%
%TO.N,N/C*%
X95000000Y-125000000D03*
%TD*%
D14*
%TO.P,MT17,1,1*%
%TO.N,GND*%
X170000000Y-295000000D03*
D15*
X170000000Y-295000000D03*
%TD*%
D10*
%TO.P,MT4,1,1*%
%TO.N,GND*%
X299920000Y-85000000D03*
%TD*%
D14*
%TO.P,MT18,1,1*%
%TO.N,GND*%
X200000000Y-295000000D03*
D15*
X200000000Y-295000000D03*
%TD*%
D18*
%TO.P,TP2,1,1*%
%TO.N,+5.0V*%
X301500000Y-301300000D03*
%TD*%
D10*
%TO.P,MT5,1,1*%
%TO.N,GND*%
X299920000Y-329920000D03*
%TD*%
D14*
%TO.P,MT16,1,1*%
%TO.N,GND*%
X200000000Y-145000000D03*
D15*
X200000000Y-145000000D03*
%TD*%
D10*
%TO.P,MT6,1,1*%
%TO.N,GND*%
X68780000Y-85000000D03*
%TD*%
D19*
%TO.P,J11,1,1*%
%TO.N,/Ch2 Daughterboard/reg.out+*%
X147620000Y-90000000D03*
D20*
%TO.P,J11,2,2*%
%TO.N,unconnected-(J11-Pad2)*%
X146350000Y-90000000D03*
%TO.P,J11,3,3*%
%TO.N,/Ch2 Daughterboard/ps.vout+*%
X145080000Y-90000000D03*
%TO.P,J11,4,4*%
%TO.N,/Ch2 Daughterboard/ps.ignd+*%
X143810000Y-90000000D03*
%TO.P,J11,5,5*%
%TO.N,/Ch2 Daughterboard/ps.spare+*%
X142540000Y-90000000D03*
%TO.P,J11,6,6*%
%TO.N,unconnected-(J11-Pad6)*%
X141270000Y-90000000D03*
%TO.P,J11,7,7*%
%TO.N,/Ch2 Daughterboard/digout.on1*%
X140000000Y-90000000D03*
%TO.P,J11,8,8*%
%TO.N,/Ch2 Daughterboard/digout.on2*%
X138730000Y-90000000D03*
%TO.P,J11,9,9*%
%TO.N,/Ch2 Daughterboard/digout.reset*%
X137460000Y-90000000D03*
%TO.P,J11,10,10*%
%TO.N,/Ch2 Daughterboard/digout.spare*%
X136190000Y-90000000D03*
%TO.P,J11,11,11*%
%TO.N,/Ch2 Daughterboard/digout.rtn*%
X134920000Y-90000000D03*
%TO.P,J11,12,12*%
X133650000Y-90000000D03*
%TO.P,J11,13,13*%
%TO.N,unconnected-(J11-Pad13)*%
X132380000Y-90000000D03*
%TO.P,J11,14,14*%
%TO.N,/Ch2 Daughterboard/reg.out-*%
X146985000Y-87460000D03*
%TO.P,J11,15,15*%
%TO.N,unconnected-(J11-Pad15)*%
X145715000Y-87460000D03*
%TO.P,J11,16,16*%
%TO.N,/Ch2 Daughterboard/ps.vout-*%
X144445000Y-87460000D03*
%TO.P,J11,17,17*%
%TO.N,/Ch2 Daughterboard/ps.ignd-*%
X143175000Y-87460000D03*
%TO.P,J11,18,18*%
%TO.N,/Ch2 Daughterboard/ps.spare-*%
X141905000Y-87460000D03*
%TO.P,J11,19,19*%
%TO.N,unconnected-(J11-Pad19)*%
X140635000Y-87460000D03*
%TO.P,J11,20,20*%
%TO.N,/Ch2 Daughterboard/digin.acon*%
X139365000Y-87460000D03*
%TO.P,J11,21,21*%
%TO.N,/Ch2 Daughterboard/digin.flt1*%
X138095000Y-87460000D03*
%TO.P,J11,22,22*%
%TO.N,/Ch2 Daughterboard/digin.flt2*%
X136825000Y-87460000D03*
%TO.P,J11,23,23*%
%TO.N,/Ch2 Daughterboard/digin.spare*%
X135555000Y-87460000D03*
%TO.P,J11,24,24*%
%TO.N,/Ch2 Daughterboard/digin.rtn*%
X134285000Y-87460000D03*
%TO.P,J11,25,25*%
X133015000Y-87460000D03*
D21*
%TO.P,J11,26*%
%TO.N,N/C*%
X127744500Y-86190000D03*
%TO.P,J11,27*%
X152255500Y-86190000D03*
%TD*%
D19*
%TO.P,J17,1,1*%
%TO.N,/Ch4 Daughterboard/reg.out+*%
X237620000Y-90000000D03*
D20*
%TO.P,J17,2,2*%
%TO.N,unconnected-(J17-Pad2)*%
X236350000Y-90000000D03*
%TO.P,J17,3,3*%
%TO.N,/Ch4 Daughterboard/ps.vout+*%
X235080000Y-90000000D03*
%TO.P,J17,4,4*%
%TO.N,/Ch4 Daughterboard/ps.ignd+*%
X233810000Y-90000000D03*
%TO.P,J17,5,5*%
%TO.N,/Ch4 Daughterboard/ps.spare+*%
X232540000Y-90000000D03*
%TO.P,J17,6,6*%
%TO.N,unconnected-(J17-Pad6)*%
X231270000Y-90000000D03*
%TO.P,J17,7,7*%
%TO.N,/Ch4 Daughterboard/digout.on1*%
X230000000Y-90000000D03*
%TO.P,J17,8,8*%
%TO.N,/Ch4 Daughterboard/digout.on2*%
X228730000Y-90000000D03*
%TO.P,J17,9,9*%
%TO.N,/Ch4 Daughterboard/digout.reset*%
X227460000Y-90000000D03*
%TO.P,J17,10,10*%
%TO.N,/Ch4 Daughterboard/digout.spare*%
X226190000Y-90000000D03*
%TO.P,J17,11,11*%
%TO.N,/Ch4 Daughterboard/digout.rtn*%
X224920000Y-90000000D03*
%TO.P,J17,12,12*%
X223650000Y-90000000D03*
%TO.P,J17,13,13*%
%TO.N,unconnected-(J17-Pad13)*%
X222380000Y-90000000D03*
%TO.P,J17,14,14*%
%TO.N,/Ch4 Daughterboard/reg.out-*%
X236985000Y-87460000D03*
%TO.P,J17,15,15*%
%TO.N,unconnected-(J17-Pad15)*%
X235715000Y-87460000D03*
%TO.P,J17,16,16*%
%TO.N,/Ch4 Daughterboard/ps.vout-*%
X234445000Y-87460000D03*
%TO.P,J17,17,17*%
%TO.N,/Ch4 Daughterboard/ps.ignd-*%
X233175000Y-87460000D03*
%TO.P,J17,18,18*%
%TO.N,/Ch4 Daughterboard/ps.spare-*%
X231905000Y-87460000D03*
%TO.P,J17,19,19*%
%TO.N,unconnected-(J17-Pad19)*%
X230635000Y-87460000D03*
%TO.P,J17,20,20*%
%TO.N,/Ch4 Daughterboard/digin.acon*%
X229365000Y-87460000D03*
%TO.P,J17,21,21*%
%TO.N,/Ch4 Daughterboard/digin.flt1*%
X228095000Y-87460000D03*
%TO.P,J17,22,22*%
%TO.N,/Ch4 Daughterboard/digin.flt2*%
X226825000Y-87460000D03*
%TO.P,J17,23,23*%
%TO.N,/Ch4 Daughterboard/digin.spare*%
X225555000Y-87460000D03*
%TO.P,J17,24,24*%
%TO.N,/Ch4 Daughterboard/digin.rtn*%
X224285000Y-87460000D03*
%TO.P,J17,25,25*%
X223015000Y-87460000D03*
D21*
%TO.P,J17,26*%
%TO.N,N/C*%
X217744500Y-86190000D03*
%TO.P,J17,27*%
X242255500Y-86190000D03*
%TD*%
D14*
%TO.P,MT20,1,1*%
%TO.N,GND*%
X245000000Y-145000000D03*
D15*
X245000000Y-145000000D03*
%TD*%
D12*
%TO.P,J2,A1,A1*%
%TO.N,/Ch2 Daughterboard/dcct.cnv*%
X166824000Y-321284000D03*
D13*
%TO.P,J2,A2,A2*%
%TO.N,/Ch2 Daughterboard/dcct.sdo1*%
X164324000Y-321284000D03*
%TO.P,J2,A3,A3*%
%TO.N,/Ch2 Daughterboard/dac.syncn*%
X161824000Y-321284000D03*
%TO.P,J2,A4,A4*%
%TO.N,/Ch2 Daughterboard/digio.out2*%
X159324000Y-321284000D03*
%TO.P,J2,A5,A5*%
%TO.N,/Ch2 Daughterboard/digio.in2*%
X156824000Y-321284000D03*
%TO.P,J2,A6,A6*%
%TO.N,unconnected-(J2-PadA6)*%
X154324000Y-321284000D03*
%TO.P,J2,A7,A7*%
%TO.N,/Ch1 Daughterboard/dcct.sck*%
X151824000Y-321284000D03*
%TO.P,J2,A8,A8*%
%TO.N,/Ch1 Daughterboard/dac.sclk*%
X149324000Y-321284000D03*
%TO.P,J2,A9,A9*%
%TO.N,/Ch1 Daughterboard/digio.out0*%
X146824000Y-321284000D03*
%TO.P,J2,A10,A10*%
%TO.N,/Ch1 Daughterboard/digio.in0*%
X144324000Y-321284000D03*
%TO.P,J2,B1,B1*%
%TO.N,/Ch2 Daughterboard/dcct.busy*%
X166824000Y-319784000D03*
%TO.P,J2,B2,B2*%
%TO.N,unconnected-(J2-PadB2)*%
X164324000Y-319784000D03*
%TO.P,J2,B3,B3*%
%TO.N,unconnected-(J2-PadB3)*%
X161824000Y-319784000D03*
%TO.P,J2,B4,B4*%
%TO.N,/Ch2 Daughterboard/digio.out3*%
X159324000Y-319784000D03*
%TO.P,J2,B5,B5*%
%TO.N,/Ch2 Daughterboard/digio.in3*%
X156824000Y-319784000D03*
%TO.P,J2,B6,B6*%
%TO.N,unconnected-(J2-PadB6)*%
X154324000Y-319784000D03*
%TO.P,J2,B7,B7*%
%TO.N,/Ch1 Daughterboard/dcct.sdo0*%
X151824000Y-319784000D03*
%TO.P,J2,B8,B8*%
%TO.N,/Ch1 Daughterboard/dac.sdin*%
X149324000Y-319784000D03*
%TO.P,J2,B9,B9*%
%TO.N,/Ch1 Daughterboard/digio.out1*%
X146824000Y-319784000D03*
%TO.P,J2,B10,B10*%
%TO.N,/Ch1 Daughterboard/digio.in1*%
X144324000Y-319784000D03*
%TO.P,J2,BG1,BG1*%
%TO.N,GND*%
X166824000Y-318284000D03*
%TO.P,J2,BG2,BG2*%
X164324000Y-318284000D03*
%TO.P,J2,BG3,BG3*%
X161824000Y-318284000D03*
%TO.P,J2,BG4,BG4*%
X159324000Y-318284000D03*
%TO.P,J2,BG5,BG5*%
X156824000Y-318284000D03*
%TO.P,J2,BG6,BG6*%
X154324000Y-318284000D03*
%TO.P,J2,BG7,BG7*%
X151824000Y-318284000D03*
%TO.P,J2,BG8,BG8*%
X149324000Y-318284000D03*
%TO.P,J2,BG9,BG9*%
X146824000Y-318284000D03*
%TO.P,J2,BG10,BG10*%
X144324000Y-318284000D03*
%TO.P,J2,C1,C1*%
%TO.N,/Ch2 Daughterboard/dcct.sck*%
X166824000Y-316784000D03*
%TO.P,J2,C2,C2*%
%TO.N,/Ch2 Daughterboard/dac.sclk*%
X164324000Y-316784000D03*
%TO.P,J2,C3,C3*%
%TO.N,/Ch2 Daughterboard/digio.out0*%
X161824000Y-316784000D03*
%TO.P,J2,C4,C4*%
%TO.N,/Ch2 Daughterboard/digio.in0*%
X159324000Y-316784000D03*
%TO.P,J2,C5,C5*%
%TO.N,unconnected-(J2-PadC5)*%
X156824000Y-316784000D03*
%TO.P,J2,C6,C6*%
%TO.N,/Ch1 Daughterboard/dcct.cnv*%
X154324000Y-316784000D03*
%TO.P,J2,C7,C7*%
%TO.N,/Ch1 Daughterboard/dcct.sdo1*%
X151824000Y-316784000D03*
%TO.P,J2,C8,C8*%
%TO.N,/Ch1 Daughterboard/dac.syncn*%
X149324000Y-316784000D03*
%TO.P,J2,C9,C9*%
%TO.N,/Ch1 Daughterboard/digio.out2*%
X146824000Y-316784000D03*
%TO.P,J2,C10,C10*%
%TO.N,/Ch1 Daughterboard/digio.in2*%
X144324000Y-316784000D03*
%TO.P,J2,D1,D1*%
%TO.N,/Ch2 Daughterboard/dcct.sdo0*%
X166824000Y-315284000D03*
%TO.P,J2,D2,D2*%
%TO.N,/Ch2 Daughterboard/dac.sdin*%
X164324000Y-315284000D03*
%TO.P,J2,D3,D3*%
%TO.N,/Ch2 Daughterboard/digio.out1*%
X161824000Y-315284000D03*
%TO.P,J2,D4,D4*%
%TO.N,/Ch2 Daughterboard/digio.in1*%
X159324000Y-315284000D03*
%TO.P,J2,D5,D5*%
%TO.N,unconnected-(J2-PadD5)*%
X156824000Y-315284000D03*
%TO.P,J2,D6,D6*%
%TO.N,/Ch1 Daughterboard/dcct.busy*%
X154324000Y-315284000D03*
%TO.P,J2,D7,D7*%
%TO.N,unconnected-(J2-PadD7)*%
X151824000Y-315284000D03*
%TO.P,J2,D8,D8*%
%TO.N,unconnected-(J2-PadD8)*%
X149324000Y-315284000D03*
%TO.P,J2,D9,D9*%
%TO.N,/Ch1 Daughterboard/digio.out3*%
X146824000Y-315284000D03*
%TO.P,J2,D10,D10*%
%TO.N,/Ch1 Daughterboard/digio.in3*%
X144324000Y-315284000D03*
%TO.P,J2,DG1,DG1*%
%TO.N,GND*%
X166824000Y-313784000D03*
%TO.P,J2,DG2,DG2*%
X164324000Y-313784000D03*
%TO.P,J2,DG3,DG3*%
X161824000Y-313784000D03*
%TO.P,J2,DG4,DG4*%
X159324000Y-313784000D03*
%TO.P,J2,DG5,DG5*%
X156824000Y-313784000D03*
%TO.P,J2,DG6,DG6*%
X154324000Y-313784000D03*
%TO.P,J2,DG7,DG7*%
X151824000Y-313784000D03*
%TO.P,J2,DG8,DG8*%
X149324000Y-313784000D03*
%TO.P,J2,DG9,DG9*%
X146824000Y-313784000D03*
%TO.P,J2,DG10,DG10*%
X144324000Y-313784000D03*
%TD*%
D14*
%TO.P,MT8,1,1*%
%TO.N,GND*%
X110000000Y-145000000D03*
D15*
X110000000Y-145000000D03*
%TD*%
D14*
%TO.P,MT19,1,1*%
%TO.N,GND*%
X215000000Y-145000000D03*
D15*
X215000000Y-145000000D03*
%TD*%
D10*
%TO.P,MT3,1,1*%
%TO.N,GND*%
X250644000Y-329920000D03*
%TD*%
D22*
%TO.P,J4,1,1*%
%TO.N,+5.0V*%
X293570000Y-312000000D03*
D23*
%TO.P,J4,2,2*%
%TO.N,GND*%
X288070000Y-312000000D03*
%TD*%
D16*
%TO.P,U18,1,I+*%
%TO.N,/Ch4 Burden Resistor/Iin0.dcct+*%
X218142000Y-122500000D03*
%TO.P,U18,2,Vout+*%
%TO.N,/Ch4 Burden Resistor/Vout0.dcct+*%
X223142000Y-122500000D03*
%TO.P,U18,3,Vout-*%
%TO.N,/Ch4 Burden Resistor/Vout0.dcct-*%
X236858000Y-122500000D03*
%TO.P,U18,4,I-*%
%TO.N,/Ch4 Burden Resistor/Iin0.dcct-*%
X241858000Y-122500000D03*
%TO.P,U18,5,I+*%
%TO.N,/Ch4 Burden Resistor/Iin1.dcct+*%
X218142000Y-127500000D03*
%TO.P,U18,6,Vout+*%
%TO.N,/Ch4 Burden Resistor/Vout1.dcct+*%
X223142000Y-127500000D03*
%TO.P,U18,7,Vout-*%
%TO.N,/Ch4 Burden Resistor/Vout1.dcct-*%
X236858000Y-127500000D03*
%TO.P,U18,8,I-*%
%TO.N,/Ch4 Burden Resistor/Iin1.dcct-*%
X241858000Y-127500000D03*
D17*
%TO.P,U18,9*%
%TO.N,N/C*%
X230000000Y-125000000D03*
%TD*%
D14*
%TO.P,MT15,1,1*%
%TO.N,GND*%
X170000000Y-145000000D03*
D15*
X170000000Y-145000000D03*
%TD*%
D12*
%TO.P,J3,A1,A1*%
%TO.N,/DCCT Fault Logic/dcct_flt_buf.12*%
X243024000Y-321284000D03*
D13*
%TO.P,J3,A2,A2*%
%TO.N,unconnected-(J3-PadA2)*%
X240524000Y-321284000D03*
%TO.P,J3,A3,A3*%
%TO.N,/Ch4 Daughterboard/mon.busy*%
X238024000Y-321284000D03*
%TO.P,J3,A4,A4*%
%TO.N,unconnected-(J3-PadA4)*%
X235524000Y-321284000D03*
%TO.P,J3,A5,A5*%
%TO.N,/Ch3 Daughterboard/mon.busy*%
X233024000Y-321284000D03*
%TO.P,J3,A6,A6*%
%TO.N,unconnected-(J3-PadA6)*%
X230524000Y-321284000D03*
%TO.P,J3,A7,A7*%
%TO.N,/Ch2 Daughterboard/mon.busy*%
X228024000Y-321284000D03*
%TO.P,J3,A8,A8*%
%TO.N,unconnected-(J3-PadA8)*%
X225524000Y-321284000D03*
%TO.P,J3,A9,A9*%
%TO.N,/Ch1 Daughterboard/mon.busy*%
X223024000Y-321284000D03*
%TO.P,J3,A10,A10*%
%TO.N,unconnected-(J3-PadA10)*%
X220524000Y-321284000D03*
%TO.P,J3,B1,B1*%
%TO.N,/DCCT Fault Logic/dcct_flt_buf.34*%
X243024000Y-319784000D03*
%TO.P,J3,B2,B2*%
%TO.N,unconnected-(J3-PadB2)*%
X240524000Y-319784000D03*
%TO.P,J3,B3,B3*%
%TO.N,/Ch4 Daughterboard/mon.fs*%
X238024000Y-319784000D03*
%TO.P,J3,B4,B4*%
%TO.N,unconnected-(J3-PadB4)*%
X235524000Y-319784000D03*
%TO.P,J3,B5,B5*%
%TO.N,/Ch3 Daughterboard/mon.fs*%
X233024000Y-319784000D03*
%TO.P,J3,B6,B6*%
%TO.N,unconnected-(J3-PadB6)*%
X230524000Y-319784000D03*
%TO.P,J3,B7,B7*%
%TO.N,/Ch2 Daughterboard/mon.fs*%
X228024000Y-319784000D03*
%TO.P,J3,B8,B8*%
%TO.N,unconnected-(J3-PadB8)*%
X225524000Y-319784000D03*
%TO.P,J3,B9,B9*%
%TO.N,/Ch1 Daughterboard/mon.fs*%
X223024000Y-319784000D03*
%TO.P,J3,B10,B10*%
%TO.N,unconnected-(J3-PadB10)*%
X220524000Y-319784000D03*
%TO.P,J3,BG1,BG1*%
%TO.N,GND*%
X243024000Y-318284000D03*
%TO.P,J3,BG2,BG2*%
X240524000Y-318284000D03*
%TO.P,J3,BG3,BG3*%
X238024000Y-318284000D03*
%TO.P,J3,BG4,BG4*%
X235524000Y-318284000D03*
%TO.P,J3,BG5,BG5*%
X233024000Y-318284000D03*
%TO.P,J3,BG6,BG6*%
X230524000Y-318284000D03*
%TO.P,J3,BG7,BG7*%
X228024000Y-318284000D03*
%TO.P,J3,BG8,BG8*%
X225524000Y-318284000D03*
%TO.P,J3,BG9,BG9*%
X223024000Y-318284000D03*
%TO.P,J3,BG10,BG10*%
X220524000Y-318284000D03*
%TO.P,J3,C1,C1*%
%TO.N,/DCCT Fault Logic/dcct_flt_buf.56*%
X243024000Y-316784000D03*
%TO.P,J3,C2,C2*%
%TO.N,/Ch4 Daughterboard/mon.reset*%
X240524000Y-316784000D03*
%TO.P,J3,C3,C3*%
%TO.N,/Ch4 Daughterboard/mon.sdo*%
X238024000Y-316784000D03*
%TO.P,J3,C4,C4*%
%TO.N,/Ch3 Daughterboard/mon.reset*%
X235524000Y-316784000D03*
%TO.P,J3,C5,C5*%
%TO.N,/Ch3 Daughterboard/mon.sdo*%
X233024000Y-316784000D03*
%TO.P,J3,C6,C6*%
%TO.N,/Ch2 Daughterboard/mon.reset*%
X230524000Y-316784000D03*
%TO.P,J3,C7,C7*%
%TO.N,/Ch2 Daughterboard/mon.sdo*%
X228024000Y-316784000D03*
%TO.P,J3,C8,C8*%
%TO.N,/Ch1 Daughterboard/mon.reset*%
X225524000Y-316784000D03*
%TO.P,J3,C9,C9*%
%TO.N,/Ch1 Daughterboard/mon.sdo*%
X223024000Y-316784000D03*
%TO.P,J3,C10,C10*%
%TO.N,/regulators/i2c_sda*%
X220524000Y-316784000D03*
%TO.P,J3,D1,D1*%
%TO.N,/DCCT Fault Logic/dcct_flt_buf.78*%
X243024000Y-315284000D03*
%TO.P,J3,D2,D2*%
%TO.N,/Ch4 Daughterboard/mon.cnvrt*%
X240524000Y-315284000D03*
%TO.P,J3,D3,D3*%
%TO.N,/Ch4 Daughterboard/mon.sclk*%
X238024000Y-315284000D03*
%TO.P,J3,D4,D4*%
%TO.N,/Ch3 Daughterboard/mon.cnvrt*%
X235524000Y-315284000D03*
%TO.P,J3,D5,D5*%
%TO.N,/Ch3 Daughterboard/mon.sclk*%
X233024000Y-315284000D03*
%TO.P,J3,D6,D6*%
%TO.N,/Ch2 Daughterboard/mon.cnvrt*%
X230524000Y-315284000D03*
%TO.P,J3,D7,D7*%
%TO.N,/Ch2 Daughterboard/mon.sclk*%
X228024000Y-315284000D03*
%TO.P,J3,D8,D8*%
%TO.N,/Ch1 Daughterboard/mon.cnvrt*%
X225524000Y-315284000D03*
%TO.P,J3,D9,D9*%
%TO.N,/Ch1 Daughterboard/mon.sclk*%
X223024000Y-315284000D03*
%TO.P,J3,D10,D10*%
%TO.N,/regulators/i2c_scl*%
X220524000Y-315284000D03*
%TO.P,J3,DG1,DG1*%
%TO.N,GND*%
X243024000Y-313784000D03*
%TO.P,J3,DG2,DG2*%
X240524000Y-313784000D03*
%TO.P,J3,DG3,DG3*%
X238024000Y-313784000D03*
%TO.P,J3,DG4,DG4*%
X235524000Y-313784000D03*
%TO.P,J3,DG5,DG5*%
X233024000Y-313784000D03*
%TO.P,J3,DG6,DG6*%
X230524000Y-313784000D03*
%TO.P,J3,DG7,DG7*%
X228024000Y-313784000D03*
%TO.P,J3,DG8,DG8*%
X225524000Y-313784000D03*
%TO.P,J3,DG9,DG9*%
X223024000Y-313784000D03*
%TO.P,J3,DG10,DG10*%
X220524000Y-313784000D03*
%TD*%
D14*
%TO.P,MT13,1,1*%
%TO.N,GND*%
X125100000Y-295000000D03*
D15*
X125100000Y-295000000D03*
%TD*%
D18*
%TO.P,TP1,1,1*%
%TO.N,Net-(Q1-G)*%
X297600000Y-271150000D03*
%TD*%
D14*
%TO.P,MT10,1,1*%
%TO.N,GND*%
X110000000Y-295000000D03*
D15*
X110000000Y-295000000D03*
%TD*%
D14*
%TO.P,MT7,1,1*%
%TO.N,GND*%
X80000000Y-145000000D03*
D15*
X80000000Y-145000000D03*
%TD*%
D19*
%TO.P,J14,1,1*%
%TO.N,/Ch3 Daughterboard/reg.out+*%
X192620000Y-90000000D03*
D20*
%TO.P,J14,2,2*%
%TO.N,unconnected-(J14-Pad2)*%
X191350000Y-90000000D03*
%TO.P,J14,3,3*%
%TO.N,/Ch3 Daughterboard/ps.vout+*%
X190080000Y-90000000D03*
%TO.P,J14,4,4*%
%TO.N,/Ch3 Daughterboard/ps.ignd+*%
X188810000Y-90000000D03*
%TO.P,J14,5,5*%
%TO.N,/Ch3 Daughterboard/ps.spare+*%
X187540000Y-90000000D03*
%TO.P,J14,6,6*%
%TO.N,unconnected-(J14-Pad6)*%
X186270000Y-90000000D03*
%TO.P,J14,7,7*%
%TO.N,/Ch3 Daughterboard/digout.on1*%
X185000000Y-90000000D03*
%TO.P,J14,8,8*%
%TO.N,/Ch3 Daughterboard/digout.on2*%
X183730000Y-90000000D03*
%TO.P,J14,9,9*%
%TO.N,/Ch3 Daughterboard/digout.reset*%
X182460000Y-90000000D03*
%TO.P,J14,10,10*%
%TO.N,/Ch3 Daughterboard/digout.spare*%
X181190000Y-90000000D03*
%TO.P,J14,11,11*%
%TO.N,/Ch3 Daughterboard/digout.rtn*%
X179920000Y-90000000D03*
%TO.P,J14,12,12*%
X178650000Y-90000000D03*
%TO.P,J14,13,13*%
%TO.N,unconnected-(J14-Pad13)*%
X177380000Y-90000000D03*
%TO.P,J14,14,14*%
%TO.N,/Ch3 Daughterboard/reg.out-*%
X191985000Y-87460000D03*
%TO.P,J14,15,15*%
%TO.N,unconnected-(J14-Pad15)*%
X190715000Y-87460000D03*
%TO.P,J14,16,16*%
%TO.N,/Ch3 Daughterboard/ps.vout-*%
X189445000Y-87460000D03*
%TO.P,J14,17,17*%
%TO.N,/Ch3 Daughterboard/ps.ignd-*%
X188175000Y-87460000D03*
%TO.P,J14,18,18*%
%TO.N,/Ch3 Daughterboard/ps.spare-*%
X186905000Y-87460000D03*
%TO.P,J14,19,19*%
%TO.N,unconnected-(J14-Pad19)*%
X185635000Y-87460000D03*
%TO.P,J14,20,20*%
%TO.N,/Ch3 Daughterboard/digin.acon*%
X184365000Y-87460000D03*
%TO.P,J14,21,21*%
%TO.N,/Ch3 Daughterboard/digin.flt1*%
X183095000Y-87460000D03*
%TO.P,J14,22,22*%
%TO.N,/Ch3 Daughterboard/digin.flt2*%
X181825000Y-87460000D03*
%TO.P,J14,23,23*%
%TO.N,/Ch3 Daughterboard/digin.spare*%
X180555000Y-87460000D03*
%TO.P,J14,24,24*%
%TO.N,/Ch3 Daughterboard/digin.rtn*%
X179285000Y-87460000D03*
%TO.P,J14,25,25*%
X178015000Y-87460000D03*
D21*
%TO.P,J14,26*%
%TO.N,N/C*%
X172744500Y-86190000D03*
%TO.P,J14,27*%
X197255500Y-86190000D03*
%TD*%
D14*
%TO.P,MT12,1,1*%
%TO.N,GND*%
X155000000Y-145000000D03*
D15*
X155000000Y-145000000D03*
%TD*%
D19*
%TO.P,J8,1,1*%
%TO.N,/Ch1 Daughterboard/reg.out+*%
X102620000Y-90000000D03*
D20*
%TO.P,J8,2,2*%
%TO.N,unconnected-(J8-Pad2)*%
X101350000Y-90000000D03*
%TO.P,J8,3,3*%
%TO.N,/Ch1 Daughterboard/ps.vout+*%
X100080000Y-90000000D03*
%TO.P,J8,4,4*%
%TO.N,/Ch1 Daughterboard/ps.ignd+*%
X98810000Y-90000000D03*
%TO.P,J8,5,5*%
%TO.N,/Ch1 Daughterboard/ps.spare+*%
X97540000Y-90000000D03*
%TO.P,J8,6,6*%
%TO.N,unconnected-(J8-Pad6)*%
X96270000Y-90000000D03*
%TO.P,J8,7,7*%
%TO.N,/Ch1 Daughterboard/digout.on1*%
X95000000Y-90000000D03*
%TO.P,J8,8,8*%
%TO.N,/Ch1 Daughterboard/digout.on2*%
X93730000Y-90000000D03*
%TO.P,J8,9,9*%
%TO.N,/Ch1 Daughterboard/digout.reset*%
X92460000Y-90000000D03*
%TO.P,J8,10,10*%
%TO.N,/Ch1 Daughterboard/digout.spare*%
X91190000Y-90000000D03*
%TO.P,J8,11,11*%
%TO.N,/Ch1 Daughterboard/digout.rtn*%
X89920000Y-90000000D03*
%TO.P,J8,12,12*%
X88650000Y-90000000D03*
%TO.P,J8,13,13*%
%TO.N,unconnected-(J8-Pad13)*%
X87380000Y-90000000D03*
%TO.P,J8,14,14*%
%TO.N,/Ch1 Daughterboard/reg.out-*%
X101985000Y-87460000D03*
%TO.P,J8,15,15*%
%TO.N,unconnected-(J8-Pad15)*%
X100715000Y-87460000D03*
%TO.P,J8,16,16*%
%TO.N,/Ch1 Daughterboard/ps.vout-*%
X99445000Y-87460000D03*
%TO.P,J8,17,17*%
%TO.N,/Ch1 Daughterboard/ps.ignd-*%
X98175000Y-87460000D03*
%TO.P,J8,18,18*%
%TO.N,/Ch1 Daughterboard/ps.spare-*%
X96905000Y-87460000D03*
%TO.P,J8,19,19*%
%TO.N,unconnected-(J8-Pad19)*%
X95635000Y-87460000D03*
%TO.P,J8,20,20*%
%TO.N,/Ch1 Daughterboard/digin.acon*%
X94365000Y-87460000D03*
%TO.P,J8,21,21*%
%TO.N,/Ch1 Daughterboard/digin.flt1*%
X93095000Y-87460000D03*
%TO.P,J8,22,22*%
%TO.N,/Ch1 Daughterboard/digin.flt2*%
X91825000Y-87460000D03*
%TO.P,J8,23,23*%
%TO.N,/Ch1 Daughterboard/digin.spare*%
X90555000Y-87460000D03*
%TO.P,J8,24,24*%
%TO.N,/Ch1 Daughterboard/digin.rtn*%
X89285000Y-87460000D03*
%TO.P,J8,25,25*%
X88015000Y-87460000D03*
D21*
%TO.P,J8,26*%
%TO.N,N/C*%
X82744500Y-86190000D03*
%TO.P,J8,27*%
X107255500Y-86190000D03*
%TD*%
D10*
%TO.P,MT1,1,1*%
%TO.N,GND*%
X68780000Y-329920000D03*
%TD*%
D24*
%TO.P,C58,1*%
%TO.N,+3.3V*%
X285220000Y-248400000D03*
%TO.P,C58,2*%
%TO.N,GND*%
X286180000Y-248400000D03*
%TD*%
D25*
%TO.P,C14,1*%
%TO.N,+5.0V*%
X269125000Y-224050000D03*
%TO.P,C14,2*%
%TO.N,GND*%
X269125000Y-223090000D03*
%TD*%
D26*
%TO.P,C75,1*%
%TO.N,+3.3V*%
X268380000Y-316200000D03*
%TO.P,C75,2*%
%TO.N,GND*%
X267420000Y-316200000D03*
%TD*%
D27*
%TO.P,C13,1*%
%TO.N,/regulators/+15v -15v PSC Regulators/-15V_PSC_REG*%
X264150000Y-223515000D03*
%TO.P,C13,2*%
%TO.N,GND*%
X264150000Y-224475000D03*
%TD*%
%TO.P,C72,1*%
%TO.N,/regulators/+15v -15v DCCT Regulators/-15V_DCCT_REG*%
X263800000Y-174800000D03*
%TO.P,C72,2*%
%TO.N,GND*%
X263800000Y-175760000D03*
%TD*%
D25*
%TO.P,C74,1*%
%TO.N,/regulators/+15v -15v DCCT Regulators/+15V_DCCT_REG*%
X268412500Y-151960000D03*
%TO.P,C74,2*%
%TO.N,GND*%
X268412500Y-151000000D03*
%TD*%
%TO.P,C15,1*%
%TO.N,/regulators/+15v -15v PSC Regulators/+15V_PSC_REG*%
X268590000Y-201660000D03*
%TO.P,C15,2*%
%TO.N,GND*%
X268590000Y-200700000D03*
%TD*%
D24*
%TO.P,C59,1*%
%TO.N,+3.3V*%
X285220000Y-240400000D03*
%TO.P,C59,2*%
%TO.N,GND*%
X286180000Y-240400000D03*
%TD*%
D25*
%TO.P,C73,1*%
%TO.N,+5.0V*%
X268800000Y-175760000D03*
%TO.P,C73,2*%
%TO.N,GND*%
X268800000Y-174800000D03*
%TD*%
D24*
%TO.P,C57,1*%
%TO.N,+3.3V*%
X285240000Y-232500000D03*
%TO.P,C57,2*%
%TO.N,GND*%
X286200000Y-232500000D03*
%TD*%
D28*
%TO.P,J7,1*%
%TO.N,+15V_DCCT*%
X285000000Y-94600000D03*
%TO.P,J7,2*%
%TO.N,/Ch1 Burden Resistor/Iin0.dcct+*%
X282714000Y-94600000D03*
%TO.P,J7,3*%
%TO.N,/Ch1 Burden Resistor/Iin1.dcct+*%
X280428000Y-94600000D03*
%TO.P,J7,4*%
%TO.N,/Ch2 Burden Resistor/Iin0.dcct+*%
X278142000Y-94600000D03*
%TO.P,J7,5*%
%TO.N,/DCCT Fault Logic/dcct_flt.12*%
X275830600Y-94600000D03*
%TO.P,J7,6*%
%TO.N,/Ch4 Burden Resistor/Iin0.dcct+*%
X273544600Y-94600000D03*
%TO.P,J7,7*%
%TO.N,/Ch3 Burden Resistor/Iin1.dcct+*%
X271258600Y-94600000D03*
%TO.P,J7,8*%
%TO.N,/Ch3 Burden Resistor/Iin0.dcct+*%
X268972600Y-94600000D03*
%TO.P,J7,9*%
%TO.N,+15V_DCCT*%
X266686600Y-94600000D03*
%TO.P,J7,10*%
%TO.N,GND*%
X286143000Y-92060000D03*
%TO.P,J7,11*%
%TO.N,/Ch1 Burden Resistor/Iin0.dcct-*%
X283857000Y-92060000D03*
%TO.P,J7,12*%
%TO.N,/Ch1 Burden Resistor/Iin1.dcct-*%
X281571000Y-92060000D03*
%TO.P,J7,13*%
%TO.N,/Ch2 Burden Resistor/Iin0.dcct-*%
X279259600Y-92060000D03*
%TO.P,J7,14*%
%TO.N,/DCCT Fault Logic/dcct_flt.34*%
X276973600Y-92060000D03*
%TO.P,J7,15*%
%TO.N,/Ch4 Burden Resistor/Iin0.dcct-*%
X274687600Y-92060000D03*
%TO.P,J7,16*%
%TO.N,/Ch3 Burden Resistor/Iin1.dcct-*%
X272401600Y-92060000D03*
%TO.P,J7,17*%
%TO.N,/Ch3 Burden Resistor/Iin0.dcct-*%
X270115600Y-92060000D03*
%TO.P,J7,18*%
%TO.N,GND*%
X267829600Y-92060000D03*
%TO.P,J7,19*%
%TO.N,-15V_DCCT*%
X285000000Y-89520000D03*
%TO.P,J7,20*%
%TO.N,/Ch2 Burden Resistor/Iin1.dcct+*%
X282714000Y-89520000D03*
%TO.P,J7,21*%
%TO.N,/Ch2 Burden Resistor/Iin1.dcct-*%
X280428000Y-89520000D03*
%TO.P,J7,22*%
%TO.N,/DCCT Fault Logic/dcct_flt.56*%
X278142000Y-89520000D03*
%TO.P,J7,23*%
%TO.N,/DCCT Fault Logic/dcct_flt.78*%
X275830600Y-89520000D03*
%TO.P,J7,24*%
%TO.N,/Ch4 Burden Resistor/Iin1.dcct+*%
X273544600Y-89520000D03*
%TO.P,J7,25*%
%TO.N,/Ch4 Burden Resistor/Iin1.dcct-*%
X271258600Y-89520000D03*
%TO.P,J7,26*%
%TO.N,-15V_DCCT*%
X268972600Y-89520000D03*
%TD*%
D29*
%TO.N,GND*%
X268000000Y-193550000D03*
X268000000Y-194716000D03*
X268000000Y-192000000D03*
%TO.N,+5.0V*%
X273000000Y-257000000D03*
X270000000Y-257000000D03*
X269000000Y-257000000D03*
X268000000Y-257000000D03*
X267000000Y-257000000D03*
X266000000Y-257000000D03*
X265000000Y-257000000D03*
X272450000Y-293750000D03*
X272250000Y-291990000D03*
X271200000Y-290950000D03*
%TO.N,GND*%
X283200000Y-194350000D03*
X286950000Y-248400000D03*
X278000000Y-246300000D03*
X286399809Y-243769431D03*
X286500950Y-242729431D03*
X281025000Y-223625000D03*
X283225000Y-223325000D03*
X280950000Y-206300000D03*
X283100000Y-206900000D03*
X281000000Y-174450000D03*
X283125000Y-174075000D03*
X264750000Y-249800000D03*
X265500000Y-249800000D03*
X265450000Y-248350000D03*
X264650000Y-248350000D03*
X265100000Y-249045000D03*
X263750000Y-322000000D03*
X263750000Y-320600000D03*
X263700000Y-319350000D03*
X263650000Y-318000000D03*
X241650000Y-158900000D03*
X238350000Y-158850000D03*
X235200000Y-155750000D03*
X225200000Y-159050000D03*
X233150000Y-155600000D03*
X98050000Y-155550000D03*
%TO.N,+15V*%
X274150000Y-245500000D03*
%TO.N,*%
X284450000Y-209600000D03*
X285600000Y-209600000D03*
X285550000Y-208700000D03*
%TO.N,Net-(Q1-G)*%
X282000000Y-279050000D03*
%TO.N,Net-(U11-SYNC{slash}MODE)*%
X282600000Y-278550000D03*
X292050000Y-279600000D03*
%TO.N,GND*%
X283500000Y-276750000D03*
X284550000Y-278200000D03*
X285350000Y-278200000D03*
%TO.N,+5.0V*%
X285850000Y-277300000D03*
%TO.N,Net-(Q1-G)*%
X299050000Y-274050000D03*
X289500000Y-278700000D03*
%TO.N,+18V*%
X301800000Y-280300000D03*
%TO.N,GND*%
X298850000Y-275350000D03*
X289950000Y-272050000D03*
X287475000Y-274875000D03*
X291500000Y-274650000D03*
X293000000Y-274600000D03*
X296950000Y-279800000D03*
X296950000Y-278800000D03*
X296275000Y-282475000D03*
X293850000Y-282700000D03*
%TO.N,+18V*%
X297050000Y-280800000D03*
%TO.N,GND*%
X285400000Y-282450000D03*
X287850000Y-282500000D03*
%TO.N,+5.0V*%
X287750000Y-280750000D03*
X287200000Y-280200000D03*
%TO.N,+18V*%
X284400000Y-283550000D03*
X284400000Y-284550000D03*
X285050000Y-283950000D03*
X297450000Y-284400000D03*
X297450000Y-283600000D03*
X296750000Y-284050000D03*
%TO.N,GND*%
X258140000Y-271085000D03*
X260190000Y-269585000D03*
X261490000Y-268635000D03*
X267940000Y-268135000D03*
X269490000Y-269085000D03*
X271240000Y-269035000D03*
X290175000Y-283300000D03*
X138000000Y-280950000D03*
X194190000Y-155545000D03*
X150800000Y-280900000D03*
X146750000Y-285350000D03*
X239200000Y-281000000D03*
X143550000Y-285350000D03*
X148400000Y-285050000D03*
X225300000Y-154495000D03*
X149200000Y-289350000D03*
X194250000Y-281000000D03*
X230620000Y-150825000D03*
X224800000Y-280950000D03*
X282600000Y-133500000D03*
X90600000Y-285250000D03*
X258150000Y-285190000D03*
X194250000Y-289400000D03*
X188600000Y-285400000D03*
X233550000Y-285400000D03*
X142400000Y-158900000D03*
X136780000Y-150735000D03*
D30*
X264690000Y-292390000D03*
D29*
X101750000Y-285450000D03*
X187850000Y-289400000D03*
X289500000Y-303100000D03*
X258240000Y-298590000D03*
X103400000Y-281050000D03*
X271250000Y-283140000D03*
X141200000Y-289400000D03*
X224800000Y-150595000D03*
X268050000Y-240325000D03*
D30*
X267600000Y-143900000D03*
D29*
X145700000Y-159000000D03*
X275800000Y-321200000D03*
X260550000Y-240825000D03*
D30*
X294725000Y-148100000D03*
D29*
X266200000Y-198600000D03*
X260200000Y-283690000D03*
D30*
X298725000Y-142100000D03*
D29*
X193065000Y-150895000D03*
X228000000Y-281000000D03*
X240800000Y-280950000D03*
X261590000Y-296100000D03*
X140620000Y-150855000D03*
X129200000Y-285100000D03*
D30*
X292725000Y-148100000D03*
D29*
X98600000Y-154400000D03*
D30*
X299100000Y-190225000D03*
D29*
X260300000Y-253250000D03*
X183850000Y-285200000D03*
D30*
X296725000Y-140100000D03*
D29*
X90300000Y-154550000D03*
D30*
X298725000Y-140100000D03*
D29*
X282600000Y-151800000D03*
X236808205Y-154508205D03*
X134000000Y-285250000D03*
X283600000Y-156800000D03*
X283875000Y-153675000D03*
X242100000Y-154445000D03*
X194990000Y-154395000D03*
X259600000Y-297300000D03*
X256600000Y-283840000D03*
X104200000Y-281050000D03*
X146000000Y-155675000D03*
X290175000Y-281975000D03*
X137540000Y-151165000D03*
X240300000Y-154500000D03*
X89800000Y-289350000D03*
X258300000Y-242650000D03*
X268050000Y-252000000D03*
D30*
X294725000Y-146100000D03*
D29*
X147600000Y-289400000D03*
X134800000Y-280900000D03*
X197090000Y-154445000D03*
X184960000Y-154985000D03*
X269590000Y-296590000D03*
X152100000Y-154475000D03*
X263300000Y-235700000D03*
X269550000Y-252700000D03*
X192650000Y-289450000D03*
X101000000Y-155700000D03*
X96200000Y-289500000D03*
D30*
X267975000Y-215825000D03*
D29*
X180650000Y-285200000D03*
X146500000Y-154400000D03*
X266700000Y-316200000D03*
X271340000Y-296540000D03*
D30*
X264600000Y-278990000D03*
X269475000Y-220350000D03*
D29*
X264200000Y-276940000D03*
X261780000Y-289400000D03*
D30*
X293100000Y-192225000D03*
D29*
X261900000Y-252400000D03*
X282300000Y-202100000D03*
D30*
X283825000Y-213800000D03*
X295100000Y-192225000D03*
X292775000Y-144100000D03*
D29*
X95350000Y-285350000D03*
X284900000Y-134400000D03*
X91780000Y-150760000D03*
X178250000Y-289250000D03*
X137200000Y-154675000D03*
X151225000Y-151050000D03*
D30*
X264590000Y-264885000D03*
D29*
X266700000Y-322800000D03*
X195050000Y-281000000D03*
X89800000Y-150650000D03*
X232800000Y-289400000D03*
X138800000Y-285150000D03*
X173450000Y-289250000D03*
X188590000Y-154345000D03*
D30*
X293100000Y-198225000D03*
D29*
X196215000Y-151020000D03*
X94600000Y-289450000D03*
X239300000Y-159000000D03*
X239200000Y-289400000D03*
X99770000Y-151150000D03*
X139970000Y-155015000D03*
X286500000Y-302900000D03*
X219200000Y-285150000D03*
X97800000Y-289450000D03*
D30*
X298725000Y-148100000D03*
X292725000Y-146100000D03*
D29*
X285400000Y-238500000D03*
X233600000Y-154345000D03*
X190400000Y-158900000D03*
X267100000Y-196200000D03*
X292500000Y-303110000D03*
X281000000Y-203200000D03*
X287000000Y-235200000D03*
X143600000Y-280900000D03*
X149200000Y-280950000D03*
X224000000Y-285300000D03*
X267950000Y-282240000D03*
X262060000Y-240325000D03*
X105000000Y-154450000D03*
X83400000Y-289300000D03*
X180290000Y-154495000D03*
X149200000Y-155575000D03*
D30*
X297100000Y-190225000D03*
D29*
X133200000Y-289200000D03*
X268000000Y-185900000D03*
X268000000Y-187500000D03*
X106600000Y-281000000D03*
D30*
X264140000Y-262835000D03*
D29*
X269500000Y-283190000D03*
X142000000Y-285250000D03*
X269000000Y-171700000D03*
X190990000Y-155645000D03*
D30*
X293100000Y-196225000D03*
X299100000Y-198225000D03*
D29*
X94970000Y-155040000D03*
D30*
X297100000Y-198225000D03*
D29*
X262780000Y-234680000D03*
X230350000Y-285300000D03*
D30*
X267200000Y-159500000D03*
D29*
X174250000Y-285150000D03*
X150000000Y-280950000D03*
X193450000Y-285100000D03*
X98550000Y-285450000D03*
X268040000Y-295640000D03*
D30*
X261690000Y-261885000D03*
D29*
X179050000Y-285300000D03*
X142800000Y-289350000D03*
X286700000Y-234600000D03*
D30*
X293150000Y-194225000D03*
X289825000Y-213800000D03*
D29*
X264300000Y-290340000D03*
X104200000Y-289450000D03*
X148400000Y-159100000D03*
D30*
X296725000Y-144100000D03*
X267700000Y-136800000D03*
D29*
X92540000Y-151190000D03*
X143600000Y-154375000D03*
X259800000Y-241200000D03*
D30*
X293100000Y-190225000D03*
D29*
X259500000Y-283900000D03*
X195850000Y-280950000D03*
D30*
X268200000Y-208900000D03*
D29*
X264500000Y-246450000D03*
X268800000Y-174000000D03*
X185610000Y-150825000D03*
X262050000Y-245200000D03*
X188650000Y-280950000D03*
X218400000Y-289250000D03*
X151600000Y-280900000D03*
D30*
X283725000Y-144025000D03*
D29*
X227200000Y-154645000D03*
X132400000Y-285550000D03*
X281900000Y-156100000D03*
X93000000Y-281050000D03*
X185400000Y-285300000D03*
X260290000Y-297090000D03*
X180200000Y-158900000D03*
X97000000Y-285350000D03*
D30*
X297100000Y-194225000D03*
D29*
X151700000Y-159100000D03*
D30*
X294725000Y-144100000D03*
D29*
X224800000Y-289300000D03*
X268600000Y-200000000D03*
X179850000Y-280950000D03*
D30*
X296725000Y-146100000D03*
D29*
X97000000Y-155700000D03*
X269550000Y-240950000D03*
X281000000Y-152600000D03*
D30*
X292725000Y-142100000D03*
D29*
X291500000Y-283300000D03*
X90200000Y-159000000D03*
X191903205Y-154403205D03*
X128400000Y-289200000D03*
X88200000Y-289300000D03*
X148400000Y-280950000D03*
X139600000Y-289350000D03*
X182190000Y-154645000D03*
X135300000Y-154525000D03*
X286650000Y-251250000D03*
X231200000Y-289450000D03*
X233600000Y-280950000D03*
X92200000Y-154700000D03*
X106600000Y-158800000D03*
X103400000Y-285150000D03*
X266100000Y-148600000D03*
X105800000Y-281000000D03*
X95620000Y-150880000D03*
X191800000Y-285400000D03*
X102600000Y-289500000D03*
X98600000Y-281000000D03*
X186250000Y-289450000D03*
X101500000Y-154425000D03*
D30*
X297100000Y-192225000D03*
D29*
X238400000Y-285100000D03*
X196600000Y-158900000D03*
X268000000Y-186700000D03*
X290000000Y-243000000D03*
X184650000Y-289400000D03*
X182530000Y-151135000D03*
X89000000Y-285350000D03*
X226780000Y-150705000D03*
X135600000Y-285150000D03*
D30*
X295100000Y-196225000D03*
X296725000Y-148100000D03*
D29*
X105000000Y-281050000D03*
X258250000Y-254750000D03*
X187400000Y-159000000D03*
X291000000Y-155000000D03*
X107100000Y-154500000D03*
X291500000Y-281975000D03*
X225600000Y-285200000D03*
X140350000Y-285250000D03*
D30*
X298725000Y-144100000D03*
D29*
X84200000Y-285200000D03*
X229600000Y-289400000D03*
X89800000Y-281000000D03*
X286500000Y-235900000D03*
X237600000Y-289450000D03*
D30*
X284225000Y-164600000D03*
D29*
X186990000Y-155645000D03*
X228800000Y-285200000D03*
X193450000Y-281000000D03*
X87400000Y-285650000D03*
X238400000Y-281000000D03*
X271290000Y-241080000D03*
D30*
X294725000Y-140100000D03*
D29*
X193400000Y-159000000D03*
D30*
X290225000Y-164600000D03*
D29*
X287000000Y-232500000D03*
X238075000Y-150895000D03*
D30*
X296725000Y-142100000D03*
D29*
X268400000Y-150300000D03*
X106225000Y-151075000D03*
X263800000Y-176600000D03*
D30*
X264730000Y-293340000D03*
D29*
X285200000Y-254400000D03*
D30*
X264630000Y-265835000D03*
D29*
X183050000Y-281000000D03*
X142000000Y-155675000D03*
D30*
X299100000Y-196225000D03*
X264640000Y-279940000D03*
D29*
X103400000Y-158900000D03*
X256900000Y-297300000D03*
D30*
X295100000Y-194225000D03*
D29*
X222400000Y-285600000D03*
X295500000Y-303150000D03*
X187050000Y-285300000D03*
X269150000Y-222345000D03*
X241225000Y-151020000D03*
X240000000Y-281000000D03*
X234770000Y-151095000D03*
X264162500Y-225412500D03*
X103075000Y-150950000D03*
X189760000Y-151095000D03*
X150000000Y-154425000D03*
X268100000Y-147500000D03*
X179790000Y-150595000D03*
D30*
X292725000Y-140100000D03*
D29*
X256800000Y-241200000D03*
X100700000Y-159000000D03*
X275900000Y-319400000D03*
X135200000Y-159100000D03*
X284100000Y-184500000D03*
D30*
X294725000Y-142100000D03*
D29*
X134800000Y-289250000D03*
X227540000Y-151135000D03*
X236000000Y-155645000D03*
X144770000Y-151125000D03*
X104200000Y-155600000D03*
X232000000Y-155645000D03*
X134800000Y-150625000D03*
D30*
X295100000Y-190225000D03*
D29*
X223200000Y-289250000D03*
X282100000Y-183500000D03*
X93800000Y-285250000D03*
D30*
X299100000Y-192225000D03*
D29*
X148075000Y-150925000D03*
X177450000Y-285600000D03*
D30*
X299100000Y-194225000D03*
D29*
X271300000Y-252600000D03*
X261500000Y-282740000D03*
X286200000Y-239500000D03*
X261690000Y-276000000D03*
X232000000Y-285300000D03*
X196650000Y-280950000D03*
X286450000Y-245770950D03*
X236750000Y-285400000D03*
X283625000Y-204075000D03*
D30*
X267200000Y-166500000D03*
D29*
X266800000Y-235700000D03*
X241600000Y-280950000D03*
X181770000Y-150705000D03*
D30*
X298725000Y-146100000D03*
X295100000Y-198225000D03*
D29*
X179850000Y-289300000D03*
X229970000Y-154985000D03*
D30*
X297100000Y-196225000D03*
D29*
%TO.N,-15V*%
X97800000Y-150900000D03*
X187790000Y-150845000D03*
X142420000Y-154365000D03*
X187410000Y-154335000D03*
D30*
X272225000Y-219700000D03*
D29*
X232800000Y-150845000D03*
D30*
X272225000Y-221600000D03*
X272225000Y-225100000D03*
D29*
X97420000Y-154390000D03*
X272550000Y-236450000D03*
D30*
X272225000Y-223400000D03*
D29*
X142800000Y-150875000D03*
X232420000Y-154335000D03*
D30*
%TO.N,+15V*%
X272125000Y-199300000D03*
X272125000Y-202800000D03*
D29*
X184390000Y-154315000D03*
D30*
X272125000Y-201100000D03*
D29*
X94400000Y-154370000D03*
X184590000Y-150795000D03*
X229600000Y-150795000D03*
X229400000Y-154315000D03*
X139600000Y-150825000D03*
X272200000Y-248200000D03*
X139400000Y-154345000D03*
X271150200Y-247300000D03*
X272200000Y-249900000D03*
D30*
X272125000Y-197400000D03*
D29*
X94600000Y-150850000D03*
%TO.N,+5.3V*%
X257550000Y-246000000D03*
X235200000Y-154500000D03*
X101000000Y-150950000D03*
X282700000Y-238500000D03*
X145590000Y-154415000D03*
X258300000Y-246000000D03*
X259200000Y-246000000D03*
X236000000Y-154500000D03*
X100590000Y-154440000D03*
X190990000Y-150895000D03*
X190580000Y-154385000D03*
X146000000Y-150925000D03*
%TO.N,-5.3V*%
X239300000Y-154600000D03*
X259200000Y-233400000D03*
X148925000Y-150950000D03*
X257550000Y-233400000D03*
X103925000Y-150975000D03*
X103725000Y-154425000D03*
X258400000Y-233400000D03*
X148725000Y-154400000D03*
X238550000Y-154591981D03*
X193915000Y-150920000D03*
X193715000Y-154370000D03*
%TO.N,+5.0V*%
X272300000Y-280300000D03*
X288650000Y-298200000D03*
X99450000Y-289550000D03*
X189500000Y-289500000D03*
X100200000Y-285350000D03*
X287400000Y-298200000D03*
X271100000Y-263500000D03*
X289500000Y-298200000D03*
X236050000Y-289450000D03*
X292500000Y-298200000D03*
X234450000Y-289500000D03*
X272400000Y-264500000D03*
X296350000Y-298200000D03*
X101050000Y-289500000D03*
X291650000Y-298200000D03*
X144450000Y-289450000D03*
X145200000Y-285250000D03*
X295500000Y-298200000D03*
X294650000Y-298200000D03*
X271100000Y-277600000D03*
X293350000Y-298200000D03*
X285700000Y-298200000D03*
X272400000Y-278600000D03*
X290350000Y-298200000D03*
X286550000Y-298200000D03*
X235200000Y-285300000D03*
X146050000Y-289400000D03*
X190250000Y-285300000D03*
X191100000Y-289450000D03*
%TO.N,+3.3V*%
X285600000Y-257700000D03*
X268450000Y-317050000D03*
X138000000Y-289400000D03*
X285215600Y-249451330D03*
X285215600Y-241451330D03*
X227150000Y-285300000D03*
X137150000Y-285250000D03*
X226400000Y-289250000D03*
X288300000Y-242100000D03*
X181450000Y-289250000D03*
X182200000Y-285300000D03*
D30*
X259040000Y-262085000D03*
X258190000Y-262085000D03*
D29*
X93000000Y-289500000D03*
X183050000Y-289450000D03*
X136400000Y-289200000D03*
X92150000Y-285350000D03*
X285200000Y-233500000D03*
X91400000Y-289300000D03*
X228000000Y-289450000D03*
X285600000Y-256300000D03*
D30*
X257390000Y-262085000D03*
D29*
X290000000Y-251900000D03*
%TO.N,+1.8V*%
X258300000Y-289590000D03*
X131602000Y-288750000D03*
X175850000Y-285150000D03*
X220000000Y-289250000D03*
X85800000Y-285200000D03*
X86602000Y-288850000D03*
X85000000Y-289300000D03*
X130800000Y-285100000D03*
X130000000Y-289200000D03*
X220800000Y-285150000D03*
X176652000Y-288800000D03*
X257490000Y-289590000D03*
X259140000Y-289590000D03*
X221602000Y-288800000D03*
X175050000Y-289250000D03*
%TO.N,+18V*%
X280400000Y-187800000D03*
X284100000Y-187700000D03*
D30*
X287175000Y-136450000D03*
D29*
X286000000Y-181300000D03*
X279200000Y-188200000D03*
X293990000Y-241910000D03*
D30*
X282625000Y-137250000D03*
D29*
X294000000Y-247000000D03*
X278100000Y-242000000D03*
D30*
X287175000Y-138200000D03*
X284875000Y-137250000D03*
D29*
X280400000Y-186700000D03*
X282200000Y-187700000D03*
X283100000Y-190600000D03*
D30*
X283850000Y-142325000D03*
D29*
X283100000Y-191700000D03*
D30*
X279225000Y-136800000D03*
D29*
X283100000Y-192800000D03*
D30*
X283750000Y-140625000D03*
D29*
%TO.N,-18V*%
X279400000Y-210800000D03*
D30*
X299225000Y-164300000D03*
D29*
X283700000Y-160800000D03*
X279400000Y-209800000D03*
D30*
X293050000Y-211550000D03*
D29*
X279400000Y-208900000D03*
D30*
X293050000Y-217550000D03*
D29*
X289900000Y-245800000D03*
D30*
X297050000Y-213550000D03*
X293225000Y-162300000D03*
X297050000Y-217550000D03*
X295225000Y-170300000D03*
X295050000Y-217550000D03*
X295225000Y-164300000D03*
X297050000Y-211550000D03*
X295225000Y-162300000D03*
X293225000Y-164300000D03*
D29*
X282400000Y-214400000D03*
X282400000Y-166200000D03*
D30*
X297225000Y-170300000D03*
X295050000Y-219550000D03*
X295050000Y-211550000D03*
X299050000Y-211550000D03*
X293225000Y-166300000D03*
X297225000Y-164300000D03*
D29*
X283400000Y-215500000D03*
D30*
X299050000Y-213550000D03*
X295050000Y-215550000D03*
D29*
X283500000Y-166200000D03*
D30*
X297050000Y-215550000D03*
X299050000Y-215550000D03*
D29*
X279000000Y-160600000D03*
D30*
X295225000Y-166300000D03*
X297225000Y-162300000D03*
D29*
X282400000Y-215500000D03*
D30*
X293050000Y-215550000D03*
X299225000Y-162300000D03*
X297225000Y-168300000D03*
X299050000Y-219550000D03*
X299225000Y-168300000D03*
D29*
X283700000Y-159900000D03*
D30*
X299050000Y-217550000D03*
X299225000Y-166300000D03*
X293050000Y-219550000D03*
D29*
X282000000Y-160400000D03*
D30*
X293225000Y-168300000D03*
X297225000Y-166300000D03*
X295050000Y-213550000D03*
X297050000Y-219550000D03*
X293050000Y-213550000D03*
D29*
X279000000Y-159500000D03*
D30*
X295225000Y-168300000D03*
X299225000Y-170300000D03*
X293225000Y-170300000D03*
%TO.N,/regulators/+15v -15v DCCT Regulators/-15V_DCCT_REG*%
X278325000Y-175600000D03*
D29*
X266300000Y-174700000D03*
X270400000Y-178100000D03*
X265750000Y-170825000D03*
D30*
X262400000Y-175000000D03*
%TO.N,/regulators/+15v -15v DCCT Regulators/+15V_DCCT_REG*%
X278425000Y-152700000D03*
D29*
X268400000Y-153000000D03*
%TO.N,+5.0V*%
X268100000Y-175800000D03*
X269100000Y-224725000D03*
%TO.N,/regulators/+15v -15v PSC Regulators/-15V_PSC_REG*%
X266200000Y-221050000D03*
D30*
X262600000Y-223700000D03*
X278500000Y-224775000D03*
D29*
X266387500Y-223462500D03*
D30*
%TO.N,/regulators/+15v -15v PSC Regulators/+15V_PSC_REG*%
X278725000Y-202200000D03*
D29*
X268600000Y-202400000D03*
%TO.N,+2.5V*%
X257400000Y-276190000D03*
X104950000Y-285250000D03*
X105800000Y-289350000D03*
X151600000Y-285350000D03*
X240800000Y-289300000D03*
X241600000Y-285400000D03*
X195000000Y-285200000D03*
X196650000Y-285400000D03*
X258200000Y-276200000D03*
X195850000Y-289300000D03*
X150800000Y-289250000D03*
X239950000Y-285200000D03*
X259050000Y-276190000D03*
X149950000Y-285150000D03*
X106600000Y-285450000D03*
D30*
%TO.N,-15V_DCCT*%
X271925000Y-172500000D03*
X271925000Y-174300000D03*
X271925000Y-170600000D03*
X271925000Y-176000000D03*
D29*
X279400000Y-181300000D03*
D30*
%TO.N,+15V_DCCT*%
X272225000Y-149700000D03*
X272225000Y-147800000D03*
D29*
X286100000Y-155000000D03*
D30*
X272225000Y-151500000D03*
X272225000Y-153200000D03*
D29*
%TO.N,/regulators/+15v -15v DCCT Regulators/isense_-15v*%
X260200000Y-173500000D03*
X278700000Y-234700000D03*
%TO.N,/regulators/+15v -15v DCCT Regulators/isense_+15v*%
X279300000Y-234200000D03*
X268200000Y-148400000D03*
%TO.N,/regulators/+15v -15v PSC Regulators/isense_-15v*%
X282400000Y-233000000D03*
X268600000Y-221300000D03*
%TO.N,/regulators/+15v -15v PSC Regulators/isense_+15v*%
X280900000Y-232500000D03*
X268400000Y-197900000D03*
%TO.N,/regulators/i2c_scl*%
X270700000Y-301500000D03*
X288700000Y-244900000D03*
X288400000Y-236700000D03*
X288700000Y-252700000D03*
%TO.N,/regulators/i2c_sda*%
X289600000Y-253800000D03*
X287800000Y-237400000D03*
X287900000Y-253400000D03*
X287900000Y-245300000D03*
X271400000Y-302200000D03*
%TO.N,/regulators/+5VA regulator/+5.3Vout*%
X283400000Y-239300000D03*
X260300000Y-248500000D03*
%TO.N,/regulators/+5VA regulator/-5.3Vout*%
X278600000Y-237300000D03*
X259100000Y-237000000D03*
%TO.N,/Ch2 Daughterboard/mon.sdo*%
X146725000Y-306525000D03*
X142000000Y-280650000D03*
X229500000Y-306350000D03*
%TO.N,/Ch2 Daughterboard/mon.reset*%
X138800000Y-279700000D03*
X230200000Y-305325000D03*
X142625000Y-305475000D03*
%TO.N,/Ch2 Daughterboard/mon.sclk*%
X142800000Y-279675000D03*
X145150000Y-303850000D03*
X226800000Y-303875000D03*
%TO.N,/Ch2 Daughterboard/mon.busy*%
X227200000Y-305700000D03*
X144200000Y-305800000D03*
X140400000Y-280550000D03*
%TO.N,/Ch1 Daughterboard/mon.sdo*%
X96625000Y-300900000D03*
X222450000Y-301000000D03*
X97000000Y-280750000D03*
%TO.N,/Ch2 Daughterboard/mon.cnvrt*%
X139600000Y-279700000D03*
X142100000Y-304575000D03*
X230525000Y-304325000D03*
%TO.N,/Ch1 Daughterboard/mon.fs*%
X223225000Y-301850000D03*
X96025000Y-301425000D03*
X96200000Y-279800000D03*
%TO.N,/Ch1 Daughterboard/mon.cnvrt*%
X224950000Y-302575000D03*
X94500000Y-302450000D03*
X94600000Y-279800000D03*
%TO.N,/Ch2 Daughterboard/mon.fs*%
X227975000Y-306375000D03*
X145525000Y-306200000D03*
X141200000Y-279700000D03*
%TO.N,/Ch1 Daughterboard/mon.sclk*%
X97800000Y-279775000D03*
X221625000Y-300474000D03*
X97224000Y-300474000D03*
%TO.N,/Ch1 Daughterboard/mon.reset*%
X225575000Y-303305285D03*
X94000000Y-303025000D03*
X93800000Y-279800000D03*
%TO.N,/Ch1 Daughterboard/mon.busy*%
X95400000Y-280650000D03*
X221650000Y-302301000D03*
X95500000Y-302000000D03*
%TO.N,/Ch2 Daughterboard/dac.sclk*%
X162725000Y-311775000D03*
X135600000Y-279675000D03*
%TO.N,/Ch1 Daughterboard/digio.out1*%
X95575000Y-319200000D03*
X84200000Y-279800000D03*
%TO.N,/Ch2 Daughterboard/dcct.busy*%
X165975000Y-310050000D03*
X145200000Y-280600000D03*
%TO.N,/Ch2 Daughterboard/dcct.sck*%
X146000000Y-279700000D03*
X161450000Y-307663252D03*
%TO.N,/Ch2 Daughterboard/digio.in3*%
X134000000Y-279725000D03*
X155848832Y-309356690D03*
%TO.N,/Ch1 Daughterboard/dac.syncn*%
X103550000Y-314075000D03*
X92200000Y-279800000D03*
%TO.N,/Ch1 Daughterboard/dac.sdin*%
X106150000Y-317750000D03*
X91400000Y-280650000D03*
%TO.N,/Ch1 Daughterboard/digio.in0*%
X86600000Y-280900000D03*
%TO.N,/Ch2 Daughterboard/digio.in2*%
X133200000Y-280700000D03*
X155150000Y-309530000D03*
%TO.N,/Ch1 Daughterboard/dcct.sdo0*%
X101800000Y-280700000D03*
%TO.N,/Ch2 Daughterboard/digio.out1*%
X129200000Y-279700000D03*
X161075000Y-312075000D03*
%TO.N,/Ch1 Daughterboard/dcct.busy*%
X100200000Y-280700000D03*
X117675000Y-318525000D03*
%TO.N,/Ch2 Daughterboard/digio.in1*%
X132400000Y-279725000D03*
X159050000Y-310450000D03*
%TO.N,/Ch1 Daughterboard/dcct.sck*%
X101000000Y-279800000D03*
%TO.N,/Ch1 Daughterboard/dcct.cnv*%
X114750000Y-317588000D03*
X99400000Y-279800000D03*
%TO.N,/Ch1 Daughterboard/digio.in1*%
X100725000Y-319600000D03*
X87400000Y-279825000D03*
%TO.N,/Ch1 Daughterboard/digio.out2*%
X94600000Y-316025000D03*
X85000000Y-280800000D03*
%TO.N,/Ch1 Daughterboard/digio.in3*%
X89000000Y-279825000D03*
X100500000Y-315284000D03*
%TO.N,/Ch2 Daughterboard/dcct.sdo0*%
X146800000Y-280600000D03*
X165950000Y-309250000D03*
%TO.N,/Ch2 Daughterboard/dcct.cnv*%
X144400000Y-279700000D03*
X165425000Y-310700000D03*
%TO.N,/Ch2 Daughterboard/dac.syncn*%
X158662500Y-308537500D03*
X137200000Y-279700000D03*
%TO.N,/Ch1 Daughterboard/digio.out3*%
X93150000Y-314588000D03*
X85800000Y-279825000D03*
%TO.N,/Ch1 Daughterboard/dac.sclk*%
X106500000Y-319895000D03*
X90600000Y-279775000D03*
%TO.N,/Ch2 Daughterboard/digio.out3*%
X130800000Y-279725000D03*
X159525000Y-311575000D03*
%TO.N,/Ch1 Daughterboard/dcct.sdo1*%
X102600000Y-279800000D03*
%TO.N,/Ch2 Daughterboard/dcct.sdo1*%
X164825000Y-311550000D03*
X147600000Y-279700000D03*
%TO.N,/Ch2 Daughterboard/digio.out0*%
X160605000Y-312650000D03*
X128400000Y-280700000D03*
%TO.N,/Ch1 Daughterboard/digio.in2*%
X88200000Y-280800000D03*
X100250000Y-316784000D03*
%TO.N,/Ch2 Daughterboard/digio.out2*%
X130000000Y-280700000D03*
X157475000Y-311525000D03*
%TO.N,/Ch2 Daughterboard/digio.in0*%
X157950000Y-310534000D03*
X131600000Y-280800000D03*
%TO.N,/Ch1 Daughterboard/digio.out0*%
X95875000Y-320675000D03*
X83400000Y-280800000D03*
%TO.N,/Ch2 Daughterboard/dac.sdin*%
X161825000Y-309400000D03*
X136400000Y-280550000D03*
%TO.N,/Ch2 Daughterboard/digin.rtn*%
X127857598Y-91072794D03*
%TO.N,/Ch2 Daughterboard/ps.vout+*%
X141200000Y-158875000D03*
X145125000Y-91950000D03*
%TO.N,/Ch2 Daughterboard/digin.spare*%
X125575000Y-89775000D03*
X131600000Y-159075000D03*
%TO.N,/Ch2 Daughterboard/ps.vout-*%
X144225000Y-92650000D03*
X140425000Y-158875000D03*
%TO.N,/Ch2 Daughterboard/digout.on2*%
X130000000Y-159275000D03*
X124375000Y-134800000D03*
%TO.N,/Ch2 Daughterboard/digin.acon*%
X134000000Y-158875000D03*
%TO.N,/Ch2 Daughterboard/digin.flt1*%
X133200000Y-158975000D03*
%TO.N,/Ch2 Burden Resistor/Vout0.dcct-*%
X147600000Y-155725000D03*
%TO.N,/Ch2 Daughterboard/reg.out-*%
X143625000Y-158925000D03*
X143000000Y-144600000D03*
X147025000Y-92150000D03*
%TO.N,/Ch2 Daughterboard/ps.ignd-*%
X138350000Y-155550000D03*
%TO.N,/Ch2 Daughterboard/digout.reset*%
X129200000Y-159475000D03*
X123500000Y-133025000D03*
%TO.N,/Ch2 Burden Resistor/Vout1.dcct+*%
X150000000Y-155600000D03*
%TO.N,/Ch2 Daughterboard/ps.spare+*%
X136400000Y-158875000D03*
X135400000Y-149600000D03*
%TO.N,/Ch2 Burden Resistor/Vout1.dcct-*%
X150800000Y-155650000D03*
%TO.N,/Ch2 Daughterboard/digin.flt2*%
X126275000Y-89300000D03*
X132400000Y-159375000D03*
%TO.N,/Ch2 Daughterboard/digout.on1*%
X125972000Y-135167696D03*
X130800000Y-159475000D03*
%TO.N,/Ch2 Daughterboard/ps.spare-*%
X136025000Y-155300000D03*
X136350000Y-149750000D03*
%TO.N,/Ch2 Burden Resistor/Vout0.dcct+*%
X146800000Y-155675000D03*
%TO.N,/Ch2 Daughterboard/reg.out+*%
X143725000Y-143850000D03*
X144425000Y-158925000D03*
X147875000Y-92175000D03*
%TO.N,/Ch2 Daughterboard/digout.spare*%
X122675000Y-133275000D03*
X128400000Y-159375000D03*
%TO.N,/Ch2 Daughterboard/ps.ignd+*%
X138800000Y-159125000D03*
%TO.N,/Ch1 Daughterboard/digin.flt2*%
X87400000Y-159400000D03*
X81275000Y-89325000D03*
%TO.N,/Ch1 Daughterboard/digin.acon*%
X89000000Y-158900000D03*
%TO.N,/Ch1 Daughterboard/ps.spare-*%
X91025000Y-155325000D03*
X91350000Y-149775000D03*
%TO.N,/Ch1 Daughterboard/ps.vout+*%
X96200000Y-158900000D03*
X100125000Y-91975000D03*
%TO.N,/Ch1 Daughterboard/digout.on2*%
X85000000Y-159300000D03*
X79375000Y-134825000D03*
%TO.N,/Ch1 Daughterboard/digin.rtn*%
X82895196Y-91065196D03*
%TO.N,/Ch1 Daughterboard/digout.spare*%
X83400000Y-159400000D03*
X77675000Y-133300000D03*
%TO.N,/Ch1 Daughterboard/reg.out-*%
X102025000Y-92175000D03*
X98625000Y-158950000D03*
X98000000Y-144625000D03*
%TO.N,/Ch1 Daughterboard/digout.reset*%
X84200000Y-159500000D03*
X78500000Y-133050000D03*
%TO.N,/Ch1 Daughterboard/ps.spare+*%
X90400000Y-149625000D03*
X91400000Y-158900000D03*
%TO.N,/Ch1 Daughterboard/digout.on1*%
X85800000Y-159500000D03*
X80972000Y-135192696D03*
%TO.N,/Ch1 Daughterboard/ps.vout-*%
X99225000Y-92675000D03*
X95425000Y-158900000D03*
%TO.N,/Ch1 Daughterboard/digin.flt1*%
X88200000Y-159000000D03*
%TO.N,/Ch1 Daughterboard/ps.ignd-*%
X93350000Y-155575000D03*
%TO.N,/Ch1 Daughterboard/digin.spare*%
X86600000Y-159100000D03*
X80575000Y-89800000D03*
%TO.N,/Ch1 Daughterboard/reg.out+*%
X99425000Y-158950000D03*
X102875000Y-92200000D03*
X98725000Y-143875000D03*
%TO.N,/Ch1 Daughterboard/ps.ignd+*%
X93800000Y-159150000D03*
%TO.N,/Ch1 Burden Resistor/Vout0.dcct+*%
X101800000Y-155700000D03*
%TO.N,/Ch1 Burden Resistor/Vout1.dcct-*%
X105800000Y-155675000D03*
%TO.N,/Ch1 Burden Resistor/Vout1.dcct+*%
X105000000Y-155625000D03*
%TO.N,/Ch1 Burden Resistor/Vout0.dcct-*%
X102600000Y-155750000D03*
%TO.N,/Ch1 Burden Resistor/Iin0.dcct+*%
X284400000Y-97250000D03*
%TO.N,/Ch1 Burden Resistor/Iin0.dcct-*%
X286300000Y-97800000D03*
%TO.N,/Ch2 Burden Resistor/Iin0.dcct-*%
X280500000Y-102600000D03*
%TO.N,/Ch2 Burden Resistor/Iin0.dcct+*%
X278300000Y-102700000D03*
%TO.N,/DCCT Fault Logic/dcct_flt_buf.78*%
X276300000Y-322025001D03*
%TO.N,/DCCT Fault Logic/dcct_flt_buf.56*%
X266500000Y-321400000D03*
%TO.N,/DCCT Fault Logic/dcct_flt_buf.34*%
X266500000Y-320100000D03*
%TO.N,/DCCT Fault Logic/dcct_flt_buf.12*%
X266700000Y-318800000D03*
%TO.N,/DCCT Fault Logic/dcct_flt.78*%
X258300000Y-322000000D03*
%TO.N,/DCCT Fault Logic/dcct_flt.34*%
X258300000Y-319300000D03*
%TO.N,Net-(U13-V2)*%
X278055390Y-243720000D03*
X277000000Y-244600000D03*
%TO.N,/Ch3 Daughterboard/dcct.busy*%
X188800000Y-312550000D03*
X190250000Y-280650000D03*
%TO.N,/Ch4 Daughterboard/digio.in0*%
X221600000Y-280850000D03*
%TO.N,/Ch4 Daughterboard/digio.in1*%
X222400000Y-279775000D03*
%TO.N,/Ch4 Daughterboard/dac.sdin*%
X216550000Y-312200000D03*
X226400000Y-280600000D03*
%TO.N,/Ch3 Daughterboard/digio.out1*%
X174250000Y-279750000D03*
%TO.N,/Ch3 Daughterboard/digio.out0*%
X173450000Y-280750000D03*
%TO.N,/Ch3 Daughterboard/dcct.sdo1*%
X192650000Y-279750000D03*
%TO.N,/Ch4 Daughterboard/dac.sclk*%
X225600000Y-279725000D03*
%TO.N,/Ch3 Daughterboard/digio.in2*%
X179250000Y-316700000D03*
X178850000Y-296250000D03*
X178250000Y-280750000D03*
%TO.N,/Ch4 Daughterboard/dcct.busy*%
X235200000Y-280650000D03*
X234725000Y-298225000D03*
%TO.N,/Ch3 Daughterboard/digio.in0*%
X176650000Y-280850000D03*
X177250000Y-296350000D03*
%TO.N,/Ch3 Daughterboard/digio.in1*%
X178050000Y-296350000D03*
X177450000Y-279775000D03*
X178825000Y-319625000D03*
%TO.N,/Ch3 Daughterboard/digio.out3*%
X175850000Y-279775000D03*
%TO.N,/Ch3 Daughterboard/dcct.sck*%
X191050000Y-279750000D03*
X189800000Y-313550000D03*
%TO.N,/Ch3 Daughterboard/dac.sdin*%
X181450000Y-280600000D03*
X181625000Y-295925000D03*
%TO.N,/Ch3 Daughterboard/digio.out2*%
X175050000Y-280750000D03*
%TO.N,/Ch4 Daughterboard/digio.in2*%
X223200000Y-280750000D03*
%TO.N,/Ch4 Daughterboard/digio.out3*%
X220800000Y-279775000D03*
%TO.N,/Ch4 Daughterboard/digio.out1*%
X213180000Y-311549982D03*
X219200000Y-279750000D03*
%TO.N,/Ch4 Daughterboard/digio.out2*%
X220000000Y-280750000D03*
X211875000Y-312325000D03*
%TO.N,/Ch3 Daughterboard/dcct.sdo0*%
X191850000Y-280650000D03*
%TO.N,/Ch4 Daughterboard/dcct.sdo0*%
X237075000Y-293025000D03*
X236800000Y-280650000D03*
%TO.N,/Ch3 Daughterboard/digio.in3*%
X179050000Y-279775000D03*
X179450000Y-315200000D03*
X179750000Y-295400000D03*
%TO.N,/Ch4 Daughterboard/digio.in3*%
X224000000Y-279775000D03*
%TO.N,/Ch4 Daughterboard/dcct.cnv*%
X234400000Y-279750000D03*
X233925000Y-300775000D03*
%TO.N,/Ch3 Daughterboard/dac.sclk*%
X180650000Y-296000000D03*
X180650000Y-279725000D03*
%TO.N,/Ch4 Daughterboard/dac.syncn*%
X227200000Y-279750000D03*
X214500000Y-312250000D03*
X221325000Y-297800000D03*
X227550000Y-297150000D03*
%TO.N,/Ch4 Daughterboard/dcct.sck*%
X235600000Y-295975000D03*
X236000000Y-279750000D03*
%TO.N,/Ch3 Daughterboard/dac.syncn*%
X182825000Y-317500000D03*
X182450000Y-296450000D03*
X182250000Y-279750000D03*
%TO.N,/Ch4 Daughterboard/dcct.sdo1*%
X237600000Y-279750000D03*
X238237500Y-290737500D03*
%TO.N,/Ch3 Daughterboard/dcct.cnv*%
X189450000Y-279750000D03*
X187925000Y-313200000D03*
%TO.N,/Ch4 Daughterboard/digio.out0*%
X212900000Y-310625000D03*
X218400000Y-280750000D03*
%TO.N,/Ch4 Daughterboard/mon.fs*%
X231200000Y-279750000D03*
%TO.N,/Ch3 Daughterboard/mon.sdo*%
X187050000Y-280700000D03*
X186675000Y-310275000D03*
%TO.N,/Ch4 Daughterboard/mon.reset*%
X229675000Y-302925000D03*
X228800000Y-279750000D03*
%TO.N,/Ch4 Daughterboard/mon.sclk*%
X232800000Y-279725000D03*
%TO.N,/Ch3 Daughterboard/mon.reset*%
X183700000Y-307825000D03*
X183850000Y-279750000D03*
%TO.N,/Ch3 Daughterboard/mon.sclk*%
X187850000Y-279725000D03*
X187274000Y-311000000D03*
%TO.N,/Ch3 Daughterboard/mon.busy*%
X185300000Y-308975000D03*
X185450000Y-280600000D03*
%TO.N,/Ch3 Daughterboard/mon.cnvrt*%
X184450000Y-308325000D03*
X184650000Y-279750000D03*
%TO.N,/Ch4 Daughterboard/mon.sdo*%
X232000000Y-280700000D03*
%TO.N,/Ch3 Daughterboard/mon.fs*%
X186075000Y-309550000D03*
X186250000Y-279750000D03*
%TO.N,/Ch4 Daughterboard/mon.cnvrt*%
X229600000Y-279750000D03*
X230300000Y-302525000D03*
%TO.N,/Ch4 Daughterboard/mon.busy*%
X230400000Y-280600000D03*
%TO.N,/DCCT Fault Logic/dcct_flt.12*%
X253500000Y-317900000D03*
%TO.N,/Ch3 Burden Resistor/Iin0.dcct-*%
X267300000Y-107700000D03*
%TO.N,/DCCT Fault Logic/dcct_flt.56*%
X252600000Y-320600000D03*
%TO.N,/Ch4 Burden Resistor/Iin1.dcct-*%
X262300000Y-113400000D03*
%TO.N,/Ch3 Burden Resistor/Iin0.dcct+*%
X264600000Y-107500000D03*
%TO.N,/Ch4 Burden Resistor/Iin0.dcct+*%
X274600000Y-115000000D03*
%TO.N,/Ch4 Burden Resistor/Iin1.dcct+*%
X260100000Y-113400000D03*
%TO.N,/Ch4 Burden Resistor/Iin0.dcct-*%
X276700000Y-115200000D03*
%TO.N,/Ch3 Burden Resistor/Iin1.dcct-*%
X272800000Y-107800000D03*
%TO.N,/Ch3 Burden Resistor/Iin1.dcct+*%
X271000000Y-107900000D03*
%TO.N,/Ch3 Burden Resistor/Vout0.dcct-*%
X192590000Y-155695000D03*
%TO.N,/Ch3 Daughterboard/digout.on1*%
X170962000Y-135137696D03*
X175790000Y-159445000D03*
%TO.N,/Ch3 Daughterboard/digin.flt1*%
X178190000Y-158945000D03*
%TO.N,/Ch3 Daughterboard/digin.rtn*%
X172937598Y-91042794D03*
%TO.N,/Ch3 Daughterboard/digout.on2*%
X169365000Y-134770000D03*
X174990000Y-159245000D03*
%TO.N,/Ch3 Daughterboard/ps.ignd+*%
X183790000Y-159095000D03*
%TO.N,/Ch3 Daughterboard/ps.spare-*%
X181340000Y-149720000D03*
X181015000Y-155270000D03*
%TO.N,/Ch3 Daughterboard/digout.reset*%
X174190000Y-159445000D03*
X168490000Y-132995000D03*
%TO.N,/Ch3 Daughterboard/digin.spare*%
X176590000Y-159045000D03*
X170565000Y-89745000D03*
%TO.N,/Ch3 Burden Resistor/Vout1.dcct-*%
X195790000Y-155620000D03*
%TO.N,/Ch3 Daughterboard/ps.vout+*%
X190115000Y-91920000D03*
X186190000Y-158845000D03*
%TO.N,/Ch3 Daughterboard/reg.out-*%
X188615000Y-158895000D03*
X187990000Y-144570000D03*
X192015000Y-92120000D03*
%TO.N,/Ch3 Daughterboard/digin.acon*%
X178990000Y-158845000D03*
%TO.N,/Ch3 Daughterboard/ps.vout-*%
X185415000Y-158845000D03*
X189215000Y-92620000D03*
%TO.N,/Ch3 Daughterboard/digout.spare*%
X173390000Y-159345000D03*
X167665000Y-133245000D03*
%TO.N,/Ch3 Daughterboard/digin.flt2*%
X177390000Y-159345000D03*
X171265000Y-89270000D03*
%TO.N,/Ch3 Daughterboard/reg.out+*%
X192865000Y-92145000D03*
X189415000Y-158895000D03*
X188715000Y-143820000D03*
%TO.N,/Ch3 Burden Resistor/Vout1.dcct+*%
X194990000Y-155570000D03*
%TO.N,/Ch3 Burden Resistor/Vout0.dcct+*%
X191790000Y-155645000D03*
%TO.N,/Ch3 Daughterboard/ps.ignd-*%
X183340000Y-155520000D03*
%TO.N,/Ch3 Daughterboard/ps.spare+*%
X181390000Y-158845000D03*
X180390000Y-149570000D03*
%TO.N,Net-(U13-V3)*%
X279500000Y-243700000D03*
X288200000Y-158200000D03*
%TO.N,Net-(U13-V6)*%
X279400000Y-245100000D03*
X283700000Y-182300000D03*
%TO.N,/Ch4 Daughterboard/digout.on2*%
X214375000Y-134770000D03*
X220000000Y-159245000D03*
%TO.N,/Ch4 Daughterboard/digin.flt1*%
X223200000Y-158945000D03*
%TO.N,/Ch4 Daughterboard/digin.rtn*%
X217937598Y-91052794D03*
%TO.N,/Ch4 Daughterboard/digin.acon*%
X224000000Y-158845000D03*
%TO.N,/Ch4 Daughterboard/digout.spare*%
X218400000Y-159345000D03*
X212675000Y-133245000D03*
%TO.N,/Ch4 Daughterboard/digin.spare*%
X215575000Y-89745000D03*
X221600000Y-159045000D03*
%TO.N,/Ch4 Burden Resistor/Vout1.dcct-*%
X240800000Y-155620000D03*
%TO.N,/Ch4 Daughterboard/ps.vout-*%
X234225000Y-92620000D03*
X230425000Y-158845000D03*
%TO.N,/Ch4 Burden Resistor/Vout0.dcct-*%
X237600000Y-155695000D03*
%TO.N,/Ch4 Daughterboard/digout.on1*%
X215972000Y-135137696D03*
X220800000Y-159445000D03*
%TO.N,/Ch4 Daughterboard/digout.reset*%
X213500000Y-132995000D03*
X219200000Y-159445000D03*
%TO.N,/Ch4 Daughterboard/ps.spare-*%
X226025000Y-155270000D03*
X226350000Y-149720000D03*
%TO.N,/Ch4 Daughterboard/ps.vout+*%
X231200000Y-158845000D03*
X235125000Y-91920000D03*
%TO.N,/Ch4 Daughterboard/ps.ignd-*%
X228350000Y-155520000D03*
%TO.N,/Ch4 Burden Resistor/Vout1.dcct+*%
X240000000Y-155570000D03*
%TO.N,/Ch4 Daughterboard/reg.out-*%
X237025000Y-92120000D03*
X233000000Y-144570000D03*
X233625000Y-158895000D03*
%TO.N,/Ch4 Daughterboard/ps.spare+*%
X225400000Y-149570000D03*
X226400000Y-158845000D03*
%TO.N,/Ch4 Daughterboard/reg.out+*%
X237875000Y-92145000D03*
X234425000Y-158895000D03*
X233725000Y-143820000D03*
%TO.N,/Ch4 Daughterboard/digin.flt2*%
X222400000Y-159345000D03*
X216275000Y-89270000D03*
%TO.N,/Ch4 Daughterboard/ps.ignd+*%
X228800000Y-159095000D03*
%TO.N,/Ch4 Burden Resistor/Vout0.dcct+*%
X236800000Y-155645000D03*
%TD*%
D31*
%TO.N,/Ch2 Daughterboard/digin.acon*%
X139365000Y-87435000D02*
X138287500Y-88512500D01*
X134000000Y-139300000D02*
X134000000Y-158875000D01*
X138287500Y-88512500D02*
X129487500Y-88512500D01*
X129487500Y-88512500D02*
X125625000Y-92375000D01*
X125625000Y-92375000D02*
X125625000Y-130925000D01*
X125625000Y-130925000D02*
X134000000Y-139300000D01*
%TO.N,/Ch2 Daughterboard/digin.flt1*%
X138095000Y-87435000D02*
X138095000Y-86620000D01*
X138095000Y-86620000D02*
X137525000Y-86050000D01*
X137525000Y-86050000D02*
X131150000Y-86050000D01*
X131150000Y-86050000D02*
X125075000Y-92125000D01*
X125075000Y-92125000D02*
X125075000Y-131275000D01*
X125075000Y-131275000D02*
X133341000Y-139541000D01*
X133341000Y-139541000D02*
X133341000Y-158134000D01*
X133200000Y-158275000D02*
X133200000Y-158975000D01*
X133341000Y-158134000D02*
X133200000Y-158275000D01*
D32*
%TO.N,/Ch2 Daughterboard/dcct.sck*%
X146000000Y-279700000D02*
X146000000Y-288635412D01*
X145550000Y-293150000D02*
X145550000Y-298433252D01*
X146000000Y-288635412D02*
X145474000Y-289161412D01*
X145474000Y-289161412D02*
X145474000Y-293074000D01*
X145474000Y-293074000D02*
X145550000Y-293150000D01*
X145550000Y-298433252D02*
X153599748Y-306483000D01*
X153599748Y-306483000D02*
X160208000Y-306483000D01*
X160208000Y-306483000D02*
X161388252Y-307663252D01*
X161388252Y-307663252D02*
X161450000Y-307663252D01*
%TO.N,/Ch3 Daughterboard/digio.out2*%
X175651000Y-287651000D02*
X175651000Y-290700000D01*
X175650000Y-295900000D02*
X175650000Y-290701000D01*
X175650000Y-290701000D02*
X175651000Y-290700000D01*
X175650000Y-297550000D02*
X175650000Y-295900000D01*
D31*
%TO.N,Net-(U13-V6)*%
X278800000Y-240900000D02*
X278800000Y-244500000D01*
X283000000Y-227100000D02*
X281100000Y-227100000D01*
X281100000Y-227100000D02*
X276400000Y-231800000D01*
X276400000Y-231800000D02*
X276400000Y-238500000D01*
X276400000Y-238500000D02*
X278800000Y-240900000D01*
X278800000Y-244500000D02*
X279400000Y-245100000D01*
X284000000Y-227100000D02*
X283000000Y-227100000D01*
D32*
%TO.N,/Ch2 Daughterboard/digio.in3*%
X134000000Y-279725000D02*
X134000000Y-284435412D01*
X134224000Y-290024000D02*
X134250000Y-290050000D01*
X134000000Y-284435412D02*
X133424000Y-285011412D01*
X134250000Y-290050000D02*
X134250000Y-300600000D01*
X133424000Y-285011412D02*
X133424000Y-286627612D01*
X133424000Y-286627612D02*
X134224000Y-287427612D01*
X134224000Y-287427612D02*
X134224000Y-290024000D01*
X134250000Y-300600000D02*
X142600000Y-308950000D01*
X142600000Y-308950000D02*
X155442142Y-308950000D01*
X155442142Y-308950000D02*
X155848832Y-309356690D01*
D33*
%TO.N,GND*%
X286180000Y-248400000D02*
X286950000Y-248400000D01*
D31*
%TO.N,Net-(U13-V6)*%
X283700000Y-182300000D02*
X286950000Y-185550000D01*
X286950000Y-185550000D02*
X286950000Y-224150000D01*
X286950000Y-224150000D02*
X284000000Y-227100000D01*
%TO.N,Net-(U13-V3)*%
X288200000Y-158200000D02*
X287800000Y-158600000D01*
X281600000Y-227700000D02*
X277100000Y-232200000D01*
X277100000Y-238300000D02*
X279921000Y-241121000D01*
X279921000Y-241121000D02*
X279921000Y-243279000D01*
X279921000Y-243279000D02*
X279500000Y-243700000D01*
X287800000Y-158600000D02*
X287800000Y-224900000D01*
X287800000Y-224900000D02*
X285000000Y-227700000D01*
X285000000Y-227700000D02*
X281600000Y-227700000D01*
X277100000Y-232200000D02*
X277100000Y-238300000D01*
%TO.N,Net-(Q1-G)*%
X299050000Y-274050000D02*
X299050000Y-272600000D01*
X299050000Y-272600000D02*
X297600000Y-271150000D01*
%TO.N,Net-(U11-SYNC{slash}MODE)*%
X281350000Y-279150000D02*
X282300000Y-280100000D01*
X281350000Y-278700000D02*
X281350000Y-279150000D01*
X282450000Y-278550000D02*
X282200000Y-278300000D01*
X282600000Y-278550000D02*
X282450000Y-278550000D01*
X282300000Y-280100000D02*
X286100000Y-280100000D01*
X282200000Y-278300000D02*
X281750000Y-278300000D01*
X281750000Y-278300000D02*
X281350000Y-278700000D01*
X286100000Y-280100000D02*
X286979000Y-279221000D01*
X286979000Y-279221000D02*
X291671000Y-279221000D01*
X291671000Y-279221000D02*
X292050000Y-279600000D01*
%TO.N,Net-(Q1-G)*%
X289500000Y-278700000D02*
X291100000Y-278700000D01*
X291100000Y-278700000D02*
X295750000Y-274050000D01*
X295750000Y-274050000D02*
X299050000Y-274050000D01*
X289500000Y-278700000D02*
X286300000Y-278700000D01*
X286300000Y-278700000D02*
X285229000Y-279771000D01*
X285229000Y-279771000D02*
X282721000Y-279771000D01*
X282721000Y-279771000D02*
X282000000Y-279050000D01*
%TO.N,GND*%
X284550000Y-278200000D02*
X285350000Y-278200000D01*
X286200000Y-239500000D02*
X286180000Y-239520000D01*
D33*
X268412500Y-151000000D02*
X268412500Y-150312500D01*
X267420000Y-316200000D02*
X266700000Y-316200000D01*
X264150000Y-224475000D02*
X264150000Y-225400000D01*
D31*
X286180000Y-240400000D02*
X286180000Y-239520000D01*
D33*
X269125000Y-223090000D02*
X269125000Y-222370000D01*
X286200000Y-232500000D02*
X287000000Y-232500000D01*
X268412500Y-150312500D02*
X268400000Y-150300000D01*
X269125000Y-222370000D02*
X269150000Y-222345000D01*
X264162500Y-225412500D02*
X264175000Y-225425000D01*
D31*
X263800000Y-175760000D02*
X263800000Y-176600000D01*
D33*
X268600000Y-200000000D02*
X268590000Y-200010000D01*
D31*
X268800000Y-174800000D02*
X268800000Y-174000000D01*
D33*
X264150000Y-225400000D02*
X264162500Y-225412500D01*
X268590000Y-200700000D02*
X268590000Y-200010000D01*
%TO.N,+3.3V*%
X268400000Y-316220000D02*
X268380000Y-316200000D01*
X268400000Y-317000000D02*
X268400000Y-316220000D01*
X285200000Y-232540000D02*
X285240000Y-232500000D01*
X285215600Y-249451330D02*
X285215600Y-248491330D01*
X285200000Y-233500000D02*
X285200000Y-232540000D01*
X285215600Y-241451330D02*
X285215600Y-240491330D01*
D34*
%TO.N,/regulators/+15v -15v DCCT Regulators/-15V_DCCT_REG*%
X278325000Y-175900000D02*
X278325000Y-175600000D01*
D31*
X263800000Y-174800000D02*
X262600000Y-174800000D01*
D34*
X267250000Y-176325000D02*
X269025000Y-178100000D01*
X265750000Y-170825000D02*
X265750000Y-172325000D01*
X267250000Y-173825000D02*
X267250000Y-176325000D01*
D31*
X262600000Y-174800000D02*
X262400000Y-175000000D01*
D34*
X269025000Y-178100000D02*
X270400000Y-178100000D01*
X265750000Y-172325000D02*
X267250000Y-173825000D01*
D31*
X263800000Y-174800000D02*
X266200000Y-174800000D01*
X266200000Y-174800000D02*
X266300000Y-174700000D01*
D35*
%TO.N,/regulators/+15v -15v DCCT Regulators/+15V_DCCT_REG*%
X278425000Y-154175000D02*
X277600000Y-155000000D01*
X268400000Y-153800000D02*
X268400000Y-153000000D01*
X278425000Y-152700000D02*
X278425000Y-154175000D01*
D33*
X268400000Y-151972500D02*
X268412500Y-151960000D01*
X268400000Y-153000000D02*
X268400000Y-151972500D01*
D35*
X269700000Y-155100000D02*
X268400000Y-153800000D01*
X277600000Y-155000000D02*
X269800000Y-155000000D01*
X269800000Y-155000000D02*
X269700000Y-155100000D01*
D31*
%TO.N,+5.0V*%
X268800000Y-175760000D02*
X268140000Y-175760000D01*
D33*
X269100000Y-224725000D02*
X269100000Y-224075000D01*
D31*
X268140000Y-175760000D02*
X268100000Y-175800000D01*
D33*
X269100000Y-224075000D02*
X269125000Y-224050000D01*
%TO.N,/regulators/+15v -15v PSC Regulators/-15V_PSC_REG*%
X266335000Y-223515000D02*
X266387500Y-223462500D01*
D31*
X277150000Y-227300000D02*
X278500000Y-225950000D01*
X267808317Y-224783317D02*
X270325000Y-227300000D01*
X267808317Y-222658317D02*
X267808317Y-224783317D01*
D33*
X264150000Y-223515000D02*
X266335000Y-223515000D01*
D31*
X266200000Y-221050000D02*
X267808317Y-222658317D01*
D33*
X266387500Y-223462500D02*
X266400000Y-223450000D01*
D31*
X262785000Y-223515000D02*
X262600000Y-223700000D01*
X278500000Y-225950000D02*
X278500000Y-224775000D01*
X264150000Y-223515000D02*
X262785000Y-223515000D01*
X270325000Y-227300000D02*
X277150000Y-227300000D01*
D35*
%TO.N,/regulators/+15v -15v PSC Regulators/+15V_PSC_REG*%
X270400000Y-204300000D02*
X277500000Y-204300000D01*
D31*
X268590000Y-202390000D02*
X268600000Y-202400000D01*
D33*
X269100000Y-202900000D02*
X269100000Y-203000000D01*
D31*
X268590000Y-201660000D02*
X268590000Y-202390000D01*
D35*
X278725000Y-203075000D02*
X278725000Y-202200000D01*
X269100000Y-203000000D02*
X270400000Y-204300000D01*
D33*
X268600000Y-202400000D02*
X269100000Y-202900000D01*
D35*
X277500000Y-204300000D02*
X278725000Y-203075000D01*
D34*
%TO.N,-15V_DCCT*%
X279400000Y-181300000D02*
X277225000Y-181300000D01*
X277225000Y-181300000D02*
X271925000Y-176000000D01*
D31*
%TO.N,/regulators/i2c_scl*%
X288700000Y-244900000D02*
X288700000Y-252700000D01*
X288700000Y-244400000D02*
X288900000Y-244200000D01*
X288400000Y-236700000D02*
X288900000Y-237200000D01*
X288900000Y-237200000D02*
X288900000Y-244200000D01*
X288700000Y-244900000D02*
X288700000Y-244400000D01*
%TO.N,/regulators/i2c_sda*%
X287800000Y-237400000D02*
X287699000Y-237501000D01*
X287900000Y-245300000D02*
X287900000Y-253400000D01*
X289600000Y-253800000D02*
X288300000Y-253800000D01*
X287699000Y-237501000D02*
X287699000Y-244400000D01*
X287900000Y-244601000D02*
X287699000Y-244400000D01*
X288300000Y-253800000D02*
X287900000Y-253400000D01*
X287900000Y-245300000D02*
X287900000Y-244601000D01*
D32*
%TO.N,/Ch2 Daughterboard/mon.sdo*%
X146725000Y-306525000D02*
X146725000Y-306475000D01*
X141776000Y-301526000D02*
X141776000Y-297226000D01*
X142000000Y-282977000D02*
X141277000Y-283700000D01*
X142000000Y-280650000D02*
X142000000Y-282977000D01*
X141277000Y-283700000D02*
X141277000Y-288662412D01*
X146725000Y-306475000D02*
X141776000Y-301526000D01*
X141776000Y-291426000D02*
X141776000Y-297226000D01*
X141776000Y-289161412D02*
X141776000Y-291426000D01*
X229500000Y-306350000D02*
X229429000Y-306421000D01*
X141277000Y-288662412D02*
X141776000Y-289161412D01*
X229429000Y-315379000D02*
X228024000Y-316784000D01*
X229429000Y-306421000D02*
X229429000Y-315379000D01*
%TO.N,/Ch2 Daughterboard/mon.reset*%
X230200000Y-305325000D02*
X230200000Y-311800000D01*
X142250000Y-305475000D02*
X142625000Y-305475000D01*
X138800000Y-284335412D02*
X138224000Y-284911412D01*
X229700000Y-312300000D02*
X229700000Y-315960000D01*
X229700000Y-315960000D02*
X230524000Y-316784000D01*
X138650000Y-301875000D02*
X142250000Y-305475000D01*
X138650000Y-289235412D02*
X138650000Y-301875000D01*
X138800000Y-279700000D02*
X138800000Y-284335412D01*
X138224000Y-284911412D02*
X138224000Y-288809412D01*
X138224000Y-288809412D02*
X138650000Y-289235412D01*
X230200000Y-311800000D02*
X229700000Y-312300000D01*
%TO.N,/Ch2 Daughterboard/mon.sclk*%
X145150000Y-303850000D02*
X142224000Y-300924000D01*
X142800000Y-288535412D02*
X142224000Y-289111412D01*
X228725000Y-305800000D02*
X228725000Y-314583000D01*
X142224000Y-289111412D02*
X142224000Y-291377612D01*
X226800000Y-303875000D02*
X228725000Y-305800000D01*
X142224000Y-300924000D02*
X142224000Y-297550000D01*
X142800000Y-279675000D02*
X142800000Y-288535412D01*
X228725000Y-314583000D02*
X228024000Y-315284000D01*
X142224000Y-291377612D02*
X142224000Y-297550000D01*
%TO.N,/Ch2 Daughterboard/mon.busy*%
X140250000Y-298600000D02*
X140250000Y-301850000D01*
X140250000Y-292400000D02*
X140250000Y-298600000D01*
X140400000Y-281700000D02*
X139774000Y-282326000D01*
X140250000Y-301850000D02*
X144200000Y-305800000D01*
X227200000Y-305700000D02*
X226750000Y-306150000D01*
X226750000Y-306150000D02*
X226750000Y-320010000D01*
X140250000Y-289150000D02*
X140250000Y-292400000D01*
X226750000Y-320010000D02*
X228024000Y-321284000D01*
X140400000Y-280550000D02*
X140400000Y-281700000D01*
X139774000Y-282326000D02*
X139774000Y-288674000D01*
X139774000Y-288674000D02*
X140250000Y-289150000D01*
%TO.N,/Ch1 Daughterboard/mon.sdo*%
X222875000Y-310225000D02*
X223875000Y-311225000D01*
X96277000Y-288762412D02*
X96776000Y-289261412D01*
X222450000Y-301776450D02*
X222875000Y-302201450D01*
X223875000Y-315933000D02*
X223024000Y-316784000D01*
X222450000Y-301000000D02*
X222450000Y-301776450D01*
X97000000Y-280750000D02*
X97000000Y-283077000D01*
X96277000Y-283800000D02*
X96277000Y-288762412D01*
X96625000Y-297351000D02*
X96625000Y-300900000D01*
X223875000Y-311225000D02*
X223875000Y-315933000D01*
X96776000Y-289261412D02*
X96776000Y-291526000D01*
X222875000Y-302201450D02*
X222875000Y-310225000D01*
X96776000Y-297200000D02*
X96625000Y-297351000D01*
X96625000Y-300900000D02*
X96625000Y-301075000D01*
X96776000Y-291526000D02*
X96776000Y-297200000D01*
X97000000Y-283077000D02*
X96277000Y-283800000D01*
%TO.N,/Ch2 Daughterboard/mon.cnvrt*%
X139375000Y-288025000D02*
X139000000Y-288400000D01*
X139250000Y-280700000D02*
X139250000Y-284550000D01*
X231220000Y-305020000D02*
X231220000Y-314588000D01*
X139250000Y-284550000D02*
X139375000Y-284675000D01*
X139600000Y-280350000D02*
X139250000Y-280700000D01*
X139375000Y-284675000D02*
X139375000Y-288025000D01*
X231220000Y-314588000D02*
X230524000Y-315284000D01*
X139000000Y-288400000D02*
X139000000Y-301475000D01*
X139000000Y-301475000D02*
X142100000Y-304575000D01*
X139600000Y-279700000D02*
X139600000Y-280350000D01*
X230525000Y-304325000D02*
X231220000Y-305020000D01*
%TO.N,/Ch1 Daughterboard/mon.fs*%
X95600000Y-298750000D02*
X95600000Y-301000000D01*
X95926000Y-288924000D02*
X95926000Y-282874000D01*
X95926000Y-282874000D02*
X96200000Y-282600000D01*
X95600000Y-298750000D02*
X95601000Y-298749000D01*
X95601000Y-289249000D02*
X95926000Y-288924000D01*
X224325000Y-302950000D02*
X224325000Y-318483000D01*
X95600000Y-301000000D02*
X96025000Y-301425000D01*
X96200000Y-282600000D02*
X96200000Y-279800000D01*
X224325000Y-318483000D02*
X223024000Y-319784000D01*
X223225000Y-301850000D02*
X224325000Y-302950000D01*
X95601000Y-298749000D02*
X95601000Y-289249000D01*
%TO.N,/Ch1 Daughterboard/mon.cnvrt*%
X94000000Y-301950000D02*
X94500000Y-302450000D01*
X94250000Y-280800000D02*
X94250000Y-284650000D01*
X94000000Y-288500000D02*
X94000000Y-292700000D01*
X224828000Y-314588000D02*
X225524000Y-315284000D01*
X94000000Y-292700000D02*
X94000000Y-298450000D01*
X94600000Y-279800000D02*
X94600000Y-280450000D01*
X94375000Y-284775000D02*
X94375000Y-288125000D01*
X94375000Y-288125000D02*
X94000000Y-288500000D01*
X94000000Y-298450000D02*
X94000000Y-301950000D01*
X94600000Y-280450000D02*
X94250000Y-280800000D01*
X224828000Y-302697000D02*
X224828000Y-314588000D01*
X94250000Y-284650000D02*
X94375000Y-284775000D01*
X224950000Y-302575000D02*
X224828000Y-302697000D01*
%TO.N,/Ch2 Daughterboard/mon.fs*%
X140601000Y-298550000D02*
X140601000Y-289149000D01*
X140926000Y-282774000D02*
X141200000Y-282500000D01*
X140601000Y-289149000D02*
X140926000Y-288824000D01*
X140926000Y-288824000D02*
X140926000Y-282774000D01*
X141200000Y-282500000D02*
X141200000Y-279700000D01*
X227328000Y-307022000D02*
X227328000Y-319088000D01*
X140601000Y-301176000D02*
X140601000Y-298550000D01*
X227975000Y-306375000D02*
X227328000Y-307022000D01*
X145525000Y-306100000D02*
X140601000Y-301176000D01*
X227328000Y-319088000D02*
X228024000Y-319784000D01*
X145525000Y-306200000D02*
X145525000Y-306100000D01*
%TO.N,/Ch1 Daughterboard/mon.sclk*%
X97800000Y-279775000D02*
X97800000Y-288635412D01*
X221625000Y-301497000D02*
X221625000Y-300474000D01*
X97224000Y-291477612D02*
X97224000Y-297776000D01*
X97800000Y-288635412D02*
X97224000Y-289211412D01*
X222328000Y-302200000D02*
X221625000Y-301497000D01*
X97224000Y-300474000D02*
X97225000Y-300475000D01*
X97224000Y-297776000D02*
X97224000Y-300474000D01*
X222328000Y-314588000D02*
X223024000Y-315284000D01*
X97224000Y-289211412D02*
X97224000Y-291477612D01*
X222328000Y-302200000D02*
X222328000Y-314588000D01*
%TO.N,/Ch1 Daughterboard/mon.reset*%
X93224000Y-288909412D02*
X93650000Y-289335412D01*
X93650000Y-302675000D02*
X94000000Y-303025000D01*
X93650000Y-289335412D02*
X93650000Y-302675000D01*
X93800000Y-279800000D02*
X93800000Y-284435412D01*
X225575000Y-303305285D02*
X226220000Y-303950285D01*
X226220000Y-316088000D02*
X225524000Y-316784000D01*
X93224000Y-285011412D02*
X93224000Y-288909412D01*
X226220000Y-303950285D02*
X226220000Y-316088000D01*
X93800000Y-284435412D02*
X93224000Y-285011412D01*
%TO.N,/Ch1 Daughterboard/mon.busy*%
X94774000Y-288774000D02*
X95250000Y-289250000D01*
X95250000Y-292500000D02*
X95250000Y-298700000D01*
X95250000Y-289250000D02*
X95250000Y-292500000D01*
X95400000Y-281800000D02*
X94774000Y-282426000D01*
X95250000Y-298700000D02*
X95250000Y-301750000D01*
X95400000Y-280650000D02*
X95400000Y-281800000D01*
X94774000Y-282426000D02*
X94774000Y-288774000D01*
X221650000Y-302301000D02*
X221650000Y-319910000D01*
X95250000Y-301750000D02*
X95500000Y-302000000D01*
X221650000Y-319910000D02*
X223024000Y-321284000D01*
%TO.N,/Ch2 Daughterboard/dac.sclk*%
X135600000Y-286500000D02*
X135600000Y-301100000D01*
X142925000Y-308425000D02*
X156575000Y-308425000D01*
X135024000Y-284826000D02*
X135024000Y-285924000D01*
X135600000Y-279675000D02*
X135600000Y-284250000D01*
X157675000Y-309525000D02*
X160475000Y-309525000D01*
X135600000Y-284250000D02*
X135024000Y-284826000D01*
X135024000Y-285924000D02*
X135600000Y-286500000D01*
X156575000Y-308425000D02*
X157675000Y-309525000D01*
X135600000Y-301100000D02*
X142925000Y-308425000D01*
X160475000Y-309525000D02*
X162725000Y-311775000D01*
%TO.N,/Ch1 Daughterboard/digio.out1*%
X84200000Y-283952057D02*
X84200000Y-279800000D01*
X83550000Y-285932900D02*
X83550000Y-284602057D01*
X95575000Y-319200000D02*
X84400000Y-308025000D01*
X84400000Y-308025000D02*
X84400000Y-286782900D01*
X83550000Y-284602057D02*
X84200000Y-283952057D01*
X84400000Y-286782900D02*
X83550000Y-285932900D01*
%TO.N,/Ch2 Daughterboard/dcct.busy*%
X159908252Y-308158252D02*
X163191748Y-308158252D01*
X158504000Y-306754000D02*
X159908252Y-308158252D01*
X165108496Y-310075000D02*
X165950000Y-310075000D01*
X144477000Y-288662412D02*
X145100000Y-289285412D01*
X145100000Y-299133252D02*
X152720748Y-306754000D01*
X145100000Y-289285412D02*
X145100000Y-299133252D01*
X145200000Y-280600000D02*
X145200000Y-283027000D01*
X145200000Y-283027000D02*
X144477000Y-283750000D01*
X152720748Y-306754000D02*
X158504000Y-306754000D01*
X163191748Y-308158252D02*
X165108496Y-310075000D01*
X144477000Y-283750000D02*
X144477000Y-288662412D01*
%TO.N,/Ch2 Daughterboard/digio.in3*%
X155848832Y-309356690D02*
X155848832Y-309123832D01*
%TO.N,/Ch1 Daughterboard/dac.syncn*%
X92726000Y-285111412D02*
X92200000Y-284585412D01*
X103550000Y-314075000D02*
X92800000Y-303325000D01*
X92726000Y-287774000D02*
X92726000Y-285111412D01*
X92800000Y-296900000D02*
X92400000Y-296500000D01*
X92400000Y-288100000D02*
X92726000Y-287774000D01*
X92200000Y-284585412D02*
X92200000Y-279800000D01*
X92400000Y-296500000D02*
X92400000Y-288100000D01*
X92800000Y-303325000D02*
X92800000Y-296900000D01*
%TO.N,/Ch1 Daughterboard/dac.sdin*%
X91976000Y-303576000D02*
X91976000Y-289061412D01*
X91400000Y-288485412D02*
X91400000Y-280650000D01*
X91976000Y-289061412D02*
X91400000Y-288485412D01*
X106150000Y-317750000D02*
X91976000Y-303576000D01*
%TO.N,/Ch1 Daughterboard/digio.in0*%
X101475000Y-321284000D02*
X144324000Y-321284000D01*
X86600000Y-280900000D02*
X86600000Y-284850000D01*
X86600000Y-284850000D02*
X86400000Y-285050000D01*
X101475000Y-321284000D02*
X87200000Y-307009000D01*
X86400000Y-287450000D02*
X87200000Y-288250000D01*
X86400000Y-285050000D02*
X86400000Y-287450000D01*
X87200000Y-307009000D02*
X87200000Y-289900000D01*
X87200000Y-288250000D02*
X87200000Y-289900000D01*
%TO.N,/Ch2 Daughterboard/digio.in2*%
X133000000Y-286700000D02*
X133800000Y-287500000D01*
X133800000Y-290250000D02*
X133800000Y-296100000D01*
X133000000Y-284900000D02*
X133000000Y-286700000D01*
X155150000Y-309530000D02*
X155105000Y-309575000D01*
X155105000Y-309575000D02*
X142700000Y-309575000D01*
X133800000Y-287500000D02*
X133800000Y-290250000D01*
X133200000Y-280700000D02*
X133200000Y-284700000D01*
X133200000Y-284700000D02*
X133000000Y-284900000D01*
X142700000Y-309575000D02*
X133800000Y-300675000D01*
X133800000Y-300675000D02*
X133800000Y-296100000D01*
%TO.N,/Ch1 Daughterboard/dcct.sdo0*%
X101800000Y-284685412D02*
X101800000Y-280700000D01*
X102024000Y-289261412D02*
X102326000Y-288959412D01*
X121713000Y-319088000D02*
X102024000Y-299399000D01*
X151824000Y-319784000D02*
X151128000Y-319088000D01*
X102024000Y-299399000D02*
X102024000Y-289261412D01*
X102326000Y-285211412D02*
X101800000Y-284685412D01*
X102326000Y-288959412D02*
X102326000Y-285211412D01*
X151128000Y-319088000D02*
X121713000Y-319088000D01*
%TO.N,/Ch2 Daughterboard/digio.out1*%
X129400000Y-300150000D02*
X129400000Y-286682900D01*
X141329000Y-312079000D02*
X129400000Y-300150000D01*
X128550000Y-284502057D02*
X129200000Y-283852057D01*
X160904000Y-312079000D02*
X141329000Y-312079000D01*
X129400000Y-286682900D02*
X128550000Y-285832900D01*
X129200000Y-283852057D02*
X129200000Y-279700000D01*
X128550000Y-285832900D02*
X128550000Y-284502057D01*
X160908000Y-312075000D02*
X160904000Y-312079000D01*
X161075000Y-312075000D02*
X160908000Y-312075000D01*
%TO.N,/Ch1 Daughterboard/dcct.busy*%
X99477000Y-288762412D02*
X99477000Y-283850000D01*
X100100000Y-297700000D02*
X100100000Y-289385412D01*
X99925000Y-297875000D02*
X100100000Y-297700000D01*
X100100000Y-289385412D02*
X99477000Y-288762412D01*
X100200000Y-283127000D02*
X100200000Y-280700000D01*
X117675000Y-318525000D02*
X99925000Y-300775000D01*
X99477000Y-283850000D02*
X100200000Y-283127000D01*
X99925000Y-300775000D02*
X99925000Y-297875000D01*
%TO.N,/Ch2 Daughterboard/digio.in1*%
X131800000Y-285150000D02*
X131800000Y-287253612D01*
X132400000Y-279725000D02*
X132400000Y-284550000D01*
X132600000Y-300291748D02*
X136791626Y-304483374D01*
X158625000Y-310025000D02*
X159050000Y-310450000D01*
X132400000Y-284550000D02*
X131800000Y-285150000D01*
X142333252Y-310025000D02*
X158200000Y-310025000D01*
X136791626Y-304483374D02*
X142333252Y-310025000D01*
X132600000Y-290150000D02*
X132600000Y-296300000D01*
X132600000Y-288053612D02*
X132600000Y-290150000D01*
X132600000Y-296300000D02*
X132600000Y-300291748D01*
X131800000Y-287253612D02*
X132600000Y-288053612D01*
X158200000Y-310025000D02*
X158625000Y-310025000D01*
%TO.N,/Ch1 Daughterboard/dcct.sck*%
X101000000Y-288735412D02*
X101000000Y-279800000D01*
X100474000Y-293174000D02*
X100474000Y-289261412D01*
X100474000Y-289261412D02*
X101000000Y-288735412D01*
X151020000Y-320480000D02*
X151824000Y-321284000D01*
X120975000Y-319800000D02*
X100550000Y-299375000D01*
X120975000Y-319800000D02*
X121655000Y-320480000D01*
X100550000Y-293250000D02*
X100474000Y-293174000D01*
X121655000Y-320480000D02*
X151020000Y-320480000D01*
X100550000Y-299375000D02*
X100550000Y-293250000D01*
%TO.N,/Ch1 Daughterboard/dcct.cnv*%
X98874000Y-289311412D02*
X99126000Y-289059412D01*
X99400000Y-282650000D02*
X99400000Y-279800000D01*
X98874000Y-291424000D02*
X98874000Y-289311412D01*
X99126000Y-289059412D02*
X99126000Y-282924000D01*
X114750000Y-317588000D02*
X98900000Y-301738000D01*
X99126000Y-282924000D02*
X99400000Y-282650000D01*
X98900000Y-301738000D02*
X98900000Y-291450000D01*
X98900000Y-291450000D02*
X98874000Y-291424000D01*
%TO.N,/Ch1 Daughterboard/digio.in1*%
X100725000Y-319600000D02*
X87600000Y-306475000D01*
X86800000Y-285250000D02*
X86800000Y-287353612D01*
X87600000Y-296400000D02*
X87600000Y-306075000D01*
X87600000Y-306475000D02*
X87600000Y-306075000D01*
X87400000Y-279825000D02*
X87400000Y-284650000D01*
X86800000Y-287353612D02*
X87600000Y-288153612D01*
X87400000Y-284650000D02*
X86800000Y-285250000D01*
X87600000Y-290250000D02*
X87600000Y-296400000D01*
X87600000Y-288153612D02*
X87600000Y-290250000D01*
%TO.N,/Ch1 Daughterboard/digio.out2*%
X93475000Y-316025000D02*
X85601000Y-308151000D01*
X85601000Y-287701000D02*
X85601000Y-291249000D01*
X85601000Y-308151000D02*
X85601000Y-295949000D01*
X94600000Y-316025000D02*
X93475000Y-316025000D01*
X85601000Y-291249000D02*
X85601000Y-295949000D01*
X84800000Y-284150000D02*
X84800000Y-286900000D01*
X85000000Y-283950000D02*
X84800000Y-284150000D01*
X84800000Y-286900000D02*
X85601000Y-287701000D01*
X85000000Y-280800000D02*
X85000000Y-283950000D01*
%TO.N,/Ch1 Daughterboard/digio.in3*%
X88424000Y-285111412D02*
X89000000Y-284535412D01*
X89300000Y-304084000D02*
X89300000Y-290200000D01*
X100500000Y-315284000D02*
X89300000Y-304084000D01*
X88424000Y-286727612D02*
X88424000Y-285111412D01*
X89224000Y-287527612D02*
X88424000Y-286727612D01*
X89224000Y-290124000D02*
X89224000Y-287527612D01*
X89300000Y-290200000D02*
X89224000Y-290124000D01*
X89000000Y-284535412D02*
X89000000Y-279825000D01*
%TO.N,/Ch2 Daughterboard/dcct.sdo0*%
X147326000Y-285111412D02*
X147326000Y-288859412D01*
X164666748Y-309250000D02*
X161441748Y-306025000D01*
X165950000Y-309250000D02*
X164666748Y-309250000D01*
X153525000Y-306025000D02*
X147024000Y-299524000D01*
X146800000Y-280600000D02*
X146800000Y-284585412D01*
X147024000Y-289161412D02*
X147024000Y-297650000D01*
X146800000Y-284585412D02*
X147326000Y-285111412D01*
X161441748Y-306025000D02*
X153525000Y-306025000D01*
X147024000Y-299524000D02*
X147024000Y-297650000D01*
X147326000Y-288859412D02*
X147024000Y-289161412D01*
%TO.N,/Ch2 Daughterboard/dcct.cnv*%
X144400000Y-282550000D02*
X144400000Y-279700000D01*
X159792203Y-308562500D02*
X163062500Y-308562500D01*
X143874000Y-291324000D02*
X143874000Y-289211412D01*
X143900000Y-301225000D02*
X149700000Y-307025000D01*
X158254703Y-307025000D02*
X159792203Y-308562500D01*
X149700000Y-307025000D02*
X158254703Y-307025000D01*
X143900000Y-291350000D02*
X143874000Y-291324000D01*
X144126000Y-288959412D02*
X144126000Y-282824000D01*
X165200000Y-310700000D02*
X165425000Y-310700000D01*
X163062500Y-308562500D02*
X165200000Y-310700000D01*
X143900000Y-291350000D02*
X143900000Y-297750000D01*
X143900000Y-297750000D02*
X143900000Y-301225000D01*
X144126000Y-282824000D02*
X144400000Y-282550000D01*
X143874000Y-289211412D02*
X144126000Y-288959412D01*
%TO.N,/Ch2 Daughterboard/dac.syncn*%
X158662500Y-308537500D02*
X158637500Y-308537500D01*
X143675000Y-307725000D02*
X137400000Y-301450000D01*
X137400000Y-288000000D02*
X137726000Y-287674000D01*
X137726000Y-285011412D02*
X137200000Y-284485412D01*
X137726000Y-287674000D02*
X137726000Y-285011412D01*
X137200000Y-284485412D02*
X137200000Y-279700000D01*
X158637500Y-308537500D02*
X157825000Y-307725000D01*
X157825000Y-307725000D02*
X143675000Y-307725000D01*
X137400000Y-301450000D02*
X137400000Y-288000000D01*
%TO.N,/Ch1 Daughterboard/digio.out3*%
X86000000Y-307450000D02*
X86000000Y-291202000D01*
X86000000Y-291202000D02*
X86002000Y-291200000D01*
X85200000Y-286700000D02*
X85200000Y-284600000D01*
X93150000Y-314588000D02*
X93138000Y-314588000D01*
X86002000Y-291200000D02*
X86002000Y-287502000D01*
X85800000Y-284000000D02*
X85800000Y-279825000D01*
X86002000Y-287502000D02*
X85200000Y-286700000D01*
X93138000Y-314588000D02*
X86000000Y-307450000D01*
X85200000Y-284600000D02*
X85800000Y-284000000D01*
%TO.N,/Ch1 Daughterboard/dac.sclk*%
X106500000Y-319895000D02*
X91250000Y-304645000D01*
X90024000Y-286024000D02*
X90024000Y-284926000D01*
X90024000Y-284926000D02*
X90600000Y-284350000D01*
X90600000Y-286600000D02*
X90024000Y-286024000D01*
X91250000Y-304645000D02*
X91250000Y-296700000D01*
X90600000Y-296050000D02*
X90600000Y-286600000D01*
X90600000Y-284350000D02*
X90600000Y-279775000D01*
X91250000Y-296700000D02*
X90600000Y-296050000D01*
%TO.N,/Ch2 Daughterboard/digio.out3*%
X130800000Y-283900000D02*
X130800000Y-279725000D01*
X131000000Y-291102000D02*
X131002000Y-291100000D01*
X130200000Y-284500000D02*
X130800000Y-283900000D01*
X131002000Y-291100000D02*
X131002000Y-287402000D01*
X130200000Y-286600000D02*
X130200000Y-284500000D01*
X141854000Y-311029000D02*
X131000000Y-300175000D01*
X158979000Y-311029000D02*
X141854000Y-311029000D01*
X131002000Y-287402000D02*
X130200000Y-286600000D01*
X159525000Y-311575000D02*
X158979000Y-311029000D01*
X131000000Y-300175000D02*
X131000000Y-291102000D01*
%TO.N,/Ch1 Daughterboard/dcct.sdo1*%
X103300000Y-289364588D02*
X102677000Y-288741588D01*
X151824000Y-316784000D02*
X151020000Y-317588000D01*
X102677000Y-288741588D02*
X102677000Y-285066024D01*
X103300000Y-299075000D02*
X103300000Y-289364588D01*
X102677000Y-285066024D02*
X102600000Y-284989023D01*
X121813000Y-317588000D02*
X103300000Y-299075000D01*
X102600000Y-284989023D02*
X102600000Y-279800000D01*
X151020000Y-317588000D02*
X121813000Y-317588000D01*
%TO.N,/Ch2 Daughterboard/dcct.sdo1*%
X148300000Y-289264588D02*
X148300000Y-291950000D01*
X147677000Y-284966024D02*
X147677000Y-288641588D01*
X147600000Y-279700000D02*
X147600000Y-284889023D01*
X155850000Y-305200000D02*
X162625000Y-305200000D01*
X164850000Y-311575000D02*
X164825000Y-311550000D01*
X148300000Y-297650000D02*
X155850000Y-305200000D01*
X165812500Y-308387500D02*
X166525000Y-309100000D01*
X147600000Y-284889023D02*
X147677000Y-284966024D01*
X148300000Y-291950000D02*
X148300000Y-297650000D01*
X147677000Y-288641588D02*
X148300000Y-289264588D01*
X162625000Y-305200000D02*
X165812500Y-308387500D01*
X166525000Y-311575000D02*
X164850000Y-311575000D01*
X166525000Y-309100000D02*
X166525000Y-311575000D01*
%TO.N,/Ch2 Daughterboard/digio.out0*%
X129000000Y-300525000D02*
X129000000Y-286850000D01*
X160605000Y-312650000D02*
X159800000Y-312650000D01*
X159500000Y-312350000D02*
X140825000Y-312350000D01*
X159800000Y-312650000D02*
X159500000Y-312350000D01*
X127900000Y-285750000D02*
X127900000Y-283750000D01*
X140825000Y-312350000D02*
X129000000Y-300525000D01*
X129000000Y-286850000D02*
X127900000Y-285750000D01*
X127900000Y-283750000D02*
X128400000Y-283250000D01*
X128400000Y-283250000D02*
X128400000Y-280700000D01*
%TO.N,/Ch1 Daughterboard/digio.in2*%
X88200000Y-284800000D02*
X88200000Y-280800000D01*
X100250000Y-316784000D02*
X100209000Y-316784000D01*
X100209000Y-316784000D02*
X88800000Y-305375000D01*
X88800000Y-287600000D02*
X88000000Y-286800000D01*
X88000000Y-285000000D02*
X88200000Y-284800000D01*
X88000000Y-286800000D02*
X88000000Y-285000000D01*
X88800000Y-305375000D02*
X88800000Y-287600000D01*
%TO.N,/Ch2 Daughterboard/digio.out2*%
X129925000Y-292025000D02*
X130601000Y-291349000D01*
X157475000Y-311525000D02*
X141600000Y-311525000D01*
X141600000Y-311525000D02*
X129925000Y-299850000D01*
X130000000Y-283850000D02*
X129800000Y-284050000D01*
X129800000Y-286800000D02*
X130601000Y-287601000D01*
X130601000Y-287601000D02*
X130601000Y-290100000D01*
X130601000Y-290100000D02*
X130601000Y-291149000D01*
X130601000Y-291149000D02*
X130600000Y-291150000D01*
X130601000Y-291349000D02*
X130601000Y-290100000D01*
X129925000Y-299850000D02*
X129925000Y-292025000D01*
X129800000Y-284050000D02*
X129800000Y-286800000D01*
X130000000Y-280700000D02*
X130000000Y-283850000D01*
%TO.N,/Ch2 Daughterboard/digio.in0*%
X157950000Y-310534000D02*
X157859000Y-310625000D01*
X131400000Y-287350000D02*
X132200000Y-288150000D01*
X131600000Y-280800000D02*
X131600000Y-284750000D01*
X132200000Y-300650000D02*
X132200000Y-289800000D01*
X131600000Y-284750000D02*
X131400000Y-284950000D01*
X131400000Y-284950000D02*
X131400000Y-287350000D01*
X142175000Y-310625000D02*
X132200000Y-300650000D01*
X157859000Y-310625000D02*
X142175000Y-310625000D01*
X132200000Y-288150000D02*
X132200000Y-289800000D01*
%TO.N,/Ch1 Daughterboard/digio.out0*%
X95875000Y-320675000D02*
X84000000Y-308800000D01*
X83400000Y-283350000D02*
X83400000Y-280800000D01*
X84000000Y-308800000D02*
X84000000Y-286950000D01*
X82900000Y-285850000D02*
X82900000Y-283850000D01*
X84000000Y-286950000D02*
X82900000Y-285850000D01*
X82900000Y-283850000D02*
X83400000Y-283350000D01*
%TO.N,/Ch2 Daughterboard/dac.sdin*%
X158450000Y-309200000D02*
X161625000Y-309200000D01*
X136976000Y-288961412D02*
X136976000Y-296276000D01*
X136500000Y-296800000D02*
X136500000Y-301200000D01*
X136400000Y-280550000D02*
X136400000Y-288385412D01*
X136400000Y-288385412D02*
X136976000Y-288961412D01*
X136500000Y-301200000D02*
X143375000Y-308075000D01*
X137000000Y-296300000D02*
X136500000Y-296800000D01*
X143375000Y-308075000D02*
X157325000Y-308075000D01*
X157325000Y-308075000D02*
X158450000Y-309200000D01*
X136976000Y-296276000D02*
X137000000Y-296300000D01*
X161625000Y-309200000D02*
X161825000Y-309400000D01*
D31*
%TO.N,/Ch2 Daughterboard/ps.vout+*%
X141575000Y-154993198D02*
X141037501Y-155530697D01*
X145125000Y-92725000D02*
X144975000Y-92875000D01*
X141575000Y-152393198D02*
X141575000Y-154993198D01*
X144975000Y-92875000D02*
X144975000Y-96693198D01*
X143900000Y-97768198D02*
X143900000Y-128843198D01*
X142103145Y-130640053D02*
X142103145Y-151865053D01*
X141037501Y-155530697D02*
X141037501Y-158712501D01*
X145125000Y-91950000D02*
X145125000Y-92725000D01*
X141037501Y-158712501D02*
X141200000Y-158875000D01*
X143900000Y-128843198D02*
X142103145Y-130640053D01*
X144975000Y-96693198D02*
X143900000Y-97768198D01*
X142103145Y-151865053D02*
X141575000Y-152393198D01*
%TO.N,/Ch2 Daughterboard/digin.spare*%
X125275000Y-89775000D02*
X123800000Y-91250000D01*
X131600000Y-148675000D02*
X131600000Y-159075000D01*
X131950000Y-140100000D02*
X131950000Y-148325000D01*
X123800000Y-91250000D02*
X123800000Y-131950000D01*
X131950000Y-148325000D02*
X131600000Y-148675000D01*
X125575000Y-89775000D02*
X125275000Y-89775000D01*
X123800000Y-131950000D02*
X131950000Y-140100000D01*
%TO.N,/Ch2 Daughterboard/ps.vout-*%
X144525000Y-96506802D02*
X144525000Y-92950000D01*
X141125000Y-154806802D02*
X141125000Y-152206802D01*
X140587499Y-158712501D02*
X140587499Y-155344303D01*
X141653145Y-130453657D02*
X143450000Y-128656802D01*
X141125000Y-152206802D02*
X141653145Y-151678657D01*
X141653145Y-151678657D02*
X141653145Y-130453657D01*
X143450000Y-128656802D02*
X143450000Y-97581802D01*
X140587499Y-155344303D02*
X141125000Y-154806802D01*
X143450000Y-97581802D02*
X144525000Y-96506802D01*
X144525000Y-92950000D02*
X144225000Y-92650000D01*
X140425000Y-158875000D02*
X140587499Y-158712501D01*
D32*
%TO.N,/Ch2 Daughterboard/digout.on2*%
X130000000Y-159275000D02*
X129950000Y-159275000D01*
D31*
X124375000Y-134800000D02*
X124425000Y-134800000D01*
X130350000Y-152250000D02*
X129950000Y-152650000D01*
X124425000Y-134800000D02*
X130350000Y-140725000D01*
X129950000Y-159225000D02*
X130000000Y-159275000D01*
X130350000Y-140725000D02*
X130350000Y-152250000D01*
X129950000Y-152650000D02*
X129950000Y-159225000D01*
D32*
%TO.N,/Ch2 Daughterboard/digin.acon*%
X134000000Y-158875000D02*
X133920000Y-158875000D01*
%TO.N,/Ch2 Daughterboard/digin.flt1*%
X133200000Y-158975000D02*
X133200000Y-158768612D01*
D31*
%TO.N,/Ch2 Daughterboard/reg.out-*%
X144200000Y-158350000D02*
X143625000Y-158925000D01*
X143401000Y-145001000D02*
X143401000Y-153076000D01*
X143325000Y-144925000D02*
X143000000Y-144600000D01*
X143401000Y-153076000D02*
X144200000Y-153875000D01*
X143000000Y-144600000D02*
X143000000Y-144575000D01*
X143325000Y-144925000D02*
X143401000Y-145001000D01*
X144200000Y-153875000D02*
X144200000Y-158350000D01*
%TO.N,/Ch2 Daughterboard/ps.ignd-*%
X148450000Y-88425000D02*
X149525000Y-89500000D01*
X138400000Y-155550000D02*
X138799000Y-155151000D01*
X136375000Y-99025000D02*
X144100000Y-91300000D01*
X138799000Y-155151000D02*
X138799000Y-148445038D01*
X136300000Y-99025000D02*
X136375000Y-99025000D01*
X148450000Y-88425000D02*
X144165000Y-88425000D01*
X148725000Y-91300000D02*
X149525000Y-90500000D01*
X149525000Y-90500000D02*
X149525000Y-89500000D01*
X136300000Y-145946038D02*
X136300000Y-99025000D01*
X138799000Y-148445038D02*
X136300000Y-145946038D01*
X144100000Y-91300000D02*
X148725000Y-91300000D01*
X144165000Y-88425000D02*
X143175000Y-87435000D01*
X138350000Y-155550000D02*
X138400000Y-155550000D01*
D32*
%TO.N,/Ch2 Daughterboard/digout.reset*%
X129200000Y-159475000D02*
X129200000Y-159360412D01*
D31*
X128600000Y-149475000D02*
X128600000Y-155125000D01*
X128600000Y-155125000D02*
X129200000Y-155725000D01*
X123500000Y-133025000D02*
X123500000Y-135465768D01*
X123500000Y-135465768D02*
X129509232Y-141475000D01*
X129509232Y-141475000D02*
X129509232Y-148565768D01*
X129509232Y-148565768D02*
X128600000Y-149475000D01*
X129200000Y-155725000D02*
X129200000Y-159475000D01*
%TO.N,/Ch2 Daughterboard/ps.spare+*%
X134779000Y-155629000D02*
X136425000Y-157275000D01*
X135400000Y-149600000D02*
X135400000Y-153688194D01*
X136400000Y-158875000D02*
X136275001Y-158750001D01*
X136425000Y-158850000D02*
X136400000Y-158875000D01*
X136425000Y-157275000D02*
X136425000Y-158850000D01*
X134779000Y-154309194D02*
X134779000Y-155629000D01*
X135400000Y-153688194D02*
X134779000Y-154309194D01*
%TO.N,/Ch2 Daughterboard/digin.flt2*%
X132600000Y-149025000D02*
X132125000Y-149500000D01*
X132600000Y-139775000D02*
X132600000Y-149025000D01*
X126275000Y-89850000D02*
X124400000Y-91725000D01*
X132125000Y-149500000D02*
X132125000Y-158000000D01*
X126275000Y-89300000D02*
X126275000Y-89850000D01*
X124400000Y-91725000D02*
X124400000Y-131575000D01*
X132400000Y-158275000D02*
X132400000Y-159375000D01*
X124400000Y-131575000D02*
X132600000Y-139775000D01*
X132125000Y-158000000D02*
X132400000Y-158275000D01*
%TO.N,/Ch2 Daughterboard/digout.on1*%
X126900000Y-136050000D02*
X131279000Y-140429000D01*
X126854304Y-136050000D02*
X126900000Y-136050000D01*
X131279000Y-152496000D02*
X130800000Y-152975000D01*
X131279000Y-140429000D02*
X131279000Y-152496000D01*
X125972000Y-135167696D02*
X126854304Y-136050000D01*
%TO.N,/Ch2 Daughterboard/ps.spare-*%
X136350000Y-149750000D02*
X136025000Y-150075000D01*
X136025000Y-150075000D02*
X136025000Y-155300000D01*
%TO.N,/Ch2 Daughterboard/reg.out+*%
X143725000Y-152797000D02*
X143725000Y-143850000D01*
X144521000Y-153599000D02*
X143722000Y-152800000D01*
X144521000Y-158829000D02*
X144521000Y-153599000D01*
X144425000Y-158925000D02*
X144521000Y-158829000D01*
X143722000Y-152800000D02*
X143725000Y-152797000D01*
%TO.N,/Ch2 Daughterboard/digout.spare*%
X128975000Y-141900000D02*
X128950000Y-141925000D01*
X128025000Y-159000000D02*
X128400000Y-159375000D01*
X128950000Y-148125000D02*
X128025000Y-149050000D01*
X128025000Y-149050000D02*
X128025000Y-159000000D01*
X122675000Y-133275000D02*
X122675000Y-135600000D01*
X128950000Y-141925000D02*
X128950000Y-148125000D01*
X122675000Y-135600000D02*
X128975000Y-141900000D01*
%TO.N,/Ch2 Daughterboard/ps.ignd+*%
X135950000Y-146050000D02*
X138325000Y-148425000D01*
X135950000Y-98921037D02*
X135950000Y-99975000D01*
X143810000Y-91136037D02*
X139198019Y-95748019D01*
X137829000Y-155334194D02*
X137829000Y-158154000D01*
X137829000Y-158154000D02*
X138800000Y-159125000D01*
X139198019Y-95748019D02*
X139123018Y-95748019D01*
X138325000Y-148425000D02*
X138325000Y-154838194D01*
X143810000Y-89975000D02*
X143810000Y-91136037D01*
X135950000Y-99975000D02*
X135950000Y-146050000D01*
X138325000Y-154838194D02*
X137829000Y-155334194D01*
X139123018Y-95748019D02*
X135950000Y-98921037D01*
%TO.N,/Ch1 Daughterboard/digin.flt2*%
X87600000Y-149050000D02*
X87125000Y-149525000D01*
X79400000Y-91750000D02*
X79400000Y-131600000D01*
X87600000Y-139800000D02*
X87600000Y-149050000D01*
X81275000Y-89325000D02*
X81275000Y-89875000D01*
X87400000Y-158300000D02*
X87400000Y-159400000D01*
X79400000Y-131600000D02*
X87600000Y-139800000D01*
X87125000Y-158025000D02*
X87400000Y-158300000D01*
X81275000Y-89875000D02*
X79400000Y-91750000D01*
X87125000Y-149525000D02*
X87125000Y-158025000D01*
%TO.N,/Ch1 Daughterboard/digin.acon*%
X84687500Y-88537500D02*
X80625000Y-92600000D01*
X93287500Y-88537500D02*
X84687500Y-88537500D01*
D32*
X89000000Y-158900000D02*
X88920000Y-158900000D01*
D31*
X89000000Y-139325000D02*
X89000000Y-158900000D01*
X80625000Y-130950000D02*
X89000000Y-139325000D01*
X94365000Y-87460000D02*
X93287500Y-88537500D01*
X80625000Y-92600000D02*
X80625000Y-130950000D01*
%TO.N,/Ch1 Daughterboard/ps.spare-*%
X91025000Y-150100000D02*
X91025000Y-155325000D01*
X91350000Y-149775000D02*
X91025000Y-150100000D01*
%TO.N,/Ch1 Daughterboard/ps.vout+*%
X100125000Y-91975000D02*
X100125000Y-92750000D01*
X97103145Y-151890053D02*
X96575000Y-152418198D01*
X100125000Y-92750000D02*
X99975000Y-92900000D01*
X97103145Y-130665053D02*
X97103145Y-151890053D01*
X99975000Y-92900000D02*
X99975000Y-96718198D01*
X96037501Y-158737501D02*
X96200000Y-158900000D01*
X96037501Y-155555697D02*
X96037501Y-158737501D01*
X96575000Y-155018198D02*
X96037501Y-155555697D01*
X99975000Y-96718198D02*
X98900000Y-97793198D01*
X98900000Y-128868198D02*
X97103145Y-130665053D01*
X96575000Y-152418198D02*
X96575000Y-155018198D01*
X98900000Y-97793198D02*
X98900000Y-128868198D01*
%TO.N,/Ch1 Daughterboard/digout.on2*%
X84950000Y-159250000D02*
X85000000Y-159300000D01*
X85350000Y-152275000D02*
X84950000Y-152675000D01*
X84950000Y-152675000D02*
X84950000Y-159250000D01*
X85350000Y-140750000D02*
X85350000Y-152275000D01*
X79375000Y-134825000D02*
X79425000Y-134825000D01*
D32*
X85000000Y-159300000D02*
X84950000Y-159300000D01*
D31*
X79425000Y-134825000D02*
X85350000Y-140750000D01*
%TO.N,/Ch1 Daughterboard/reg.out-*%
X98401000Y-153101000D02*
X99200000Y-153900000D01*
X99200000Y-153900000D02*
X99200000Y-158375000D01*
X98325000Y-144950000D02*
X98000000Y-144625000D01*
X98401000Y-145026000D02*
X98401000Y-153101000D01*
X99200000Y-158375000D02*
X98625000Y-158950000D01*
X98000000Y-144625000D02*
X98000000Y-144600000D01*
X98325000Y-144950000D02*
X98401000Y-145026000D01*
%TO.N,/Ch1 Daughterboard/digout.reset*%
X78500000Y-133050000D02*
X78500000Y-135490768D01*
X83600000Y-149500000D02*
X83600000Y-155150000D01*
X84200000Y-155750000D02*
X84200000Y-159500000D01*
X84509232Y-148590768D02*
X83600000Y-149500000D01*
X84509232Y-141500000D02*
X84509232Y-148590768D01*
X83600000Y-155150000D02*
X84200000Y-155750000D01*
X78500000Y-135490768D02*
X84509232Y-141500000D01*
D32*
X84200000Y-159500000D02*
X84200000Y-159385412D01*
D31*
%TO.N,/Ch1 Daughterboard/ps.spare+*%
X91400000Y-158900000D02*
X91275001Y-158775001D01*
X90400000Y-153713194D02*
X89779000Y-154334194D01*
X91425000Y-158875000D02*
X91400000Y-158900000D01*
X89779000Y-155654000D02*
X91425000Y-157300000D01*
X91425000Y-157300000D02*
X91425000Y-158875000D01*
X89779000Y-154334194D02*
X89779000Y-155654000D01*
X90400000Y-149625000D02*
X90400000Y-153713194D01*
%TO.N,/Ch1 Daughterboard/digout.on1*%
X81900000Y-136075000D02*
X86279000Y-140454000D01*
X80972000Y-135192696D02*
X81854304Y-136075000D01*
X86279000Y-140454000D02*
X86279000Y-152521000D01*
X86279000Y-152521000D02*
X85800000Y-153000000D01*
X85800000Y-153000000D02*
X85800000Y-159500000D01*
X81854304Y-136075000D02*
X81900000Y-136075000D01*
%TO.N,/Ch1 Daughterboard/ps.vout-*%
X98450000Y-128681802D02*
X98450000Y-97606802D01*
X96125000Y-152231802D02*
X96653145Y-151703657D01*
X99525000Y-96531802D02*
X99525000Y-92975000D01*
X96653145Y-151703657D02*
X96653145Y-130478657D01*
X95587499Y-155369303D02*
X96125000Y-154831802D01*
X98450000Y-97606802D02*
X99525000Y-96531802D01*
X95587499Y-158737501D02*
X95587499Y-155369303D01*
X95425000Y-158900000D02*
X95587499Y-158737501D01*
X99525000Y-92975000D02*
X99225000Y-92675000D01*
X96653145Y-130478657D02*
X98450000Y-128681802D01*
X96125000Y-154831802D02*
X96125000Y-152231802D01*
%TO.N,/Ch1 Daughterboard/digin.flt1*%
X88341000Y-158159000D02*
X88200000Y-158300000D01*
X93095000Y-87460000D02*
X93095000Y-86645000D01*
X80075000Y-92525000D02*
X80075000Y-131300000D01*
X80075000Y-131300000D02*
X88341000Y-139566000D01*
D32*
X88200000Y-159000000D02*
X88200000Y-158793612D01*
D31*
X92525000Y-86075000D02*
X86525000Y-86075000D01*
X88341000Y-139566000D02*
X88341000Y-158159000D01*
X88200000Y-158300000D02*
X88200000Y-159000000D01*
X93095000Y-86645000D02*
X92525000Y-86075000D01*
X86525000Y-86075000D02*
X80075000Y-92525000D01*
%TO.N,/Ch1 Daughterboard/ps.ignd-*%
X99165000Y-88450000D02*
X98175000Y-87460000D01*
X103725000Y-91325000D02*
X104525000Y-90525000D01*
X99100000Y-91325000D02*
X103725000Y-91325000D01*
X93799000Y-155176000D02*
X93799000Y-148470038D01*
X93350000Y-155575000D02*
X93400000Y-155575000D01*
X104525000Y-90525000D02*
X104525000Y-89525000D01*
X91300000Y-99050000D02*
X91375000Y-99050000D01*
X103450000Y-88450000D02*
X104525000Y-89525000D01*
X93400000Y-155575000D02*
X93799000Y-155176000D01*
X103450000Y-88450000D02*
X99165000Y-88450000D01*
X91375000Y-99050000D02*
X99100000Y-91325000D01*
X93799000Y-148470038D02*
X91300000Y-145971038D01*
X91300000Y-145971038D02*
X91300000Y-99050000D01*
%TO.N,/Ch1 Daughterboard/digin.spare*%
X78800000Y-94190000D02*
X78660000Y-94330000D01*
X78660000Y-94330000D02*
X78660000Y-131835000D01*
X78800000Y-91275000D02*
X78800000Y-94190000D01*
X86600000Y-148700000D02*
X86600000Y-159100000D01*
X80275000Y-89800000D02*
X78800000Y-91275000D01*
X78660000Y-131835000D02*
X86950000Y-140125000D01*
X86950000Y-148350000D02*
X86600000Y-148700000D01*
X80575000Y-89800000D02*
X80275000Y-89800000D01*
X86950000Y-140125000D02*
X86950000Y-148350000D01*
%TO.N,/Ch1 Daughterboard/reg.out+*%
X99521000Y-158854000D02*
X99521000Y-153624000D01*
X99521000Y-153624000D02*
X98722000Y-152825000D01*
X99425000Y-158950000D02*
X99521000Y-158854000D01*
X98725000Y-152822000D02*
X98725000Y-143875000D01*
X98722000Y-152825000D02*
X98725000Y-152822000D01*
%TO.N,/Ch1 Daughterboard/ps.ignd+*%
X90950000Y-100000000D02*
X90950000Y-146075000D01*
X90950000Y-146075000D02*
X93325000Y-148450000D01*
X93325000Y-154863194D02*
X92829000Y-155359194D01*
X92829000Y-155359194D02*
X92829000Y-158179000D01*
X98810000Y-90000000D02*
X98810000Y-91161037D01*
X93325000Y-148450000D02*
X93325000Y-154863194D01*
X94198019Y-95773019D02*
X94123018Y-95773019D01*
X92829000Y-158179000D02*
X93800000Y-159150000D01*
X90950000Y-98946037D02*
X90950000Y-100000000D01*
X94123018Y-95773019D02*
X90950000Y-98946037D01*
X98810000Y-91161037D02*
X94198019Y-95773019D01*
D35*
%TO.N,/Ch1 Burden Resistor/Iin0.dcct+*%
X282714000Y-95564000D02*
X284400000Y-97250000D01*
X282714000Y-94600000D02*
X282714000Y-95564000D01*
D31*
%TO.N,/Ch1 Burden Resistor/Iin0.dcct-*%
X286300000Y-94342809D02*
X284017191Y-92060000D01*
X286300000Y-97800000D02*
X286300000Y-94342809D01*
X284017191Y-92060000D02*
X283857000Y-92060000D01*
D36*
%TO.N,/Ch2 Burden Resistor/Iin0.dcct-*%
X278900000Y-100400000D02*
X278801000Y-100301000D01*
X280500000Y-102600000D02*
X280500000Y-102000000D01*
X278801000Y-100301000D02*
X278801000Y-96950000D01*
D31*
X278801000Y-96950000D02*
X279259600Y-96491400D01*
D36*
X280500000Y-102000000D02*
X278900000Y-100400000D01*
D31*
X279259600Y-96491400D02*
X279259600Y-92060000D01*
D35*
%TO.N,/Ch2 Burden Resistor/Iin0.dcct+*%
X277100000Y-95642000D02*
X278142000Y-94600000D01*
D36*
X278300000Y-102700000D02*
X277100000Y-101500000D01*
D35*
X277100000Y-95807030D02*
X277100000Y-95642000D01*
D36*
X277100000Y-101500000D02*
X277100000Y-95807030D01*
D31*
%TO.N,/DCCT Fault Logic/dcct_flt.78*%
X258800000Y-82600000D02*
X254400000Y-87000000D01*
X254400000Y-320800000D02*
X255600000Y-322000000D01*
X275830600Y-89520000D02*
X275830600Y-87230600D01*
X275830600Y-87230600D02*
X271200000Y-82600000D01*
X255600000Y-322000000D02*
X258300000Y-322000000D01*
X254400000Y-87000000D02*
X254400000Y-320800000D01*
X271200000Y-82600000D02*
X258800000Y-82600000D01*
%TO.N,/DCCT Fault Logic/dcct_flt.34*%
X271100000Y-83500000D02*
X259100000Y-83500000D01*
X274645700Y-89976091D02*
X274645700Y-87045700D01*
X255200000Y-318300000D02*
X256200000Y-319300000D01*
X255200000Y-314100000D02*
X255200000Y-318300000D01*
X276973600Y-92060000D02*
X276729609Y-92060000D01*
X274645700Y-87045700D02*
X271100000Y-83500000D01*
X255200000Y-87400000D02*
X255200000Y-314100000D01*
X259100000Y-83500000D02*
X255200000Y-87400000D01*
X256200000Y-319300000D02*
X258300000Y-319300000D01*
X276729609Y-92060000D02*
X274645700Y-89976091D01*
%TO.N,Net-(U13-V2)*%
X277600000Y-244600000D02*
X277000000Y-244600000D01*
X278055390Y-243720000D02*
X278055390Y-244144610D01*
X278055390Y-244144610D02*
X277600000Y-244600000D01*
D32*
%TO.N,/Ch3 Daughterboard/dcct.busy*%
X190250000Y-280650000D02*
X190250000Y-283077000D01*
X189527000Y-283800000D02*
X189527000Y-288712412D01*
X189527000Y-288712412D02*
X190150000Y-289335412D01*
X190150000Y-301550000D02*
X188675000Y-303025000D01*
X190150000Y-289335412D02*
X190150000Y-301550000D01*
X188675000Y-312425000D02*
X188800000Y-312550000D01*
X190250000Y-283077000D02*
X189527000Y-283800000D01*
X188675000Y-303025000D02*
X188675000Y-312425000D01*
%TO.N,/Ch4 Daughterboard/dac.sdin*%
X224775000Y-298650000D02*
X226976000Y-296449000D01*
X222125000Y-298650000D02*
X224775000Y-298650000D01*
X226976000Y-289011412D02*
X226400000Y-288435412D01*
X216550000Y-312200000D02*
X216550000Y-308675000D01*
X226400000Y-288435412D02*
X226400000Y-280600000D01*
X216550000Y-308675000D02*
X216400000Y-308525000D01*
X216400000Y-304375000D02*
X222125000Y-298650000D01*
X226976000Y-296449000D02*
X226976000Y-289011412D01*
X216400000Y-308525000D02*
X216400000Y-304375000D01*
%TO.N,/Ch3 Daughterboard/digio.out1*%
X197624000Y-319784000D02*
X196928000Y-319088000D01*
X173600000Y-284552057D02*
X174250000Y-283902057D01*
X175937000Y-319088000D02*
X175125000Y-318276000D01*
X196928000Y-319088000D02*
X175937000Y-319088000D01*
X174450000Y-286732900D02*
X173600000Y-285882900D01*
X173600000Y-285882900D02*
X173600000Y-284552057D01*
X174450000Y-297250000D02*
X174450000Y-286732900D01*
X175125000Y-297925000D02*
X174450000Y-297250000D01*
X174250000Y-283902057D02*
X174250000Y-279750000D01*
X175125000Y-318276000D02*
X175125000Y-297925000D01*
%TO.N,/Ch3 Daughterboard/digio.out0*%
X173450000Y-283300000D02*
X172950000Y-283800000D01*
X197624000Y-321284000D02*
X196890000Y-320550000D01*
X174050000Y-319825000D02*
X174775000Y-320550000D01*
X173450000Y-280750000D02*
X173450000Y-283300000D01*
X172950000Y-285800000D02*
X174050000Y-286900000D01*
X172950000Y-283800000D02*
X172950000Y-285800000D01*
X174050000Y-286900000D02*
X174050000Y-319825000D01*
X196890000Y-320550000D02*
X174775000Y-320550000D01*
%TO.N,/Ch3 Daughterboard/dcct.sdo1*%
X192727000Y-288691588D02*
X193350000Y-289314588D01*
X201525000Y-315685000D02*
X202624000Y-316784000D01*
X193350000Y-289314588D02*
X193350000Y-302025000D01*
X193350000Y-302025000D02*
X201525000Y-310200000D01*
X201525000Y-310200000D02*
X201525000Y-315685000D01*
X192727000Y-285016024D02*
X192727000Y-288691588D01*
X192650000Y-279750000D02*
X192650000Y-284939023D01*
X192650000Y-284939023D02*
X192727000Y-285016024D01*
%TO.N,/Ch4 Daughterboard/dac.sclk*%
X215820000Y-316088000D02*
X215124000Y-316784000D01*
X225024000Y-284876000D02*
X225024000Y-285974000D01*
X222625000Y-297325000D02*
X215820000Y-304130000D01*
X225600000Y-284300000D02*
X225024000Y-284876000D01*
X225600000Y-296000000D02*
X224275000Y-297325000D01*
X225600000Y-286550000D02*
X225600000Y-296000000D01*
X215820000Y-304130000D02*
X215820000Y-316088000D01*
X225024000Y-285974000D02*
X225600000Y-286550000D01*
X224275000Y-297325000D02*
X222625000Y-297325000D01*
X225600000Y-279725000D02*
X225600000Y-284300000D01*
%TO.N,/Ch3 Daughterboard/digio.in2*%
X178050000Y-284950000D02*
X178050000Y-286750000D01*
X195124000Y-316784000D02*
X179334000Y-316784000D01*
X178250000Y-284750000D02*
X178050000Y-284950000D01*
X178050000Y-286750000D02*
X178850000Y-287550000D01*
X178850000Y-287550000D02*
X178850000Y-290300000D01*
X179334000Y-316784000D02*
X179250000Y-316700000D01*
X178250000Y-280750000D02*
X178250000Y-284750000D01*
X178850000Y-290300000D02*
X178850000Y-296250000D01*
%TO.N,/Ch4 Daughterboard/dcct.busy*%
X235200000Y-283077000D02*
X234477000Y-283800000D01*
X234477000Y-283800000D02*
X234477000Y-288712412D01*
X235100000Y-289335412D02*
X235100000Y-290850000D01*
X234725000Y-291225000D02*
X234725000Y-298225000D01*
X235100000Y-290850000D02*
X234725000Y-291225000D01*
X234477000Y-288712412D02*
X235100000Y-289335412D01*
X235200000Y-280650000D02*
X235200000Y-283077000D01*
%TO.N,/Ch3 Daughterboard/digio.in0*%
X176725000Y-290375000D02*
X176725000Y-295825000D01*
X176650000Y-280850000D02*
X176650000Y-284800000D01*
X176450000Y-287400000D02*
X177250000Y-288200000D01*
X177250000Y-288200000D02*
X177250000Y-289850000D01*
X177250000Y-289850000D02*
X176725000Y-290375000D01*
X176450000Y-285000000D02*
X176450000Y-287400000D01*
X176650000Y-284800000D02*
X176450000Y-285000000D01*
X176725000Y-295825000D02*
X177250000Y-296350000D01*
%TO.N,/Ch3 Daughterboard/digio.in1*%
X177650000Y-290200000D02*
X178050000Y-290600000D01*
X178984000Y-319784000D02*
X178825000Y-319625000D01*
X195124000Y-319784000D02*
X178984000Y-319784000D01*
X176850000Y-285200000D02*
X176850000Y-287303612D01*
X177450000Y-279775000D02*
X177450000Y-284600000D01*
X176850000Y-287303612D02*
X177650000Y-288103612D01*
X177650000Y-288103612D02*
X177650000Y-290200000D01*
X178050000Y-290600000D02*
X178050000Y-296350000D01*
X177450000Y-284600000D02*
X176850000Y-285200000D01*
%TO.N,/Ch3 Daughterboard/digio.out3*%
X177025000Y-298175000D02*
X176050000Y-297200000D01*
X175250000Y-286650000D02*
X175250000Y-284550000D01*
X175850000Y-283950000D02*
X175850000Y-279775000D01*
X177025000Y-314550000D02*
X177025000Y-298175000D01*
X197624000Y-315284000D02*
X196890000Y-314550000D01*
X196890000Y-314550000D02*
X177025000Y-314550000D01*
X176052000Y-287452000D02*
X175250000Y-286650000D01*
X176052000Y-291150000D02*
X176052000Y-287452000D01*
X175250000Y-284550000D02*
X175850000Y-283950000D01*
X176050000Y-297200000D02*
X176050000Y-291152000D01*
X176050000Y-291152000D02*
X176052000Y-291150000D01*
%TO.N,/Ch3 Daughterboard/dcct.sck*%
X190524000Y-293124000D02*
X190600000Y-293200000D01*
X190600000Y-298050000D02*
X190600000Y-302400000D01*
X189800000Y-313675000D02*
X189800000Y-313600000D01*
X191050000Y-279750000D02*
X191050000Y-288685412D01*
X191050000Y-288685412D02*
X190524000Y-289211412D01*
X190600000Y-302400000D02*
X189800000Y-303200000D01*
X189800000Y-313550000D02*
X189800000Y-313675000D01*
X190600000Y-293200000D02*
X190600000Y-298050000D01*
X190524000Y-289211412D02*
X190524000Y-293124000D01*
X189800000Y-303200000D02*
X189800000Y-313550000D01*
%TO.N,/Ch3 Daughterboard/dac.sdin*%
X181450000Y-280600000D02*
X181450000Y-288435412D01*
X181450000Y-288435412D02*
X182026000Y-289011412D01*
X182026000Y-289011412D02*
X182026000Y-291724000D01*
X181625000Y-292125000D02*
X181625000Y-295925000D01*
X182026000Y-291724000D02*
X181625000Y-292125000D01*
%TO.N,/Ch3 Daughterboard/digio.out2*%
X197624000Y-316784000D02*
X196928000Y-316088000D01*
X174850000Y-286850000D02*
X175651000Y-287651000D01*
X174850000Y-284100000D02*
X174850000Y-286850000D01*
X176013000Y-316088000D02*
X175850000Y-315925000D01*
X196928000Y-316088000D02*
X176013000Y-316088000D01*
X175850000Y-315925000D02*
X175850000Y-297750000D01*
X175050000Y-280750000D02*
X175050000Y-283900000D01*
X175050000Y-283900000D02*
X174850000Y-284100000D01*
X175850000Y-297750000D02*
X175650000Y-297550000D01*
%TO.N,/Ch4 Daughterboard/digio.out1*%
X219200000Y-283902057D02*
X219200000Y-279750000D01*
X218550000Y-285882900D02*
X218550000Y-284552057D01*
X213180000Y-311549982D02*
X213475000Y-311254982D01*
X219400000Y-290050000D02*
X219400000Y-286732900D01*
X214225000Y-302575000D02*
X219800000Y-297000000D01*
X219800000Y-290450000D02*
X219400000Y-290050000D01*
X213475000Y-308600000D02*
X214225000Y-307850000D01*
X219800000Y-297000000D02*
X219800000Y-290450000D01*
X213475000Y-311254982D02*
X213475000Y-308600000D01*
X214225000Y-307850000D02*
X214225000Y-302575000D01*
X219400000Y-286732900D02*
X218550000Y-285882900D01*
X218550000Y-284552057D02*
X219200000Y-283902057D01*
%TO.N,/Ch4 Daughterboard/digio.out2*%
X214075000Y-308525000D02*
X214750000Y-307850000D01*
X213350000Y-312325000D02*
X214075000Y-311600000D01*
X214750000Y-302850000D02*
X220600000Y-297000000D01*
X211875000Y-312325000D02*
X213350000Y-312325000D01*
X220601000Y-295899000D02*
X220601000Y-291199000D01*
X220600000Y-295900000D02*
X220601000Y-295899000D01*
X214750000Y-307850000D02*
X214750000Y-302850000D01*
X211875000Y-312325000D02*
X211775000Y-312225000D01*
X220000000Y-280750000D02*
X220000000Y-283900000D01*
X220600000Y-297000000D02*
X220600000Y-295900000D01*
X219800000Y-284100000D02*
X219800000Y-286850000D01*
X220601000Y-287651000D02*
X220601000Y-291199000D01*
X214075000Y-311600000D02*
X214075000Y-308525000D01*
X219800000Y-286850000D02*
X220601000Y-287651000D01*
X220000000Y-283900000D02*
X219800000Y-284100000D01*
%TO.N,/Ch3 Daughterboard/dcct.sdo0*%
X192074000Y-289211412D02*
X192074000Y-297924000D01*
X191850000Y-284635412D02*
X192376000Y-285161412D01*
X201150000Y-318310000D02*
X202624000Y-319784000D01*
X192074000Y-297924000D02*
X192074000Y-301600000D01*
X201150000Y-310676000D02*
X201150000Y-318310000D01*
X192376000Y-288909412D02*
X192074000Y-289211412D01*
X192376000Y-285161412D02*
X192376000Y-288909412D01*
X191850000Y-280650000D02*
X191850000Y-284635412D01*
X192074000Y-301600000D02*
X201150000Y-310676000D01*
%TO.N,/Ch4 Daughterboard/dcct.sdo0*%
X237326000Y-288909412D02*
X237075000Y-289160412D01*
X237075000Y-289160412D02*
X237075000Y-293025000D01*
X236800000Y-284635412D02*
X237326000Y-285161412D01*
X236800000Y-280650000D02*
X236800000Y-284635412D01*
X237326000Y-285161412D02*
X237326000Y-288909412D01*
%TO.N,/Ch3 Daughterboard/digio.in3*%
X179750000Y-290550000D02*
X179750000Y-295400000D01*
X179050000Y-279775000D02*
X179050000Y-284485412D01*
X179274000Y-287477612D02*
X179274000Y-290074000D01*
X178474000Y-286677612D02*
X179274000Y-287477612D01*
X179050000Y-284485412D02*
X178474000Y-285061412D01*
X178474000Y-285061412D02*
X178474000Y-286677612D01*
X179274000Y-290074000D02*
X179750000Y-290550000D01*
X195124000Y-315284000D02*
X179534000Y-315284000D01*
X179534000Y-315284000D02*
X179450000Y-315200000D01*
%TO.N,/Ch4 Daughterboard/dcct.cnv*%
X233874000Y-289261412D02*
X234126000Y-289009412D01*
X233900000Y-297800000D02*
X233900000Y-300750000D01*
X233900000Y-291400000D02*
X233900000Y-297800000D01*
X233874000Y-291374000D02*
X233874000Y-289261412D01*
X233900000Y-291400000D02*
X233874000Y-291374000D01*
X234126000Y-289009412D02*
X234126000Y-282874000D01*
X234400000Y-282600000D02*
X234400000Y-279750000D01*
X234126000Y-282874000D02*
X234400000Y-282600000D01*
X233900000Y-300750000D02*
X233925000Y-300775000D01*
%TO.N,/Ch3 Daughterboard/dac.sclk*%
X180074000Y-285974000D02*
X180450000Y-286350000D01*
X180650000Y-291450000D02*
X180650000Y-295850000D01*
X180450000Y-286350000D02*
X180650000Y-286550000D01*
X180650000Y-286550000D02*
X180650000Y-291450000D01*
X180650000Y-284300000D02*
X180074000Y-284876000D01*
X180650000Y-279725000D02*
X180650000Y-284300000D01*
X180074000Y-284876000D02*
X180074000Y-285974000D01*
X180650000Y-295850000D02*
X180650000Y-296000000D01*
%TO.N,/Ch4 Daughterboard/dac.syncn*%
X215162275Y-308087275D02*
X215162275Y-303862725D01*
X227726000Y-285061412D02*
X227726000Y-287724000D01*
X227726000Y-287724000D02*
X227400000Y-288050000D01*
X227400000Y-296450000D02*
X227400000Y-297000000D01*
X227200000Y-279750000D02*
X227200000Y-284535412D01*
X227400000Y-297000000D02*
X227550000Y-297150000D01*
X227200000Y-284535412D02*
X227726000Y-285061412D01*
X227400000Y-288050000D02*
X227400000Y-291600000D01*
X214525000Y-308724550D02*
X215162275Y-308087275D01*
X214500000Y-312250000D02*
X214525000Y-312225000D01*
X214525000Y-312225000D02*
X214525000Y-308724550D01*
X227400000Y-291600000D02*
X227400000Y-296450000D01*
X221225000Y-297800000D02*
X221325000Y-297800000D01*
X215162275Y-303862725D02*
X221225000Y-297800000D01*
%TO.N,/Ch4 Daughterboard/dcct.sck*%
X235550000Y-295925000D02*
X235600000Y-295975000D01*
X236000000Y-288685412D02*
X235474000Y-289211412D01*
X235474000Y-293124000D02*
X235550000Y-293200000D01*
X235474000Y-289211412D02*
X235474000Y-293124000D01*
X236000000Y-279750000D02*
X236000000Y-288685412D01*
X235550000Y-293200000D02*
X235550000Y-295925000D01*
%TO.N,/Ch3 Daughterboard/dac.syncn*%
X200124000Y-316784000D02*
X199408000Y-317500000D01*
X182450000Y-288050000D02*
X182450000Y-291600000D01*
X199408000Y-317500000D02*
X182825000Y-317500000D01*
X182250000Y-279750000D02*
X182250000Y-284535412D01*
X182450000Y-291600000D02*
X182450000Y-296450000D01*
X182776000Y-287724000D02*
X182450000Y-288050000D01*
X182250000Y-284535412D02*
X182776000Y-285061412D01*
X182776000Y-285061412D02*
X182776000Y-287724000D01*
%TO.N,/Ch4 Daughterboard/dcct.sdo1*%
X237700000Y-285700000D02*
X237700000Y-279850000D01*
X237700000Y-279850000D02*
X237600000Y-279750000D01*
X238237500Y-290737500D02*
X238237500Y-286237500D01*
X238237500Y-286237500D02*
X237700000Y-285700000D01*
%TO.N,/Ch3 Daughterboard/dcct.cnv*%
X189176000Y-289009412D02*
X189176000Y-282874000D01*
X188950000Y-291400000D02*
X188950000Y-297800000D01*
X189450000Y-282600000D02*
X189450000Y-279750000D01*
X188950000Y-301425000D02*
X187875000Y-302500000D01*
X187875000Y-313150000D02*
X187925000Y-313200000D01*
X188950000Y-291400000D02*
X188924000Y-291374000D01*
X187875000Y-302500000D02*
X187875000Y-313150000D01*
X188950000Y-297800000D02*
X188950000Y-301425000D01*
X189176000Y-282874000D02*
X189450000Y-282600000D01*
X188924000Y-291374000D02*
X188924000Y-289261412D01*
X188924000Y-289261412D02*
X189176000Y-289009412D01*
%TO.N,/Ch4 Daughterboard/digio.out0*%
X219000000Y-286900000D02*
X217900000Y-285800000D01*
X213875000Y-307125000D02*
X213875000Y-302325000D01*
X212900000Y-308100000D02*
X213875000Y-307125000D01*
X213875000Y-302325000D02*
X219000000Y-297200000D01*
X219000000Y-297200000D02*
X219000000Y-286900000D01*
X217900000Y-283800000D02*
X218400000Y-283300000D01*
X217900000Y-285800000D02*
X217900000Y-283800000D01*
X218400000Y-283300000D02*
X218400000Y-280750000D01*
X212900000Y-310625000D02*
X212900000Y-308100000D01*
%TO.N,/Ch4 Daughterboard/mon.fs*%
X236475000Y-306325000D02*
X230600000Y-300450000D01*
X230601000Y-298699000D02*
X230601000Y-289199000D01*
X231200000Y-282550000D02*
X231200000Y-279750000D01*
X230600000Y-298700000D02*
X230601000Y-298699000D01*
X230600000Y-300450000D02*
X230600000Y-298700000D01*
X238024000Y-319784000D02*
X236475000Y-318235000D01*
X230601000Y-289199000D02*
X230926000Y-288874000D01*
X236475000Y-318235000D02*
X236475000Y-306325000D01*
X230926000Y-282824000D02*
X231200000Y-282550000D01*
X230926000Y-288874000D02*
X230926000Y-282824000D01*
%TO.N,/Ch3 Daughterboard/mon.sdo*%
X186826000Y-289211412D02*
X186826000Y-291476000D01*
X186826000Y-291476000D02*
X186826000Y-297276000D01*
X186327000Y-288712412D02*
X186826000Y-289211412D01*
X186327000Y-283750000D02*
X186327000Y-288712412D01*
X186826000Y-310124000D02*
X186826000Y-297276000D01*
X186675000Y-310275000D02*
X186826000Y-310124000D01*
X187050000Y-280700000D02*
X187050000Y-283027000D01*
X187050000Y-283027000D02*
X186327000Y-283750000D01*
%TO.N,/Ch4 Daughterboard/mon.reset*%
X228224000Y-284961412D02*
X228224000Y-288859412D01*
X228224000Y-288859412D02*
X228650000Y-289285412D01*
X228650000Y-289285412D02*
X228650000Y-301900000D01*
X228650000Y-301900000D02*
X229675000Y-302925000D01*
X228800000Y-284385412D02*
X228224000Y-284961412D01*
X228800000Y-279750000D02*
X228800000Y-284385412D01*
%TO.N,/Ch4 Daughterboard/mon.sclk*%
X232224000Y-300074000D02*
X239025000Y-306875000D01*
X232800000Y-288585412D02*
X232224000Y-289161412D01*
X239025000Y-314283000D02*
X238024000Y-315284000D01*
X232800000Y-279725000D02*
X232800000Y-288585412D01*
X239025000Y-306875000D02*
X239025000Y-314283000D01*
X232224000Y-297726000D02*
X232224000Y-300074000D01*
X232224000Y-289161412D02*
X232224000Y-291427612D01*
X232224000Y-291427612D02*
X232224000Y-297726000D01*
%TO.N,/Ch3 Daughterboard/mon.reset*%
X183700000Y-307825000D02*
X183700000Y-289285412D01*
X183850000Y-284385412D02*
X183850000Y-279750000D01*
X183274000Y-284961412D02*
X183850000Y-284385412D01*
X183274000Y-288859412D02*
X183274000Y-284961412D01*
X183700000Y-289285412D02*
X183274000Y-288859412D01*
%TO.N,/Ch3 Daughterboard/mon.sclk*%
X187850000Y-279725000D02*
X187850000Y-288585412D01*
X187274000Y-289161412D02*
X187274000Y-291427612D01*
X187274000Y-291427612D02*
X187274000Y-297726000D01*
X187850000Y-288585412D02*
X187274000Y-289161412D01*
X187274000Y-311000000D02*
X187274000Y-297726000D01*
%TO.N,/Ch3 Daughterboard/mon.busy*%
X184824000Y-282376000D02*
X185450000Y-281750000D01*
X185300000Y-289200000D02*
X184824000Y-288724000D01*
X184824000Y-288724000D02*
X184824000Y-282376000D01*
X185300000Y-308975000D02*
X185300000Y-289200000D01*
X185450000Y-281750000D02*
X185450000Y-280600000D01*
%TO.N,/Ch3 Daughterboard/mon.cnvrt*%
X184650000Y-280400000D02*
X184300000Y-280750000D01*
X184300000Y-280750000D02*
X184300000Y-284600000D01*
X184425000Y-288075000D02*
X184050000Y-288450000D01*
X184050000Y-288450000D02*
X184050000Y-292650000D01*
X184300000Y-284600000D02*
X184425000Y-284725000D01*
X184050000Y-292650000D02*
X184050000Y-298325000D01*
X184425000Y-284725000D02*
X184425000Y-288075000D01*
X184600000Y-299100000D02*
X184050000Y-298550000D01*
X184450000Y-308325000D02*
X184600000Y-308175000D01*
X184600000Y-308175000D02*
X184600000Y-299100000D01*
X184650000Y-279750000D02*
X184650000Y-280400000D01*
X184050000Y-298550000D02*
X184050000Y-298325000D01*
%TO.N,/Ch4 Daughterboard/mon.sdo*%
X231277000Y-283750000D02*
X231277000Y-288712412D01*
X232000000Y-283027000D02*
X231277000Y-283750000D01*
X231277000Y-288712412D02*
X231776000Y-289211412D01*
X237359000Y-316784000D02*
X238024000Y-316784000D01*
X232000000Y-280700000D02*
X232000000Y-283027000D01*
X231800000Y-300750000D02*
X237000000Y-305950000D01*
X231776000Y-289211412D02*
X231776000Y-297276000D01*
X231776000Y-297276000D02*
X231800000Y-297300000D01*
X237000000Y-316425000D02*
X237359000Y-316784000D01*
X237000000Y-305950000D02*
X237000000Y-316425000D01*
X231800000Y-297300000D02*
X231800000Y-300750000D01*
%TO.N,/Ch3 Daughterboard/mon.fs*%
X186075000Y-299123000D02*
X185651000Y-298699000D01*
X185651000Y-289199000D02*
X185976000Y-288874000D01*
X185651000Y-298699000D02*
X185651000Y-289199000D01*
X185976000Y-288874000D02*
X185976000Y-282824000D01*
X185976000Y-282824000D02*
X186250000Y-282550000D01*
X186250000Y-282550000D02*
X186250000Y-279750000D01*
X186075000Y-309550000D02*
X186075000Y-299123000D01*
%TO.N,/Ch4 Daughterboard/mon.cnvrt*%
X229600000Y-280400000D02*
X229250000Y-280750000D01*
X229250000Y-284600000D02*
X229375000Y-284725000D01*
X229375000Y-284725000D02*
X229375000Y-288075000D01*
X229000000Y-288450000D02*
X229000000Y-292650000D01*
X229000000Y-292650000D02*
X229000000Y-298300000D01*
X229250000Y-280750000D02*
X229250000Y-284600000D01*
X229000000Y-298300000D02*
X229000000Y-301225000D01*
X229375000Y-288075000D02*
X229000000Y-288450000D01*
X229600000Y-279750000D02*
X229600000Y-280400000D01*
X229000000Y-301225000D02*
X230300000Y-302525000D01*
%TO.N,/Ch4 Daughterboard/mon.busy*%
X237328000Y-320588000D02*
X235235707Y-320588000D01*
X230250000Y-301175000D02*
X230250000Y-289200000D01*
X229774000Y-282376000D02*
X230400000Y-281750000D01*
X230250000Y-289200000D02*
X229774000Y-288724000D01*
X238024000Y-321284000D02*
X237328000Y-320588000D01*
X230400000Y-281750000D02*
X230400000Y-280600000D01*
X229774000Y-288724000D02*
X229774000Y-282376000D01*
X234828000Y-320180293D02*
X234828000Y-305753000D01*
X234828000Y-305753000D02*
X230250000Y-301175000D01*
X235235707Y-320588000D02*
X234828000Y-320180293D01*
D31*
%TO.N,/DCCT Fault Logic/dcct_flt.12*%
X278100000Y-92500000D02*
X278100000Y-91300000D01*
X277000000Y-90200000D02*
X277000000Y-87400000D01*
X253500000Y-313100000D02*
X253500000Y-317900000D01*
X277030600Y-93400000D02*
X277400000Y-93400000D01*
X278100000Y-91300000D02*
X277900000Y-91100000D01*
X258300000Y-82000000D02*
X253500000Y-86800000D01*
X277000000Y-87400000D02*
X275400000Y-85800000D01*
X275400000Y-85800000D02*
X271600000Y-82000000D01*
X271600000Y-82000000D02*
X269800000Y-82000000D01*
X277900000Y-91100000D02*
X277000000Y-90200000D01*
X278100000Y-92700000D02*
X278100000Y-92500000D01*
X275830600Y-94600000D02*
X277030600Y-93400000D01*
X269800000Y-82000000D02*
X258300000Y-82000000D01*
X253500000Y-91300000D02*
X253500000Y-313100000D01*
X277400000Y-93400000D02*
X278100000Y-92700000D01*
X253500000Y-86800000D02*
X253500000Y-91300000D01*
D37*
%TO.N,/Ch3 Burden Resistor/Iin0.dcct-*%
X267300000Y-101400000D02*
X267300000Y-99082170D01*
D35*
X268241085Y-98141085D02*
X270082170Y-96300000D01*
D37*
X267300000Y-99082170D02*
X268241085Y-98141085D01*
D36*
X267300000Y-101400000D02*
X267300000Y-99900000D01*
X267300000Y-107700000D02*
X267300000Y-101400000D01*
D31*
X270115600Y-96284400D02*
X270115600Y-92060000D01*
X270100000Y-96300000D02*
X270115600Y-96284400D01*
%TO.N,/DCCT Fault Logic/dcct_flt.56*%
X278142000Y-89520000D02*
X278142000Y-87242000D01*
X252700000Y-86600000D02*
X252700000Y-315100000D01*
X252700000Y-315100000D02*
X252600000Y-315200000D01*
X272200000Y-81300000D02*
X258000000Y-81300000D01*
X252600000Y-315200000D02*
X252600000Y-320600000D01*
X258000000Y-81300000D02*
X252700000Y-86600000D01*
X278142000Y-87242000D02*
X272200000Y-81300000D01*
D35*
%TO.N,/Ch4 Burden Resistor/Iin1.dcct-*%
X270600000Y-87300000D02*
X271258600Y-87958600D01*
X262300000Y-113400000D02*
X262300000Y-97000000D01*
X271258600Y-87958600D02*
X271258600Y-89520000D01*
X262300000Y-97000000D02*
X264700000Y-94600000D01*
X264700000Y-89300000D02*
X266700000Y-87300000D01*
X266700000Y-87300000D02*
X270600000Y-87300000D01*
X264700000Y-94600000D02*
X264700000Y-89300000D01*
%TO.N,/Ch4 Burden Resistor/Iin0.dcct+*%
X273544600Y-95894600D02*
X273544600Y-94600000D01*
X274600000Y-115000000D02*
X274600000Y-103050000D01*
X273950000Y-102400000D02*
X273950000Y-96300000D01*
X274600000Y-103050000D02*
X273950000Y-102400000D01*
X273950000Y-96300000D02*
X273544600Y-95894600D01*
%TO.N,/Ch4 Burden Resistor/Iin1.dcct+*%
X260100000Y-113400000D02*
X260100000Y-96700000D01*
X273544600Y-88118010D02*
X273544600Y-89520000D01*
X266195902Y-86083000D02*
X271509590Y-86083000D01*
X263100000Y-89178902D02*
X266195902Y-86083000D01*
X260100000Y-96700000D02*
X263100000Y-93700000D01*
X271509590Y-86083000D02*
X273544600Y-88118010D01*
X263100000Y-93700000D02*
X263100000Y-89178902D01*
%TO.N,/Ch4 Burden Resistor/Iin0.dcct-*%
X276700000Y-115200000D02*
X275817000Y-114317000D01*
X275817000Y-103500000D02*
X275817000Y-102400000D01*
X275167000Y-101750000D02*
X275167000Y-97300000D01*
D31*
X274687600Y-95737600D02*
X274687600Y-92060000D01*
X275500000Y-96550000D02*
X274687600Y-95737600D01*
X275167000Y-97300000D02*
X275500000Y-96967000D01*
D35*
X275817000Y-114317000D02*
X275817000Y-103500000D01*
D31*
X275500000Y-96967000D02*
X275500000Y-96550000D01*
D35*
X275817000Y-102400000D02*
X275167000Y-101750000D01*
D31*
%TO.N,/Ch3 Burden Resistor/Iin1.dcct-*%
X272401600Y-95900000D02*
X272401600Y-96543600D01*
D34*
X272401600Y-96543600D02*
X272517000Y-96659000D01*
D35*
X272517000Y-107517000D02*
X272517000Y-96659000D01*
X272800000Y-107800000D02*
X272517000Y-107517000D01*
D31*
X272401600Y-95900000D02*
X272401600Y-92060000D01*
D35*
%TO.N,/Ch3 Burden Resistor/Iin1.dcct+*%
X271000000Y-107900000D02*
X271300000Y-107600000D01*
X271300000Y-107600000D02*
X271300000Y-94641400D01*
X271300000Y-94641400D02*
X271258600Y-94600000D01*
D31*
%TO.N,/Ch3 Daughterboard/digout.on1*%
X171844304Y-136020000D02*
X171890000Y-136020000D01*
X176269000Y-140399000D02*
X176269000Y-152466000D01*
X170962000Y-135137696D02*
X171844304Y-136020000D01*
X175790000Y-152945000D02*
X175790000Y-159445000D01*
X176269000Y-152466000D02*
X175790000Y-152945000D01*
X171890000Y-136020000D02*
X176269000Y-140399000D01*
%TO.N,/Ch3 Daughterboard/digin.flt1*%
X183085000Y-86590000D02*
X182515000Y-86020000D01*
X178331000Y-158104000D02*
X178190000Y-158245000D01*
X178331000Y-139511000D02*
X178331000Y-158104000D01*
X170065000Y-131245000D02*
X178331000Y-139511000D01*
X182515000Y-86020000D02*
X176515000Y-86020000D01*
X183085000Y-87405000D02*
X183085000Y-86590000D01*
X178190000Y-158245000D02*
X178190000Y-158945000D01*
X170065000Y-92470000D02*
X170065000Y-131245000D01*
D32*
X178190000Y-158945000D02*
X178190000Y-158738612D01*
D31*
X176515000Y-86020000D02*
X170065000Y-92470000D01*
%TO.N,/Ch3 Daughterboard/digout.on2*%
X174940000Y-159195000D02*
X174990000Y-159245000D01*
X169415000Y-134770000D02*
X175340000Y-140695000D01*
X175340000Y-152220000D02*
X174940000Y-152620000D01*
X174940000Y-152620000D02*
X174940000Y-159195000D01*
D32*
X174990000Y-159245000D02*
X174940000Y-159245000D01*
D31*
X175340000Y-140695000D02*
X175340000Y-152220000D01*
X169365000Y-134770000D02*
X169415000Y-134770000D01*
%TO.N,/Ch3 Daughterboard/ps.ignd+*%
X180940000Y-99945000D02*
X180940000Y-146020000D01*
X183315000Y-154808194D02*
X182819000Y-155304194D01*
X184188019Y-95718019D02*
X184113018Y-95718019D01*
X180940000Y-146020000D02*
X183315000Y-148395000D01*
X183315000Y-148395000D02*
X183315000Y-154808194D01*
X184113018Y-95718019D02*
X180940000Y-98891037D01*
X182819000Y-155304194D02*
X182819000Y-158124000D01*
X180940000Y-98891037D02*
X180940000Y-99945000D01*
X182819000Y-158124000D02*
X183790000Y-159095000D01*
X188800000Y-89945000D02*
X188800000Y-91106037D01*
X188800000Y-91106037D02*
X184188019Y-95718019D01*
%TO.N,/Ch3 Daughterboard/ps.spare-*%
X181340000Y-149720000D02*
X181015000Y-150045000D01*
X181015000Y-150045000D02*
X181015000Y-155270000D01*
D32*
%TO.N,/Ch3 Daughterboard/digout.reset*%
X174190000Y-159445000D02*
X174190000Y-159330412D01*
D31*
X174499232Y-148535768D02*
X173590000Y-149445000D01*
X174499232Y-141445000D02*
X174499232Y-148535768D01*
X173590000Y-149445000D02*
X173590000Y-155095000D01*
X173590000Y-155095000D02*
X174190000Y-155695000D01*
X168490000Y-135435768D02*
X174499232Y-141445000D01*
X174190000Y-155695000D02*
X174190000Y-159445000D01*
X168490000Y-132995000D02*
X168490000Y-135435768D01*
%TO.N,/Ch3 Daughterboard/digin.spare*%
X170265000Y-89745000D02*
X168790000Y-91220000D01*
X170565000Y-89745000D02*
X170265000Y-89745000D01*
X168790000Y-131920000D02*
X176940000Y-140070000D01*
X176940000Y-140070000D02*
X176940000Y-148295000D01*
X176590000Y-148645000D02*
X176590000Y-159045000D01*
X168790000Y-91220000D02*
X168790000Y-131920000D01*
X176940000Y-148295000D02*
X176590000Y-148645000D01*
%TO.N,/Ch3 Daughterboard/ps.vout+*%
X186565000Y-154963198D02*
X186027501Y-155500697D01*
X186027501Y-155500697D02*
X186027501Y-158682501D01*
X189965000Y-96663198D02*
X188890000Y-97738198D01*
X188890000Y-128813198D02*
X187093145Y-130610053D01*
X190115000Y-92695000D02*
X189965000Y-92845000D01*
X186027501Y-158682501D02*
X186190000Y-158845000D01*
X187093145Y-151835053D02*
X186565000Y-152363198D01*
X186565000Y-152363198D02*
X186565000Y-154963198D01*
X187093145Y-130610053D02*
X187093145Y-151835053D01*
X189965000Y-92845000D02*
X189965000Y-96663198D01*
X188890000Y-97738198D02*
X188890000Y-128813198D01*
X190115000Y-91920000D02*
X190115000Y-92695000D01*
%TO.N,/Ch3 Daughterboard/reg.out-*%
X188391000Y-144971000D02*
X188391000Y-153046000D01*
X188391000Y-153046000D02*
X189190000Y-153845000D01*
X188315000Y-144895000D02*
X187990000Y-144570000D01*
X188315000Y-144895000D02*
X188391000Y-144971000D01*
X187990000Y-144570000D02*
X187990000Y-144545000D01*
X189190000Y-158320000D02*
X188615000Y-158895000D01*
X189190000Y-153845000D02*
X189190000Y-158320000D01*
%TO.N,/Ch3 Daughterboard/digin.acon*%
X170615000Y-130895000D02*
X178990000Y-139270000D01*
X183277500Y-88482500D02*
X174677500Y-88482500D01*
X178990000Y-139270000D02*
X178990000Y-158845000D01*
X170615000Y-92545000D02*
X170615000Y-130895000D01*
D32*
X178990000Y-158845000D02*
X178910000Y-158845000D01*
D31*
X184355000Y-87405000D02*
X183277500Y-88482500D01*
X174677500Y-88482500D02*
X170615000Y-92545000D01*
%TO.N,/Ch3 Daughterboard/ps.vout-*%
X186643145Y-151648657D02*
X186643145Y-130423657D01*
X185577499Y-155314303D02*
X186115000Y-154776802D01*
X186643145Y-130423657D02*
X188440000Y-128626802D01*
X186115000Y-154776802D02*
X186115000Y-152176802D01*
X189515000Y-92920000D02*
X189215000Y-92620000D01*
X185577499Y-158682501D02*
X185577499Y-155314303D01*
X188440000Y-128626802D02*
X188440000Y-97551802D01*
X185415000Y-158845000D02*
X185577499Y-158682501D01*
X189515000Y-96476802D02*
X189515000Y-92920000D01*
X188440000Y-97551802D02*
X189515000Y-96476802D01*
X186115000Y-152176802D02*
X186643145Y-151648657D01*
%TO.N,/Ch3 Daughterboard/digout.spare*%
X173015000Y-149020000D02*
X173015000Y-158970000D01*
X173940000Y-148095000D02*
X173015000Y-149020000D01*
X167665000Y-135570000D02*
X173965000Y-141870000D01*
X173965000Y-141870000D02*
X173940000Y-141895000D01*
X173015000Y-158970000D02*
X173390000Y-159345000D01*
X167665000Y-133245000D02*
X167665000Y-135570000D01*
X173940000Y-141895000D02*
X173940000Y-148095000D01*
%TO.N,/Ch3 Daughterboard/digin.flt2*%
X177590000Y-148995000D02*
X177115000Y-149470000D01*
X177115000Y-149470000D02*
X177115000Y-157970000D01*
X177115000Y-157970000D02*
X177390000Y-158245000D01*
X177390000Y-158245000D02*
X177390000Y-159345000D01*
X169390000Y-91695000D02*
X169390000Y-131545000D01*
X171265000Y-89820000D02*
X169390000Y-91695000D01*
X169390000Y-131545000D02*
X177590000Y-139745000D01*
X177590000Y-139745000D02*
X177590000Y-148995000D01*
X171265000Y-89270000D02*
X171265000Y-89820000D01*
%TO.N,/Ch3 Daughterboard/reg.out+*%
X189511000Y-153569000D02*
X188712000Y-152770000D01*
X188715000Y-152767000D02*
X188715000Y-143820000D01*
X189415000Y-158895000D02*
X189511000Y-158799000D01*
X189511000Y-158799000D02*
X189511000Y-153569000D01*
X188712000Y-152770000D02*
X188715000Y-152767000D01*
%TO.N,/Ch3 Daughterboard/ps.ignd-*%
X194515000Y-90470000D02*
X194515000Y-89470000D01*
X193440000Y-88395000D02*
X189155000Y-88395000D01*
X189090000Y-91270000D02*
X193715000Y-91270000D01*
X181290000Y-145916038D02*
X181290000Y-98995000D01*
X181365000Y-98995000D02*
X189090000Y-91270000D01*
X183340000Y-155520000D02*
X183390000Y-155520000D01*
X189155000Y-88395000D02*
X188165000Y-87405000D01*
X193440000Y-88395000D02*
X194515000Y-89470000D01*
X193715000Y-91270000D02*
X194515000Y-90470000D01*
X181290000Y-98995000D02*
X181365000Y-98995000D01*
X183789000Y-148415038D02*
X181290000Y-145916038D01*
X183789000Y-155121000D02*
X183789000Y-148415038D01*
X183390000Y-155520000D02*
X183789000Y-155121000D01*
%TO.N,/Ch3 Daughterboard/ps.spare+*%
X179769000Y-155599000D02*
X181415000Y-157245000D01*
X181415000Y-157245000D02*
X181415000Y-158820000D01*
X180390000Y-153658194D02*
X179769000Y-154279194D01*
X181390000Y-158845000D02*
X181265001Y-158720001D01*
X181415000Y-158820000D02*
X181390000Y-158845000D01*
X180390000Y-149570000D02*
X180390000Y-153658194D01*
X179769000Y-154279194D02*
X179769000Y-155599000D01*
%TO.N,/Ch4 Daughterboard/digout.on2*%
X214375000Y-134770000D02*
X214425000Y-134770000D01*
X220350000Y-152220000D02*
X219950000Y-152620000D01*
X219950000Y-159195000D02*
X220000000Y-159245000D01*
X219950000Y-152620000D02*
X219950000Y-159195000D01*
X214425000Y-134770000D02*
X220350000Y-140695000D01*
D32*
X220000000Y-159245000D02*
X219950000Y-159245000D01*
D31*
X220350000Y-140695000D02*
X220350000Y-152220000D01*
%TO.N,/Ch4 Daughterboard/digin.flt1*%
X228095000Y-86590000D02*
X227525000Y-86020000D01*
X223341000Y-139511000D02*
X223341000Y-158104000D01*
X227525000Y-86020000D02*
X221525000Y-86020000D01*
X223341000Y-158104000D02*
X223200000Y-158245000D01*
X228095000Y-87405000D02*
X228095000Y-86590000D01*
X215075000Y-92470000D02*
X215075000Y-131245000D01*
D32*
X223200000Y-158945000D02*
X223200000Y-158738612D01*
D31*
X223200000Y-158245000D02*
X223200000Y-158945000D01*
X215075000Y-131245000D02*
X223341000Y-139511000D01*
X221525000Y-86020000D02*
X215075000Y-92470000D01*
%TO.N,/Ch4 Daughterboard/digin.acon*%
X215625000Y-130895000D02*
X224000000Y-139270000D01*
X228287500Y-88482500D02*
X219687500Y-88482500D01*
X224000000Y-139270000D02*
X224000000Y-158845000D01*
X219687500Y-88482500D02*
X215625000Y-92545000D01*
X229365000Y-87405000D02*
X228287500Y-88482500D01*
X215625000Y-92545000D02*
X215625000Y-130895000D01*
D32*
X224000000Y-158845000D02*
X223920000Y-158845000D01*
D31*
%TO.N,/Ch4 Daughterboard/digout.spare*%
X218975000Y-141870000D02*
X218950000Y-141895000D01*
X212675000Y-135570000D02*
X218975000Y-141870000D01*
X212675000Y-133245000D02*
X212675000Y-135570000D01*
X218950000Y-141895000D02*
X218950000Y-148095000D01*
X218950000Y-148095000D02*
X218025000Y-149020000D01*
X218025000Y-158970000D02*
X218400000Y-159345000D01*
X218025000Y-149020000D02*
X218025000Y-158970000D01*
%TO.N,/Ch4 Daughterboard/digin.spare*%
X213800000Y-131920000D02*
X221950000Y-140070000D01*
X221950000Y-140070000D02*
X221950000Y-148295000D01*
X221600000Y-148645000D02*
X221600000Y-159045000D01*
X213800000Y-91220000D02*
X213800000Y-131920000D01*
X221950000Y-148295000D02*
X221600000Y-148645000D01*
X215275000Y-89745000D02*
X213800000Y-91220000D01*
X215575000Y-89745000D02*
X215275000Y-89745000D01*
%TO.N,/Ch4 Daughterboard/ps.vout-*%
X234525000Y-92920000D02*
X234225000Y-92620000D01*
X230425000Y-158845000D02*
X230587499Y-158682501D01*
X231125000Y-152176802D02*
X231653145Y-151648657D01*
X231653145Y-130423657D02*
X233450000Y-128626802D01*
X233450000Y-97551802D02*
X234525000Y-96476802D01*
X233450000Y-128626802D02*
X233450000Y-97551802D01*
X230587499Y-158682501D02*
X230587499Y-155314303D01*
X230587499Y-155314303D02*
X231125000Y-154776802D01*
X231125000Y-154776802D02*
X231125000Y-152176802D01*
X231653145Y-151648657D02*
X231653145Y-130423657D01*
X234525000Y-96476802D02*
X234525000Y-92920000D01*
%TO.N,/Ch4 Daughterboard/digout.on1*%
X220800000Y-152945000D02*
X220800000Y-159445000D01*
X216854304Y-136020000D02*
X216900000Y-136020000D01*
X221279000Y-152466000D02*
X220800000Y-152945000D01*
X216900000Y-136020000D02*
X221279000Y-140399000D01*
X221279000Y-140399000D02*
X221279000Y-152466000D01*
X215972000Y-135137696D02*
X216854304Y-136020000D01*
%TO.N,/Ch4 Daughterboard/digout.reset*%
X219509232Y-141445000D02*
X219509232Y-148535768D01*
X219200000Y-155695000D02*
X219200000Y-159445000D01*
X213500000Y-132995000D02*
X213500000Y-135435768D01*
D32*
X219200000Y-159445000D02*
X219200000Y-159330412D01*
D31*
X219509232Y-148535768D02*
X218600000Y-149445000D01*
X218600000Y-155095000D02*
X219200000Y-155695000D01*
X218600000Y-149445000D02*
X218600000Y-155095000D01*
X213500000Y-135435768D02*
X219509232Y-141445000D01*
%TO.N,/Ch4 Daughterboard/ps.spare-*%
X226025000Y-150045000D02*
X226025000Y-155270000D01*
X226350000Y-149720000D02*
X226025000Y-150045000D01*
%TO.N,/Ch4 Daughterboard/ps.vout+*%
X233900000Y-128813198D02*
X232103145Y-130610053D01*
X233900000Y-97738198D02*
X233900000Y-128813198D01*
X231575000Y-154963198D02*
X231037501Y-155500697D01*
X231037501Y-155500697D02*
X231037501Y-158682501D01*
X232103145Y-151835053D02*
X231575000Y-152363198D01*
X235125000Y-91920000D02*
X235125000Y-92695000D01*
X231037501Y-158682501D02*
X231200000Y-158845000D01*
X232103145Y-130610053D02*
X232103145Y-151835053D01*
X231575000Y-152363198D02*
X231575000Y-154963198D01*
X234975000Y-96663198D02*
X233900000Y-97738198D01*
X235125000Y-92695000D02*
X234975000Y-92845000D01*
X234975000Y-92845000D02*
X234975000Y-96663198D01*
%TO.N,/Ch4 Daughterboard/ps.ignd-*%
X239525000Y-90470000D02*
X239525000Y-89470000D01*
X228350000Y-155520000D02*
X228400000Y-155520000D01*
X238725000Y-91270000D02*
X239525000Y-90470000D01*
X228799000Y-155121000D02*
X228799000Y-148415038D01*
X226375000Y-98995000D02*
X234100000Y-91270000D01*
X226300000Y-98995000D02*
X226375000Y-98995000D01*
X228799000Y-148415038D02*
X226300000Y-145916038D01*
X234100000Y-91270000D02*
X238725000Y-91270000D01*
X234165000Y-88395000D02*
X233175000Y-87405000D01*
X238450000Y-88395000D02*
X234165000Y-88395000D01*
X238450000Y-88395000D02*
X239525000Y-89470000D01*
X226300000Y-145916038D02*
X226300000Y-98995000D01*
X228400000Y-155520000D02*
X228799000Y-155121000D01*
%TO.N,/Ch4 Daughterboard/reg.out-*%
X233325000Y-144895000D02*
X233000000Y-144570000D01*
X233401000Y-153046000D02*
X234200000Y-153845000D01*
X233325000Y-144895000D02*
X233401000Y-144971000D01*
X234200000Y-158320000D02*
X233625000Y-158895000D01*
X234200000Y-153845000D02*
X234200000Y-158320000D01*
X233000000Y-144570000D02*
X233000000Y-144545000D01*
X233401000Y-144971000D02*
X233401000Y-153046000D01*
%TO.N,/Ch4 Daughterboard/ps.spare+*%
X225400000Y-153658194D02*
X224779000Y-154279194D01*
X226425000Y-157245000D02*
X226425000Y-158820000D01*
X225400000Y-149570000D02*
X225400000Y-153658194D01*
X224779000Y-154279194D02*
X224779000Y-155599000D01*
X226400000Y-158845000D02*
X226275001Y-158720001D01*
X226425000Y-158820000D02*
X226400000Y-158845000D01*
X224779000Y-155599000D02*
X226425000Y-157245000D01*
%TO.N,/Ch4 Daughterboard/reg.out+*%
X233722000Y-152770000D02*
X233725000Y-152767000D01*
X234521000Y-153569000D02*
X233722000Y-152770000D01*
X234521000Y-158799000D02*
X234521000Y-153569000D01*
X233725000Y-152767000D02*
X233725000Y-143820000D01*
X234425000Y-158895000D02*
X234521000Y-158799000D01*
%TO.N,/Ch4 Daughterboard/digin.flt2*%
X222400000Y-158245000D02*
X222400000Y-159345000D01*
X222125000Y-149470000D02*
X222125000Y-157970000D01*
X214400000Y-91695000D02*
X214400000Y-131545000D01*
X222600000Y-148995000D02*
X222125000Y-149470000D01*
X222600000Y-139745000D02*
X222600000Y-148995000D01*
X222125000Y-157970000D02*
X222400000Y-158245000D01*
X214400000Y-131545000D02*
X222600000Y-139745000D01*
X216275000Y-89820000D02*
X214400000Y-91695000D01*
X216275000Y-89270000D02*
X216275000Y-89820000D01*
%TO.N,/Ch4 Daughterboard/ps.ignd+*%
X225950000Y-98891037D02*
X225950000Y-99945000D01*
X227829000Y-158124000D02*
X228800000Y-159095000D01*
X228325000Y-148395000D02*
X228325000Y-154808194D01*
X229198019Y-95718019D02*
X229123018Y-95718019D01*
X225950000Y-99945000D02*
X225950000Y-146020000D01*
X225950000Y-146020000D02*
X228325000Y-148395000D01*
X233810000Y-91106037D02*
X229198019Y-95718019D01*
X227829000Y-155304194D02*
X227829000Y-158124000D01*
X233810000Y-89945000D02*
X233810000Y-91106037D01*
X228325000Y-154808194D02*
X227829000Y-155304194D01*
X229123018Y-95718019D02*
X225950000Y-98891037D01*
%TO.N,/Ch2 Daughterboard/digout.on1*%
X130800000Y-152975000D02*
X130800000Y-159475000D01*
%TO.N,/Ch1 Daughterboard/digout.spare*%
X77675000Y-133300000D02*
X77675000Y-135625000D01*
X77675000Y-135625000D02*
X83975000Y-141925000D01*
X83975000Y-141925000D02*
X83950000Y-141950000D01*
X83950000Y-141950000D02*
X83950000Y-148150000D01*
X83025000Y-159025000D02*
X83400000Y-159400000D01*
X83950000Y-148150000D02*
X83025000Y-149075000D01*
X83025000Y-149075000D02*
X83025000Y-159025000D01*
%TD*%
M02*
