M48
; DRILL file {KiCad 9.0.4-9.0.4-0~ubuntu22.04.1} date 2025-12-30T11:33:00-0500
; FORMAT={-:-/ absolute / metric / decimal}
; #@! TF.CreationDate,2025-12-30T11:33:00-05:00
; #@! TF.GenerationSoftware,Kicad,Pcbnew,9.0.4-9.0.4-0~ubuntu22.04.1
; #@! TF.FileFunction,Plated,1,10,PTH
FMAT,2
METRIC
; #@! TA.AperFunction,Plated,PTH,ViaDrill
T1C0.300
; #@! TA.AperFunction,Plated,PTH,ViaDrill
T2C0.500
; #@! TA.AperFunction,Plated,PTH,ComponentDrill
T3C0.610
; #@! TA.AperFunction,Plated,PTH,ComponentDrill
T4C0.711
; #@! TA.AperFunction,Plated,PTH,ComponentDrill
T5C1.000
; #@! TA.AperFunction,Plated,PTH,ComponentDrill
T6C1.016
; #@! TA.AperFunction,Plated,PTH,ComponentDrill
T7C1.092
; #@! TA.AperFunction,Plated,PTH,ComponentDrill
T8C1.800
; #@! TA.AperFunction,Plated,PTH,ComponentDrill
T9C2.794
; #@! TA.AperFunction,Plated,PTH,ComponentDrill
T10C2.870
; #@! TA.AperFunction,Plated,PTH,ComponentDrill
T11C3.175
; #@! TA.AperFunction,Plated,PTH,ComponentDrill
T12C3.200
; #@! TA.AperFunction,Plated,PTH,ComponentDrill
T13C4.300
%
G90
G05
T1
X66.4Y-198.0
X66.7Y-97.0
X77.4Y-326.4
X77.675Y-133.3
X78.5Y-133.05
X79.375Y-134.825
X80.575Y-89.8
X80.972Y-135.193
X81.275Y-89.325
X82.895Y-91.065
X83.4Y-159.4
X83.4Y-280.8
X83.4Y-289.3
X84.2Y-159.5
X84.2Y-279.8
X84.2Y-285.2
X85.0Y-159.3
X85.0Y-280.8
X85.0Y-289.3
X85.8Y-159.5
X85.8Y-279.825
X85.8Y-285.2
X86.6Y-159.1
X86.6Y-280.9
X86.602Y-288.85
X87.4Y-159.4
X87.4Y-279.825
X87.4Y-285.65
X88.2Y-159.0
X88.2Y-280.8
X88.2Y-289.3
X89.0Y-158.9
X89.0Y-279.825
X89.0Y-285.35
X89.8Y-150.65
X89.8Y-281.0
X89.8Y-289.35
X90.2Y-159.0
X90.3Y-154.55
X90.4Y-149.625
X90.6Y-279.775
X90.6Y-285.25
X91.025Y-155.325
X91.35Y-149.775
X91.4Y-158.9
X91.4Y-280.65
X91.4Y-289.3
X91.78Y-150.76
X92.15Y-285.35
X92.2Y-154.7
X92.2Y-279.8
X92.54Y-151.19
X93.0Y-281.05
X93.0Y-289.5
X93.15Y-314.588
X93.35Y-155.575
X93.8Y-159.15
X93.8Y-279.8
X93.8Y-285.25
X94.0Y-303.025
X94.4Y-154.37
X94.5Y-302.45
X94.6Y-150.85
X94.6Y-279.8
X94.6Y-289.45
X94.6Y-316.025
X94.97Y-155.04
X95.35Y-285.35
X95.4Y-280.65
X95.425Y-158.9
X95.5Y-302.0
X95.575Y-319.2
X95.62Y-150.88
X95.875Y-320.675
X96.025Y-301.425
X96.2Y-158.9
X96.2Y-279.8
X96.2Y-289.5
X96.625Y-300.9
X97.0Y-155.7
X97.0Y-280.75
X97.0Y-285.35
X97.224Y-300.474
X97.42Y-154.39
X97.8Y-150.9
X97.8Y-279.775
X97.8Y-289.45
X98.0Y-144.625
X98.05Y-155.55
X98.55Y-285.45
X98.6Y-154.4
X98.6Y-281.0
X98.625Y-158.95
X98.725Y-143.875
X99.225Y-92.675
X99.4Y-279.8
X99.425Y-158.95
X99.45Y-289.55
X99.77Y-151.15
X100.125Y-91.975
X100.2Y-280.7
X100.2Y-285.35
X100.25Y-316.784
X100.5Y-315.284
X100.59Y-154.44
X100.7Y-159.0
X100.725Y-319.6
X101.0Y-150.95
X101.0Y-155.7
X101.0Y-279.8
X101.05Y-289.5
X101.5Y-154.425
X101.75Y-285.45
X101.8Y-155.7
X101.8Y-280.7
X102.025Y-92.175
X102.6Y-155.75
X102.6Y-279.8
X102.6Y-289.5
X102.875Y-92.2
X103.075Y-150.95
X103.4Y-158.9
X103.4Y-281.05
X103.4Y-285.15
X103.55Y-314.075
X103.725Y-154.425
X103.925Y-150.975
X104.2Y-155.6
X104.2Y-281.05
X104.2Y-289.45
X104.95Y-285.25
X105.0Y-154.45
X105.0Y-155.625
X105.0Y-281.05
X105.8Y-155.675
X105.8Y-281.0
X105.8Y-289.35
X106.15Y-317.75
X106.225Y-151.075
X106.5Y-319.895
X106.6Y-158.8
X106.6Y-281.0
X106.6Y-285.45
X107.1Y-154.5
X114.75Y-317.588
X117.675Y-318.525
X122.675Y-133.275
X123.5Y-133.025
X124.375Y-134.8
X125.575Y-89.775
X125.972Y-135.168
X126.275Y-89.3
X127.858Y-91.073
X128.4Y-159.375
X128.4Y-280.7
X128.4Y-289.2
X129.2Y-159.475
X129.2Y-279.7
X129.2Y-285.1
X130.0Y-159.275
X130.0Y-280.7
X130.0Y-289.2
X130.8Y-159.475
X130.8Y-279.725
X130.8Y-285.1
X131.6Y-159.075
X131.6Y-280.8
X131.602Y-288.75
X132.4Y-159.375
X132.4Y-279.725
X132.4Y-285.55
X133.2Y-158.975
X133.2Y-280.7
X133.2Y-289.2
X134.0Y-158.875
X134.0Y-279.725
X134.0Y-285.25
X134.8Y-150.625
X134.8Y-280.9
X134.8Y-289.25
X135.2Y-159.1
X135.3Y-154.525
X135.4Y-149.6
X135.6Y-279.675
X135.6Y-285.15
X136.025Y-155.3
X136.35Y-149.75
X136.4Y-158.875
X136.4Y-280.55
X136.4Y-289.2
X136.78Y-150.735
X137.15Y-285.25
X137.2Y-154.675
X137.2Y-279.7
X137.54Y-151.165
X138.0Y-280.95
X138.0Y-289.4
X138.35Y-155.55
X138.8Y-159.125
X138.8Y-279.7
X138.8Y-285.15
X139.4Y-154.345
X139.6Y-150.825
X139.6Y-279.7
X139.6Y-289.35
X139.97Y-155.015
X140.35Y-285.25
X140.4Y-280.55
X140.425Y-158.875
X140.62Y-150.855
X141.2Y-158.875
X141.2Y-279.7
X141.2Y-289.4
X142.0Y-155.675
X142.0Y-280.65
X142.0Y-285.25
X142.1Y-304.575
X142.4Y-158.9
X142.42Y-154.365
X142.625Y-305.475
X142.8Y-150.875
X142.8Y-279.675
X142.8Y-289.35
X143.0Y-144.6
X143.55Y-285.35
X143.6Y-154.375
X143.6Y-280.9
X143.625Y-158.925
X143.725Y-143.85
X144.2Y-305.8
X144.225Y-92.65
X144.4Y-279.7
X144.425Y-158.925
X144.45Y-289.45
X144.77Y-151.125
X145.125Y-91.95
X145.15Y-303.85
X145.2Y-280.6
X145.2Y-285.25
X145.525Y-306.2
X145.59Y-154.415
X145.7Y-159.0
X146.0Y-150.925
X146.0Y-155.675
X146.0Y-279.7
X146.05Y-289.4
X146.5Y-154.4
X146.725Y-306.525
X146.75Y-285.35
X146.8Y-155.675
X146.8Y-280.6
X147.025Y-92.15
X147.6Y-155.725
X147.6Y-279.7
X147.6Y-289.4
X147.875Y-92.175
X148.075Y-150.925
X148.4Y-159.1
X148.4Y-280.95
X148.4Y-285.05
X148.725Y-154.4
X148.925Y-150.95
X149.2Y-155.575
X149.2Y-280.95
X149.2Y-289.35
X149.95Y-285.15
X150.0Y-154.425
X150.0Y-155.6
X150.0Y-280.95
X150.8Y-155.65
X150.8Y-280.9
X150.8Y-289.25
X151.225Y-151.05
X151.6Y-280.9
X151.6Y-285.35
X151.7Y-159.1
X152.1Y-154.475
X155.15Y-309.53
X155.849Y-309.357
X157.475Y-311.525
X157.95Y-310.534
X158.662Y-308.537
X159.05Y-310.45
X159.525Y-311.575
X160.605Y-312.65
X161.075Y-312.075
X161.45Y-307.663
X161.825Y-309.4
X162.725Y-311.775
X164.825Y-311.55
X165.425Y-310.7
X165.95Y-309.25
X165.975Y-310.05
X167.665Y-133.245
X168.49Y-132.995
X169.365Y-134.77
X170.565Y-89.745
X170.962Y-135.138
X171.265Y-89.27
X172.938Y-91.043
X173.39Y-159.345
X173.45Y-280.75
X173.45Y-289.25
X174.19Y-159.445
X174.25Y-279.75
X174.25Y-285.15
X174.99Y-159.245
X175.05Y-280.75
X175.05Y-289.25
X175.79Y-159.445
X175.85Y-279.775
X175.85Y-285.15
X176.59Y-159.045
X176.65Y-280.85
X176.652Y-288.8
X177.25Y-296.35
X177.39Y-159.345
X177.45Y-279.775
X177.45Y-285.6
X178.05Y-296.35
X178.19Y-158.945
X178.25Y-280.75
X178.25Y-289.25
X178.825Y-319.625
X178.85Y-296.25
X178.99Y-158.845
X179.05Y-279.775
X179.05Y-285.3
X179.25Y-316.7
X179.45Y-315.2
X179.75Y-295.4
X179.79Y-150.595
X179.85Y-280.95
X179.85Y-289.3
X180.2Y-158.9
X180.29Y-154.495
X180.39Y-149.57
X180.65Y-279.725
X180.65Y-285.2
X180.65Y-296.0
X181.015Y-155.27
X181.34Y-149.72
X181.39Y-158.845
X181.45Y-280.6
X181.45Y-289.25
X181.625Y-295.925
X181.77Y-150.705
X182.19Y-154.645
X182.2Y-285.3
X182.25Y-279.75
X182.45Y-296.45
X182.53Y-151.135
X182.825Y-317.5
X183.05Y-281.0
X183.05Y-289.45
X183.34Y-155.52
X183.7Y-307.825
X183.79Y-159.095
X183.85Y-279.75
X183.85Y-285.2
X184.39Y-154.315
X184.45Y-308.325
X184.59Y-150.795
X184.65Y-279.75
X184.65Y-289.4
X184.96Y-154.985
X185.3Y-308.975
X185.4Y-285.3
X185.415Y-158.845
X185.45Y-280.6
X185.61Y-150.825
X186.075Y-309.55
X186.19Y-158.845
X186.25Y-279.75
X186.25Y-289.45
X186.675Y-310.275
X186.99Y-155.645
X187.05Y-280.7
X187.05Y-285.3
X187.274Y-311.0
X187.4Y-159.0
X187.41Y-154.335
X187.79Y-150.845
X187.85Y-279.725
X187.85Y-289.4
X187.925Y-313.2
X187.99Y-144.57
X188.59Y-154.345
X188.6Y-285.4
X188.615Y-158.895
X188.65Y-280.95
X188.715Y-143.82
X188.8Y-312.55
X189.215Y-92.62
X189.415Y-158.895
X189.45Y-279.75
X189.5Y-289.5
X189.76Y-151.095
X189.8Y-313.55
X190.115Y-91.92
X190.25Y-280.65
X190.25Y-285.3
X190.4Y-158.9
X190.58Y-154.385
X190.99Y-150.895
X190.99Y-155.645
X191.05Y-279.75
X191.1Y-289.45
X191.79Y-155.645
X191.8Y-285.4
X191.85Y-280.65
X191.903Y-154.403
X192.015Y-92.12
X192.59Y-155.695
X192.65Y-279.75
X192.65Y-289.45
X192.865Y-92.145
X193.065Y-150.895
X193.4Y-159.0
X193.45Y-281.0
X193.45Y-285.1
X193.715Y-154.37
X193.915Y-150.92
X194.19Y-155.545
X194.25Y-281.0
X194.25Y-289.4
X194.99Y-154.395
X194.99Y-155.57
X195.0Y-285.2
X195.05Y-281.0
X195.79Y-155.62
X195.85Y-280.95
X195.85Y-289.3
X196.215Y-151.02
X196.6Y-158.9
X196.65Y-280.95
X196.65Y-285.4
X197.09Y-154.445
X211.875Y-312.325
X212.675Y-133.245
X212.9Y-310.625
X213.18Y-311.55
X213.5Y-132.995
X214.375Y-134.77
X214.5Y-312.25
X215.575Y-89.745
X215.972Y-135.138
X216.275Y-89.27
X216.55Y-312.2
X217.938Y-91.053
X218.4Y-159.345
X218.4Y-280.75
X218.4Y-289.25
X219.2Y-159.445
X219.2Y-279.75
X219.2Y-285.15
X220.0Y-159.245
X220.0Y-280.75
X220.0Y-289.25
X220.8Y-159.445
X220.8Y-279.775
X220.8Y-285.15
X221.325Y-297.8
X221.6Y-159.045
X221.6Y-280.85
X221.602Y-288.8
X221.625Y-300.474
X221.65Y-302.301
X222.4Y-159.345
X222.4Y-279.775
X222.4Y-285.6
X222.45Y-301.0
X223.2Y-158.945
X223.2Y-280.75
X223.2Y-289.25
X223.225Y-301.85
X224.0Y-158.845
X224.0Y-279.775
X224.0Y-285.3
X224.8Y-150.595
X224.8Y-280.95
X224.8Y-289.3
X224.95Y-302.575
X225.2Y-159.05
X225.3Y-154.495
X225.4Y-149.57
X225.575Y-303.305
X225.6Y-279.725
X225.6Y-285.2
X226.025Y-155.27
X226.35Y-149.72
X226.4Y-158.845
X226.4Y-280.6
X226.4Y-289.25
X226.78Y-150.705
X226.8Y-303.875
X227.15Y-285.3
X227.2Y-154.645
X227.2Y-279.75
X227.2Y-305.7
X227.54Y-151.135
X227.55Y-297.15
X227.975Y-306.375
X228.0Y-281.0
X228.0Y-289.45
X228.35Y-155.52
X228.8Y-159.095
X228.8Y-279.75
X228.8Y-285.2
X229.4Y-154.315
X229.5Y-306.35
X229.6Y-150.795
X229.6Y-279.75
X229.6Y-289.4
X229.675Y-302.925
X229.97Y-154.985
X230.2Y-305.325
X230.3Y-302.525
X230.35Y-285.3
X230.4Y-280.6
X230.425Y-158.845
X230.525Y-304.325
X230.62Y-150.825
X231.2Y-158.845
X231.2Y-279.75
X231.2Y-289.45
X232.0Y-155.645
X232.0Y-280.7
X232.0Y-285.3
X232.42Y-154.335
X232.8Y-150.845
X232.8Y-279.725
X232.8Y-289.4
X233.0Y-144.57
X233.15Y-155.6
X233.55Y-285.4
X233.6Y-154.345
X233.6Y-280.95
X233.625Y-158.895
X233.725Y-143.82
X233.925Y-300.775
X234.225Y-92.62
X234.4Y-279.75
X234.425Y-158.895
X234.45Y-289.5
X234.725Y-298.225
X234.77Y-151.095
X235.125Y-91.92
X235.2Y-154.5
X235.2Y-155.75
X235.2Y-280.65
X235.2Y-285.3
X235.6Y-295.975
X236.0Y-154.5
X236.0Y-155.645
X236.0Y-279.75
X236.05Y-289.45
X236.75Y-285.4
X236.8Y-155.645
X236.8Y-280.65
X236.808Y-154.508
X237.025Y-92.12
X237.075Y-293.025
X237.6Y-155.695
X237.6Y-279.75
X237.6Y-289.45
X237.875Y-92.145
X238.075Y-150.895
X238.237Y-290.738
X238.35Y-158.85
X238.4Y-281.0
X238.4Y-285.1
X238.55Y-154.592
X239.2Y-281.0
X239.2Y-289.4
X239.3Y-154.6
X239.3Y-159.0
X239.95Y-285.2
X240.0Y-155.57
X240.0Y-281.0
X240.3Y-154.5
X240.8Y-155.62
X240.8Y-280.95
X240.8Y-289.3
X241.225Y-151.02
X241.6Y-280.95
X241.6Y-285.4
X241.65Y-158.9
X242.1Y-154.445
X252.6Y-320.6
X253.5Y-317.9
X256.6Y-283.84
X256.8Y-241.2
X256.9Y-297.3
X257.4Y-276.19
X257.49Y-289.59
X257.55Y-233.4
X257.55Y-246.0
X258.14Y-271.085
X258.15Y-285.19
X258.2Y-276.2
X258.24Y-298.59
X258.25Y-254.75
X258.3Y-242.65
X258.3Y-246.0
X258.3Y-289.59
X258.3Y-319.3
X258.3Y-322.0
X258.4Y-233.4
X259.05Y-276.19
X259.1Y-237.0
X259.14Y-289.59
X259.2Y-233.4
X259.2Y-246.0
X259.5Y-283.9
X259.6Y-297.3
X259.8Y-241.2
X259.95Y-157.65
X260.0Y-168.6
X260.1Y-113.4
X260.15Y-135.1
X260.19Y-269.585
X260.2Y-173.5
X260.2Y-283.69
X260.25Y-145.9
X260.29Y-297.09
X260.3Y-248.5
X260.3Y-253.25
X260.55Y-240.825
X261.49Y-268.635
X261.5Y-157.65
X261.5Y-168.55
X261.5Y-282.74
X261.59Y-296.1
X261.69Y-276.0
X261.75Y-135.1
X261.75Y-145.9
X261.78Y-289.4
X261.9Y-252.4
X262.05Y-245.2
X262.06Y-240.325
X262.3Y-113.4
X262.65Y-223.65
X262.78Y-234.68
X263.05Y-157.65
X263.05Y-168.55
X263.25Y-135.1
X263.3Y-145.944
X263.3Y-235.7
X263.65Y-318.0
X263.7Y-319.35
X263.75Y-320.6
X263.75Y-322.0
X263.8Y-176.6
X264.162Y-225.412
X264.2Y-276.94
X264.3Y-290.34
X264.5Y-246.45
X264.6Y-107.5
X264.65Y-248.35
X264.75Y-249.8
X265.0Y-257.0
X265.1Y-249.045
X265.45Y-248.35
X265.5Y-249.8
X265.75Y-170.825
X266.0Y-257.0
X266.1Y-148.6
X266.2Y-198.6
X266.2Y-221.05
X266.3Y-174.7
X266.387Y-223.462
X266.5Y-320.1
X266.5Y-321.4
X266.7Y-316.2
X266.7Y-318.8
X266.7Y-322.8
X266.8Y-235.7
X266.9Y-263.45
X267.0Y-257.0
X267.05Y-277.6
X267.1Y-196.2
X267.1Y-291.0
X267.274Y-158.6
X267.274Y-159.6
X267.274Y-160.6
X267.3Y-107.7
X267.382Y-135.9
X267.382Y-136.9
X267.382Y-137.9
X267.406Y-165.6
X267.406Y-166.6
X267.406Y-167.6
X267.528Y-143.0
X267.528Y-144.0
X267.528Y-145.0
X267.59Y-208.0
X267.59Y-209.0
X267.59Y-210.0
X267.8Y-192.8
X267.8Y-193.6
X267.8Y-194.4
X267.94Y-268.135
X267.95Y-282.24
X268.0Y-185.9
X268.0Y-186.7
X268.0Y-187.5
X268.0Y-214.9
X268.0Y-215.9
X268.0Y-216.9
X268.0Y-257.0
X268.04Y-295.64
X268.05Y-240.325
X268.05Y-252.0
X268.1Y-147.5
X268.1Y-175.8
X268.2Y-148.4
X268.4Y-150.3
X268.4Y-153.0
X268.4Y-197.9
X268.45Y-317.05
X268.6Y-200.0
X268.6Y-202.4
X268.6Y-221.3
X268.8Y-174.0
X269.0Y-171.7
X269.0Y-257.0
X269.1Y-224.725
X269.15Y-222.345
X269.49Y-269.085
X269.5Y-283.19
X269.55Y-240.95
X269.55Y-252.7
X269.59Y-296.59
X270.0Y-257.0
X270.0Y-328.3
X270.4Y-178.1
X270.7Y-301.5
X271.0Y-107.9
X271.1Y-263.5
X271.1Y-277.6
X271.15Y-247.3
X271.2Y-290.95
X271.24Y-269.035
X271.25Y-283.14
X271.29Y-241.08
X271.3Y-252.6
X271.34Y-296.54
X271.4Y-302.2
X271.8Y-330.9
X271.925Y-170.6
X271.925Y-172.5
X271.925Y-174.3
X271.925Y-176.0
X272.1Y-197.4
X272.125Y-199.3
X272.125Y-201.1
X272.125Y-202.8
X272.162Y-225.162
X272.2Y-248.2
X272.2Y-249.9
X272.225Y-219.7
X272.225Y-221.6
X272.225Y-223.4
X272.25Y-291.99
X272.3Y-280.3
X272.4Y-264.5
X272.4Y-278.6
X272.45Y-293.75
X272.55Y-236.45
X272.8Y-107.8
X273.0Y-257.0
X274.15Y-245.5
X274.6Y-115.0
X275.5Y-329.6
X275.8Y-321.2
X275.9Y-319.4
X276.3Y-322.025
X276.7Y-115.2
X277.0Y-244.6
X278.0Y-246.3
X278.055Y-243.72
X278.1Y-242.0
X278.3Y-102.7
X278.5Y-224.775
X278.6Y-237.3
X278.7Y-234.7
X278.725Y-202.2
X279.0Y-159.5
X279.0Y-160.6
X279.2Y-186.7
X279.2Y-188.2
X279.3Y-234.2
X279.4Y-181.3
X279.4Y-208.9
X279.4Y-209.8
X279.4Y-210.8
X279.4Y-245.1
X279.5Y-243.7
X280.4Y-186.7
X280.4Y-187.8
X280.5Y-102.6
X280.9Y-232.5
X280.95Y-206.3
X281.0Y-152.6
X281.0Y-174.45
X281.0Y-203.2
X281.025Y-223.625
X281.9Y-156.1
X282.0Y-160.4
X282.0Y-279.05
X282.1Y-183.5
X282.2Y-187.7
X282.3Y-202.1
X282.4Y-166.2
X282.4Y-214.4
X282.4Y-215.5
X282.4Y-233.0
X282.6Y-133.5
X282.6Y-151.8
X282.6Y-278.55
X282.7Y-238.5
X283.1Y-190.6
X283.1Y-191.7
X283.1Y-192.8
X283.1Y-206.9
X283.125Y-174.075
X283.2Y-194.35
X283.225Y-223.325
X283.4Y-215.5
X283.4Y-239.3
X283.5Y-166.2
X283.5Y-276.75
X283.6Y-156.8
X283.6Y-204.1
X283.7Y-159.9
X283.7Y-160.8
X283.7Y-182.3
X283.825Y-213.8
X283.875Y-153.675
X283.9Y-330.1
X284.1Y-184.5
X284.2Y-187.7
X284.4Y-97.25
X284.4Y-283.55
X284.4Y-284.55
X284.45Y-209.6
X284.55Y-278.2
X284.9Y-134.4
X285.05Y-283.95
X285.2Y-233.5
X285.2Y-254.4
X285.216Y-241.451
X285.216Y-249.451
X285.35Y-278.2
X285.4Y-238.5
X285.4Y-282.45
X285.55Y-208.7
X285.6Y-209.6
X285.6Y-256.3
X285.6Y-257.7
X285.7Y-298.2
X285.85Y-277.3
X286.0Y-181.3
X286.1Y-155.0
X286.2Y-239.5
X286.3Y-97.8
X286.4Y-243.769
X286.45Y-245.771
X286.5Y-235.9
X286.5Y-302.9
X286.501Y-242.729
X286.55Y-298.2
X286.65Y-251.25
X286.7Y-234.6
X286.95Y-248.4
X287.0Y-232.5
X287.0Y-235.2
X287.2Y-280.2
X287.4Y-298.2
X287.475Y-274.875
X287.75Y-280.75
X287.8Y-237.4
X287.85Y-282.5
X287.9Y-245.3
X287.9Y-253.4
X288.2Y-158.2
X288.3Y-242.1
X288.4Y-236.7
X288.65Y-298.2
X288.7Y-244.9
X288.7Y-252.7
X289.5Y-278.7
X289.5Y-298.2
X289.5Y-303.1
X289.6Y-253.8
X289.825Y-213.8
X289.9Y-245.8
X289.95Y-272.05
X290.0Y-243.0
X290.0Y-251.9
X290.175Y-281.975
X290.175Y-283.3
X290.35Y-298.2
X291.0Y-155.0
X291.5Y-274.65
X291.5Y-281.975
X291.5Y-283.3
X291.65Y-298.2
X292.05Y-279.6
X292.5Y-190.5
X292.5Y-192.5
X292.5Y-196.5
X292.5Y-198.5
X292.5Y-211.5
X292.5Y-213.5
X292.5Y-215.5
X292.5Y-217.5
X292.5Y-219.5
X292.5Y-298.2
X292.5Y-303.11
X292.55Y-194.375
X293.0Y-274.6
X293.35Y-298.2
X293.85Y-282.7
X293.99Y-241.91
X294.0Y-247.0
X294.65Y-298.2
X294.7Y-120.6
X295.5Y-298.2
X295.5Y-303.15
X295.9Y-194.375
X296.0Y-190.5
X296.0Y-192.5
X296.0Y-196.5
X296.0Y-198.5
X296.0Y-211.5
X296.0Y-213.5
X296.0Y-215.5
X296.0Y-217.5
X296.0Y-219.5
X296.275Y-282.475
X296.35Y-298.2
X296.7Y-226.8
X296.75Y-284.05
X296.95Y-278.8
X296.95Y-279.8
X297.05Y-280.8
X297.45Y-283.6
X297.45Y-284.4
X298.85Y-275.35
X299.05Y-274.05
X299.5Y-190.5
X299.5Y-192.5
X299.5Y-194.375
X299.5Y-196.5
X299.5Y-198.5
X299.5Y-211.5
X299.5Y-213.5
X299.5Y-215.5
X299.5Y-217.5
X299.5Y-219.5
X301.8Y-280.3
T2
X257.39Y-262.085
X258.19Y-262.085
X259.04Y-262.085
X261.69Y-261.885
X262.4Y-175.0
X264.14Y-262.835
X264.59Y-264.885
X264.6Y-278.99
X264.63Y-265.835
X264.64Y-279.94
X264.69Y-292.39
X264.73Y-293.34
X269.475Y-220.35
X272.225Y-147.8
X272.225Y-149.7
X272.225Y-151.5
X272.225Y-153.2
X278.325Y-175.6
X278.425Y-152.7
X279.225Y-136.8
X282.625Y-137.25
X283.725Y-144.025
X283.75Y-140.625
X283.85Y-142.325
X284.225Y-164.6
X284.875Y-137.25
X287.175Y-136.45
X287.175Y-138.2
X290.225Y-164.6
X292.725Y-140.1
X292.725Y-142.1
X292.725Y-146.1
X292.725Y-148.1
X292.775Y-144.1
X293.225Y-162.3
X293.225Y-164.3
X293.225Y-166.3
X293.225Y-168.3
X293.225Y-170.3
X294.725Y-140.1
X294.725Y-142.1
X294.725Y-144.1
X294.725Y-146.1
X294.725Y-148.1
X295.225Y-162.3
X295.225Y-164.3
X295.225Y-166.3
X295.225Y-168.3
X295.225Y-170.3
X296.725Y-140.1
X296.725Y-142.1
X296.725Y-144.1
X296.725Y-146.1
X296.725Y-148.1
X297.225Y-162.3
X297.225Y-164.3
X297.225Y-166.3
X297.225Y-168.3
X297.225Y-170.3
X298.725Y-140.1
X298.725Y-142.1
X298.725Y-144.1
X298.725Y-146.1
X298.725Y-148.1
X299.225Y-162.3
X299.225Y-164.3
X299.225Y-166.3
X299.225Y-168.3
X299.225Y-170.3
T3
X144.324Y-313.784
X144.324Y-315.284
X144.324Y-316.784
X144.324Y-318.284
X144.324Y-319.784
X144.324Y-321.284
X146.824Y-313.784
X146.824Y-315.284
X146.824Y-316.784
X146.824Y-318.284
X146.824Y-319.784
X146.824Y-321.284
X149.324Y-313.784
X149.324Y-315.284
X149.324Y-316.784
X149.324Y-318.284
X149.324Y-319.784
X149.324Y-321.284
X151.824Y-313.784
X151.824Y-315.284
X151.824Y-316.784
X151.824Y-318.284
X151.824Y-319.784
X151.824Y-321.284
X154.324Y-313.784
X154.324Y-315.284
X154.324Y-316.784
X154.324Y-318.284
X154.324Y-319.784
X154.324Y-321.284
X156.824Y-313.784
X156.824Y-315.284
X156.824Y-316.784
X156.824Y-318.284
X156.824Y-319.784
X156.824Y-321.284
X159.324Y-313.784
X159.324Y-315.284
X159.324Y-316.784
X159.324Y-318.284
X159.324Y-319.784
X159.324Y-321.284
X161.824Y-313.784
X161.824Y-315.284
X161.824Y-316.784
X161.824Y-318.284
X161.824Y-319.784
X161.824Y-321.284
X164.324Y-313.784
X164.324Y-315.284
X164.324Y-316.784
X164.324Y-318.284
X164.324Y-319.784
X164.324Y-321.284
X166.824Y-313.784
X166.824Y-315.284
X166.824Y-316.784
X166.824Y-318.284
X166.824Y-319.784
X166.824Y-321.284
X195.124Y-313.784
X195.124Y-315.284
X195.124Y-316.784
X195.124Y-318.284
X195.124Y-319.784
X195.124Y-321.284
X197.624Y-313.784
X197.624Y-315.284
X197.624Y-316.784
X197.624Y-318.284
X197.624Y-319.784
X197.624Y-321.284
X200.124Y-313.784
X200.124Y-315.284
X200.124Y-316.784
X200.124Y-318.284
X200.124Y-319.784
X200.124Y-321.284
X202.624Y-313.784
X202.624Y-315.284
X202.624Y-316.784
X202.624Y-318.284
X202.624Y-319.784
X202.624Y-321.284
X205.124Y-313.784
X205.124Y-315.284
X205.124Y-316.784
X205.124Y-318.284
X205.124Y-319.784
X205.124Y-321.284
X207.624Y-313.784
X207.624Y-315.284
X207.624Y-316.784
X207.624Y-318.284
X207.624Y-319.784
X207.624Y-321.284
X210.124Y-313.784
X210.124Y-315.284
X210.124Y-316.784
X210.124Y-318.284
X210.124Y-319.784
X210.124Y-321.284
X212.624Y-313.784
X212.624Y-315.284
X212.624Y-316.784
X212.624Y-318.284
X212.624Y-319.784
X212.624Y-321.284
X215.124Y-313.784
X215.124Y-315.284
X215.124Y-316.784
X215.124Y-318.284
X215.124Y-319.784
X215.124Y-321.284
X217.624Y-313.784
X217.624Y-315.284
X217.624Y-316.784
X217.624Y-318.284
X217.624Y-319.784
X217.624Y-321.284
X220.524Y-313.784
X220.524Y-315.284
X220.524Y-316.784
X220.524Y-318.284
X220.524Y-319.784
X220.524Y-321.284
X223.024Y-313.784
X223.024Y-315.284
X223.024Y-316.784
X223.024Y-318.284
X223.024Y-319.784
X223.024Y-321.284
X225.524Y-313.784
X225.524Y-315.284
X225.524Y-316.784
X225.524Y-318.284
X225.524Y-319.784
X225.524Y-321.284
X228.024Y-313.784
X228.024Y-315.284
X228.024Y-316.784
X228.024Y-318.284
X228.024Y-319.784
X228.024Y-321.284
X230.524Y-313.784
X230.524Y-315.284
X230.524Y-316.784
X230.524Y-318.284
X230.524Y-319.784
X230.524Y-321.284
X233.024Y-313.784
X233.024Y-315.284
X233.024Y-316.784
X233.024Y-318.284
X233.024Y-319.784
X233.024Y-321.284
X235.524Y-313.784
X235.524Y-315.284
X235.524Y-316.784
X235.524Y-318.284
X235.524Y-319.784
X235.524Y-321.284
X238.024Y-313.784
X238.024Y-315.284
X238.024Y-316.784
X238.024Y-318.284
X238.024Y-319.784
X238.024Y-321.284
X240.524Y-313.784
X240.524Y-315.284
X240.524Y-316.784
X240.524Y-318.284
X240.524Y-319.784
X240.524Y-321.284
X243.024Y-313.784
X243.024Y-315.284
X243.024Y-316.784
X243.024Y-318.284
X243.024Y-319.784
X243.024Y-321.284
T4
X87.38Y-90.0
X88.015Y-87.46
X88.65Y-90.0
X89.285Y-87.46
X89.92Y-90.0
X90.555Y-87.46
X91.19Y-90.0
X91.825Y-87.46
X92.46Y-90.0
X93.095Y-87.46
X93.73Y-90.0
X94.365Y-87.46
X95.0Y-90.0
X95.635Y-87.46
X96.27Y-90.0
X96.905Y-87.46
X97.54Y-90.0
X98.175Y-87.46
X98.81Y-90.0
X99.445Y-87.46
X100.08Y-90.0
X100.715Y-87.46
X101.35Y-90.0
X101.985Y-87.46
X102.62Y-90.0
X132.38Y-90.0
X133.015Y-87.46
X133.65Y-90.0
X134.285Y-87.46
X134.92Y-90.0
X135.555Y-87.46
X136.19Y-90.0
X136.825Y-87.46
X137.46Y-90.0
X138.095Y-87.46
X138.73Y-90.0
X139.365Y-87.46
X140.0Y-90.0
X140.635Y-87.46
X141.27Y-90.0
X141.905Y-87.46
X142.54Y-90.0
X143.175Y-87.46
X143.81Y-90.0
X144.445Y-87.46
X145.08Y-90.0
X145.715Y-87.46
X146.35Y-90.0
X146.985Y-87.46
X147.62Y-90.0
X177.38Y-90.0
X178.015Y-87.46
X178.65Y-90.0
X179.285Y-87.46
X179.92Y-90.0
X180.555Y-87.46
X181.19Y-90.0
X181.825Y-87.46
X182.46Y-90.0
X183.095Y-87.46
X183.73Y-90.0
X184.365Y-87.46
X185.0Y-90.0
X185.635Y-87.46
X186.27Y-90.0
X186.905Y-87.46
X187.54Y-90.0
X188.175Y-87.46
X188.81Y-90.0
X189.445Y-87.46
X190.08Y-90.0
X190.715Y-87.46
X191.35Y-90.0
X191.985Y-87.46
X192.62Y-90.0
X222.38Y-90.0
X223.015Y-87.46
X223.65Y-90.0
X224.285Y-87.46
X224.92Y-90.0
X225.555Y-87.46
X226.19Y-90.0
X226.825Y-87.46
X227.46Y-90.0
X228.095Y-87.46
X228.73Y-90.0
X229.365Y-87.46
X230.0Y-90.0
X230.635Y-87.46
X231.27Y-90.0
X231.905Y-87.46
X232.54Y-90.0
X233.175Y-87.46
X233.81Y-90.0
X234.445Y-87.46
X235.08Y-90.0
X235.715Y-87.46
X236.35Y-90.0
X236.985Y-87.46
X237.62Y-90.0
T5
X253.5Y-134.5
X253.5Y-155.5
X253.5Y-196.0
X253.5Y-218.5
X253.5Y-232.5
X253.5Y-244.0
X253.5Y-261.0
X253.5Y-274.5
X253.5Y-287.5
X297.6Y-271.15
X301.5Y-301.3
T6
X299.2Y-239.04
X299.2Y-241.58
X299.2Y-244.12
X299.2Y-246.66
X299.2Y-249.2
X299.2Y-251.74
T7
X266.687Y-94.6
X267.83Y-92.06
X268.973Y-89.52
X268.973Y-94.6
X270.116Y-92.06
X271.259Y-89.52
X271.259Y-94.6
X272.402Y-92.06
X273.545Y-89.52
X273.545Y-94.6
X274.688Y-92.06
X275.831Y-89.52
X275.831Y-94.6
X276.974Y-92.06
X278.142Y-89.52
X278.142Y-94.6
X279.26Y-92.06
X280.428Y-89.52
X280.428Y-94.6
X281.571Y-92.06
X282.714Y-89.52
X282.714Y-94.6
X283.857Y-92.06
X285.0Y-89.52
X285.0Y-94.6
X286.143Y-92.06
T8
X288.07Y-312.0
X293.57Y-312.0
T9
X82.745Y-86.19
X107.255Y-86.19
X127.744Y-86.19
X152.255Y-86.19
X172.744Y-86.19
X197.255Y-86.19
X217.744Y-86.19
X242.255Y-86.19
T10
X83.142Y-122.5
X83.142Y-127.5
X88.142Y-122.5
X88.142Y-127.5
X101.858Y-122.5
X101.858Y-127.5
X106.858Y-122.5
X106.858Y-127.5
X128.142Y-122.5
X128.142Y-127.5
X133.142Y-122.5
X133.142Y-127.5
X146.858Y-122.5
X146.858Y-127.5
X151.858Y-122.5
X151.858Y-127.5
X173.142Y-122.5
X173.142Y-127.5
X178.142Y-122.5
X178.142Y-127.5
X191.858Y-122.5
X191.858Y-127.5
X196.858Y-122.5
X196.858Y-127.5
X218.142Y-122.5
X218.142Y-127.5
X223.142Y-122.5
X223.142Y-127.5
X236.858Y-122.5
X236.858Y-127.5
X241.858Y-122.5
X241.858Y-127.5
T11
X95.0Y-125.0
X140.0Y-125.0
X185.0Y-125.0
X230.0Y-125.0
T12
X80.0Y-145.0
X80.0Y-295.0
X110.0Y-145.0
X110.0Y-295.0
X125.0Y-145.0
X125.1Y-295.0
X155.0Y-145.0
X155.0Y-295.0
X170.0Y-145.0
X170.0Y-295.0
X200.0Y-145.0
X200.0Y-295.0
X214.867Y-295.0
X215.0Y-145.0
X245.0Y-145.0
X245.0Y-295.0
T13
X68.78Y-85.0
X68.78Y-180.0
X68.78Y-329.92
X111.96Y-329.92
X250.644Y-329.92
X299.92Y-85.0
X299.92Y-180.0
X299.92Y-329.92
M30
