%TF.GenerationSoftware,KiCad,Pcbnew,9.0.4-9.0.4-0~ubuntu22.04.1*%
%TF.CreationDate,2025-12-30T11:42:01-05:00*%
%TF.ProjectId,psc_carrier_brd,7073635f-6361-4727-9269-65725f627264,rev?*%
%TF.SameCoordinates,Original*%
%TF.FileFunction,Paste,Top*%
%TF.FilePolarity,Positive*%
%FSLAX46Y46*%
G04 Gerber Fmt 4.6, Leading zero omitted, Abs format (unit mm)*
G04 Created by KiCad (PCBNEW 9.0.4-9.0.4-0~ubuntu22.04.1) date 2025-12-30 11:42:01*
%MOMM*%
%LPD*%
G01*
G04 APERTURE LIST*
G04 Aperture macros list*
%AMRoundRect*
0 Rectangle with rounded corners*
0 $1 Rounding radius*
0 $2 $3 $4 $5 $6 $7 $8 $9 X,Y pos of 4 corners*
0 Add a 4 corners polygon primitive as box body*
4,1,4,$2,$3,$4,$5,$6,$7,$8,$9,$2,$3,0*
0 Add four circle primitives for the rounded corners*
1,1,$1+$1,$2,$3*
1,1,$1+$1,$4,$5*
1,1,$1+$1,$6,$7*
1,1,$1+$1,$8,$9*
0 Add four rect primitives between the rounded corners*
20,1,$1+$1,$2,$3,$4,$5,0*
20,1,$1+$1,$4,$5,$6,$7,0*
20,1,$1+$1,$6,$7,$8,$9,0*
20,1,$1+$1,$8,$9,$2,$3,0*%
%AMOutline5P*
0 Free polygon, 5 corners , with rotation*
0 The origin of the aperture is its center*
0 number of corners: always 5*
0 $1 to $10 corner X, Y*
0 $11 Rotation angle, in degrees counterclockwise*
0 create outline with 5 corners*
4,1,5,$1,$2,$3,$4,$5,$6,$7,$8,$9,$10,$1,$2,$11*%
%AMOutline6P*
0 Free polygon, 6 corners , with rotation*
0 The origin of the aperture is its center*
0 number of corners: always 6*
0 $1 to $12 corner X, Y*
0 $13 Rotation angle, in degrees counterclockwise*
0 create outline with 6 corners*
4,1,6,$1,$2,$3,$4,$5,$6,$7,$8,$9,$10,$11,$12,$1,$2,$13*%
%AMOutline7P*
0 Free polygon, 7 corners , with rotation*
0 The origin of the aperture is its center*
0 number of corners: always 7*
0 $1 to $14 corner X, Y*
0 $15 Rotation angle, in degrees counterclockwise*
0 create outline with 7 corners*
4,1,7,$1,$2,$3,$4,$5,$6,$7,$8,$9,$10,$11,$12,$13,$14,$1,$2,$15*%
%AMOutline8P*
0 Free polygon, 8 corners , with rotation*
0 The origin of the aperture is its center*
0 number of corners: always 8*
0 $1 to $16 corner X, Y*
0 $17 Rotation angle, in degrees counterclockwise*
0 create outline with 8 corners*
4,1,8,$1,$2,$3,$4,$5,$6,$7,$8,$9,$10,$11,$12,$13,$14,$15,$16,$1,$2,$17*%
G04 Aperture macros list end*
%ADD10C,0.025400*%
%ADD11R,2.997200X1.168400*%
%ADD12R,2.560396X2.499995*%
%ADD13RoundRect,0.135000X0.185000X-0.135000X0.185000X0.135000X-0.185000X0.135000X-0.185000X-0.135000X0*%
%ADD14R,2.220000X0.940000*%
%ADD15RoundRect,0.167500X0.167500X0.312500X-0.167500X0.312500X-0.167500X-0.312500X0.167500X-0.312500X0*%
%ADD16RoundRect,0.062500X0.362500X0.062500X-0.362500X0.062500X-0.362500X-0.062500X0.362500X-0.062500X0*%
%ADD17RoundRect,0.225000X-0.250000X0.225000X-0.250000X-0.225000X0.250000X-0.225000X0.250000X0.225000X0*%
%ADD18R,0.812800X0.889000*%
%ADD19RoundRect,0.222222X-1.552778X-0.577778X1.552778X-0.577778X1.552778X0.577778X-1.552778X0.577778X0*%
%ADD20RoundRect,0.135000X-0.135000X-0.185000X0.135000X-0.185000X0.135000X0.185000X-0.135000X0.185000X0*%
%ADD21RoundRect,0.250000X-2.025000X-2.375000X2.025000X-2.375000X2.025000X2.375000X-2.025000X2.375000X0*%
%ADD22RoundRect,0.250000X-2.050000X-0.300000X2.050000X-0.300000X2.050000X0.300000X-2.050000X0.300000X0*%
%ADD23RoundRect,0.135000X0.135000X0.185000X-0.135000X0.185000X-0.135000X-0.185000X0.135000X-0.185000X0*%
%ADD24RoundRect,0.218750X-0.218750X-0.256250X0.218750X-0.256250X0.218750X0.256250X-0.218750X0.256250X0*%
%ADD25RoundRect,0.135000X-0.185000X0.135000X-0.185000X-0.135000X0.185000X-0.135000X0.185000X0.135000X0*%
%ADD26R,1.397000X0.279400*%
%ADD27RoundRect,0.140000X-0.170000X0.140000X-0.170000X-0.140000X0.170000X-0.140000X0.170000X0.140000X0*%
%ADD28R,1.603200X6.500000*%
%ADD29R,0.500000X2.000000*%
%ADD30R,0.375000X0.375000*%
%ADD31R,0.700000X0.250000*%
%ADD32R,0.250000X0.700000*%
%ADD33Outline5P,-0.562500X0.427500X-0.427500X0.562500X0.562500X0.562500X0.562500X-0.562500X-0.562500X-0.562500X0.000000*%
%ADD34R,1.125000X1.125000*%
%ADD35R,5.308600X1.295400*%
%ADD36RoundRect,0.225000X0.250000X-0.225000X0.250000X0.225000X-0.250000X0.225000X-0.250000X-0.225000X0*%
%ADD37RoundRect,0.218750X0.218750X0.256250X-0.218750X0.256250X-0.218750X-0.256250X0.218750X-0.256250X0*%
%ADD38RoundRect,0.140000X0.170000X-0.140000X0.170000X0.140000X-0.170000X0.140000X-0.170000X-0.140000X0*%
%ADD39RoundRect,0.250000X-0.650000X0.325000X-0.650000X-0.325000X0.650000X-0.325000X0.650000X0.325000X0*%
%ADD40RoundRect,0.150000X-0.150000X0.512500X-0.150000X-0.512500X0.150000X-0.512500X0.150000X0.512500X0*%
%ADD41RoundRect,0.250000X-0.475000X0.250000X-0.475000X-0.250000X0.475000X-0.250000X0.475000X0.250000X0*%
%ADD42R,3.560000X1.780000*%
%ADD43R,1.676400X0.355600*%
%ADD44RoundRect,0.225000X-0.225000X-0.250000X0.225000X-0.250000X0.225000X0.250000X-0.225000X0.250000X0*%
%ADD45R,0.787400X0.304800*%
%ADD46RoundRect,0.112500X-0.237500X0.112500X-0.237500X-0.112500X0.237500X-0.112500X0.237500X0.112500X0*%
G04 APERTURE END LIST*
D10*
%TO.C,U6*%
X265975800Y-238694600D02*
X264223200Y-238694600D01*
X264223200Y-236205400D01*
X265975800Y-236205400D01*
X265975800Y-238694600D01*
G36*
X265975800Y-238694600D02*
G01*
X264223200Y-238694600D01*
X264223200Y-236205400D01*
X265975800Y-236205400D01*
X265975800Y-238694600D01*
G37*
%TD*%
D11*
%TO.C,C61*%
X270466700Y-159500000D03*
X276283300Y-159500000D03*
%TD*%
D12*
%TO.C,C8*%
X275924895Y-193525000D03*
X270580507Y-193525000D03*
%TD*%
D13*
%TO.C,R16*%
X261800000Y-235700000D03*
X261800000Y-234680000D03*
%TD*%
D14*
%TO.C,R13*%
X258300000Y-235950000D03*
X258300000Y-234720000D03*
%TD*%
D15*
%TO.C,U9*%
X265140000Y-293380000D03*
X265140000Y-292190000D03*
X264320000Y-293380000D03*
X264320000Y-292190000D03*
D16*
X266180000Y-293785000D03*
X266180000Y-293285000D03*
X266180000Y-292785000D03*
X266180000Y-292285000D03*
X266180000Y-291785000D03*
X263280000Y-291785000D03*
X263280000Y-292285000D03*
X263280000Y-292785000D03*
X263280000Y-293285000D03*
X263280000Y-293785000D03*
%TD*%
D17*
%TO.C,C20*%
X269550000Y-249900000D03*
X269550000Y-251450000D03*
%TD*%
D18*
%TO.C,L5*%
X269530100Y-278590000D03*
X271130300Y-278590000D03*
%TD*%
D19*
%TO.C,TP14*%
X81000000Y-326400000D03*
%TD*%
D20*
%TO.C,R64*%
X261570000Y-318000000D03*
X262590000Y-318000000D03*
%TD*%
D21*
%TO.C,U19*%
X293725000Y-141250000D03*
X293725000Y-146800000D03*
X298575000Y-141250000D03*
X298575000Y-146800000D03*
D22*
X287000000Y-140625000D03*
X287000000Y-142325000D03*
X287000000Y-144025000D03*
X287000000Y-145725000D03*
X287000000Y-147425000D03*
%TD*%
D14*
%TO.C,R14*%
X258400000Y-248450000D03*
X258400000Y-247220000D03*
%TD*%
D23*
%TO.C,R48*%
X289010000Y-251900000D03*
X287990000Y-251900000D03*
%TD*%
D24*
%TO.C,D1*%
X300212500Y-279000000D03*
X301787500Y-279000000D03*
%TD*%
D20*
%TO.C,R27*%
X300150000Y-277350000D03*
X301170000Y-277350000D03*
%TD*%
D19*
%TO.C,TP12*%
X299600000Y-226800000D03*
%TD*%
D20*
%TO.C,R26*%
X295000000Y-278800000D03*
X296020000Y-278800000D03*
%TD*%
%TO.C,R66*%
X261590000Y-320600000D03*
X262610000Y-320600000D03*
%TD*%
D25*
%TO.C,R15*%
X260550000Y-234690000D03*
X260550000Y-235710000D03*
%TD*%
D13*
%TO.C,R28*%
X290000000Y-277300000D03*
X290000000Y-276280000D03*
%TD*%
D21*
%TO.C,U2*%
X293500000Y-191600000D03*
X293500000Y-197150000D03*
X298350000Y-191600000D03*
X298350000Y-197150000D03*
D22*
X286775000Y-190975000D03*
X286775000Y-192675000D03*
X286775000Y-194375000D03*
X286775000Y-196075000D03*
X286775000Y-197775000D03*
%TD*%
D11*
%TO.C,C2*%
X270783400Y-208900000D03*
X276600000Y-208900000D03*
%TD*%
D15*
%TO.C,U7*%
X265510000Y-249640000D03*
X265510000Y-248450000D03*
X264690000Y-249640000D03*
X264690000Y-248450000D03*
D16*
X266550000Y-250045000D03*
X266550000Y-249545000D03*
X266550000Y-249045000D03*
X266550000Y-248545000D03*
X266550000Y-248045000D03*
X263650000Y-248045000D03*
X263650000Y-248545000D03*
X263650000Y-249045000D03*
X263650000Y-249545000D03*
X263650000Y-250045000D03*
%TD*%
D18*
%TO.C,L2*%
X269550000Y-248200000D03*
X271150200Y-248200000D03*
%TD*%
D13*
%TO.C,R33*%
X283500000Y-280810000D03*
X283500000Y-279790000D03*
%TD*%
%TO.C,R32*%
X283500000Y-278545000D03*
X283500000Y-277525000D03*
%TD*%
D26*
%TO.C,U13*%
X280815600Y-242248670D03*
X280815600Y-242749050D03*
X280815600Y-243249431D03*
X280815600Y-243749809D03*
X280815600Y-244250191D03*
X280815600Y-244750569D03*
X280815600Y-245250950D03*
X280815600Y-245751330D03*
X285184400Y-245751330D03*
X285184400Y-245250950D03*
X285184400Y-244750569D03*
X285184400Y-244250191D03*
X285184400Y-243749809D03*
X285184400Y-243249431D03*
X285184400Y-242749050D03*
X285184400Y-242248670D03*
%TD*%
D19*
%TO.C,TP15*%
X69300000Y-97000000D03*
%TD*%
D27*
%TO.C,C31*%
X261490000Y-266435000D03*
X261490000Y-267395000D03*
%TD*%
D26*
%TO.C,U14*%
X280815600Y-234248670D03*
X280815600Y-234749050D03*
X280815600Y-235249431D03*
X280815600Y-235749809D03*
X280815600Y-236250191D03*
X280815600Y-236750569D03*
X280815600Y-237250950D03*
X280815600Y-237751330D03*
X285184400Y-237751330D03*
X285184400Y-237250950D03*
X285184400Y-236750569D03*
X285184400Y-236250191D03*
X285184400Y-235749809D03*
X285184400Y-235249431D03*
X285184400Y-234749050D03*
X285184400Y-234248670D03*
%TD*%
D28*
%TO.C,R56*%
X276375000Y-150500000D03*
X274271798Y-150500000D03*
%TD*%
D29*
%TO.C,J15*%
X218400000Y-152800000D03*
X218400000Y-157200000D03*
X219200000Y-152800000D03*
X219200000Y-157200000D03*
X220000000Y-152800000D03*
X220000000Y-157200000D03*
X220800000Y-152800000D03*
X220800000Y-157200000D03*
X221600000Y-152800000D03*
X221600000Y-157200000D03*
X222400000Y-152800000D03*
X222400000Y-157200000D03*
X223200000Y-152800000D03*
X223200000Y-157200000D03*
X224000000Y-152800000D03*
X224000000Y-157200000D03*
X224800000Y-152800000D03*
X224800000Y-157200000D03*
X225600000Y-152800000D03*
X225600000Y-157200000D03*
X226400000Y-152800000D03*
X226400000Y-157200000D03*
X227200000Y-152800000D03*
X227200000Y-157200000D03*
X228000000Y-152800000D03*
X228000000Y-157200000D03*
X228800000Y-152800000D03*
X228800000Y-157200000D03*
X229600000Y-152800000D03*
X229600000Y-157200000D03*
X230400000Y-152800000D03*
X230400000Y-157200000D03*
X231200000Y-152800000D03*
X231200000Y-157200000D03*
X232000000Y-152800000D03*
X232000000Y-157200000D03*
X232800000Y-152800000D03*
X232800000Y-157200000D03*
X233600000Y-152800000D03*
X233600000Y-157200000D03*
X234400000Y-152800000D03*
X234400000Y-157200000D03*
X235200000Y-152800000D03*
X235200000Y-157200000D03*
X236000000Y-152800000D03*
X236000000Y-157200000D03*
X236800000Y-152800000D03*
X236800000Y-157200000D03*
X237600000Y-152800000D03*
X237600000Y-157200000D03*
X238400000Y-152800000D03*
X238400000Y-157200000D03*
X239200000Y-152800000D03*
X239200000Y-157200000D03*
X240000000Y-152800000D03*
X240000000Y-157200000D03*
X240800000Y-152800000D03*
X240800000Y-157200000D03*
X241600000Y-152800000D03*
X241600000Y-157200000D03*
%TD*%
D19*
%TO.C,TP17*%
X286900000Y-330100000D03*
%TD*%
D17*
%TO.C,C32*%
X260180000Y-266685000D03*
X260180000Y-268235000D03*
%TD*%
D23*
%TO.C,R29*%
X296020000Y-280800000D03*
X295000000Y-280800000D03*
%TD*%
D29*
%TO.C,J10*%
X128400000Y-282800000D03*
X128400000Y-287200000D03*
X129200000Y-282800000D03*
X129200000Y-287200000D03*
X130000000Y-282800000D03*
X130000000Y-287200000D03*
X130800000Y-282800000D03*
X130800000Y-287200000D03*
X131600000Y-282800000D03*
X131600000Y-287200000D03*
X132400000Y-282800000D03*
X132400000Y-287200000D03*
X133200000Y-282800000D03*
X133200000Y-287200000D03*
X134000000Y-282800000D03*
X134000000Y-287200000D03*
X134800000Y-282800000D03*
X134800000Y-287200000D03*
X135600000Y-282800000D03*
X135600000Y-287200000D03*
X136400000Y-282800000D03*
X136400000Y-287200000D03*
X137200000Y-282800000D03*
X137200000Y-287200000D03*
X138000000Y-282800000D03*
X138000000Y-287200000D03*
X138800000Y-282800000D03*
X138800000Y-287200000D03*
X139600000Y-282800000D03*
X139600000Y-287200000D03*
X140400000Y-282800000D03*
X140400000Y-287200000D03*
X141200000Y-282800000D03*
X141200000Y-287200000D03*
X142000000Y-282800000D03*
X142000000Y-287200000D03*
X142800000Y-282800000D03*
X142800000Y-287200000D03*
X143600000Y-282800000D03*
X143600000Y-287200000D03*
X144400000Y-282800000D03*
X144400000Y-287200000D03*
X145200000Y-282800000D03*
X145200000Y-287200000D03*
X146000000Y-282800000D03*
X146000000Y-287200000D03*
X146800000Y-282800000D03*
X146800000Y-287200000D03*
X147600000Y-282800000D03*
X147600000Y-287200000D03*
X148400000Y-282800000D03*
X148400000Y-287200000D03*
X149200000Y-282800000D03*
X149200000Y-287200000D03*
X150000000Y-282800000D03*
X150000000Y-287200000D03*
X150800000Y-282800000D03*
X150800000Y-287200000D03*
X151600000Y-282800000D03*
X151600000Y-287200000D03*
%TD*%
D20*
%TO.C,R62*%
X258990000Y-320600000D03*
X260010000Y-320600000D03*
%TD*%
D30*
%TO.C,U11*%
X289025000Y-280825000D03*
X289025000Y-284450000D03*
X292650000Y-280825000D03*
X292650000Y-284450000D03*
D31*
X288937500Y-281387500D03*
X288937500Y-281887500D03*
X288937500Y-282387500D03*
X288937500Y-282887500D03*
X288937500Y-283387500D03*
X288937500Y-283887500D03*
D32*
X289587500Y-284537500D03*
X290087500Y-284537500D03*
X290587500Y-284537500D03*
X291087500Y-284537500D03*
X291587500Y-284537500D03*
X292087500Y-284537500D03*
D31*
X292737500Y-283887500D03*
X292737500Y-283387500D03*
X292737500Y-282887500D03*
X292737500Y-282387500D03*
X292737500Y-281887500D03*
X292737500Y-281387500D03*
D32*
X292087500Y-280737500D03*
X291587500Y-280737500D03*
X291087500Y-280737500D03*
X290587500Y-280737500D03*
X290087500Y-280737500D03*
X289587500Y-280737500D03*
D33*
X290175000Y-281975000D03*
D34*
X291500000Y-281975000D03*
X290175000Y-283300000D03*
X291500000Y-283300000D03*
%TD*%
D13*
%TO.C,R12*%
X262050000Y-247045000D03*
X262050000Y-246025000D03*
%TD*%
D35*
%TO.C,F1*%
X261750000Y-143912000D03*
X261750000Y-136800000D03*
%TD*%
D36*
%TO.C,C3*%
X282125000Y-186100000D03*
X282125000Y-184550000D03*
%TD*%
D20*
%TO.C,R70*%
X270090000Y-330900000D03*
X271110000Y-330900000D03*
%TD*%
%TO.C,R69*%
X286480000Y-256300000D03*
X287500000Y-256300000D03*
%TD*%
D27*
%TO.C,C30*%
X267940000Y-265975000D03*
X267940000Y-266935000D03*
%TD*%
D25*
%TO.C,R50*%
X283865000Y-149790000D03*
X283865000Y-150810000D03*
%TD*%
D14*
%TO.C,R22*%
X258290000Y-292040000D03*
X258290000Y-290810000D03*
%TD*%
D12*
%TO.C,C66*%
X270380612Y-166500000D03*
X275725000Y-166500000D03*
%TD*%
D37*
%TO.C,D3*%
X274387500Y-329600000D03*
X272812500Y-329600000D03*
%TD*%
D23*
%TO.C,R36*%
X293990000Y-243000000D03*
X292970000Y-243000000D03*
%TD*%
D38*
%TO.C,C65*%
X283625000Y-158600000D03*
X283625000Y-157640000D03*
%TD*%
D29*
%TO.C,J9*%
X128400000Y-152800000D03*
X128400000Y-157200000D03*
X129200000Y-152800000D03*
X129200000Y-157200000D03*
X130000000Y-152800000D03*
X130000000Y-157200000D03*
X130800000Y-152800000D03*
X130800000Y-157200000D03*
X131600000Y-152800000D03*
X131600000Y-157200000D03*
X132400000Y-152800000D03*
X132400000Y-157200000D03*
X133200000Y-152800000D03*
X133200000Y-157200000D03*
X134000000Y-152800000D03*
X134000000Y-157200000D03*
X134800000Y-152800000D03*
X134800000Y-157200000D03*
X135600000Y-152800000D03*
X135600000Y-157200000D03*
X136400000Y-152800000D03*
X136400000Y-157200000D03*
X137200000Y-152800000D03*
X137200000Y-157200000D03*
X138000000Y-152800000D03*
X138000000Y-157200000D03*
X138800000Y-152800000D03*
X138800000Y-157200000D03*
X139600000Y-152800000D03*
X139600000Y-157200000D03*
X140400000Y-152800000D03*
X140400000Y-157200000D03*
X141200000Y-152800000D03*
X141200000Y-157200000D03*
X142000000Y-152800000D03*
X142000000Y-157200000D03*
X142800000Y-152800000D03*
X142800000Y-157200000D03*
X143600000Y-152800000D03*
X143600000Y-157200000D03*
X144400000Y-152800000D03*
X144400000Y-157200000D03*
X145200000Y-152800000D03*
X145200000Y-157200000D03*
X146000000Y-152800000D03*
X146000000Y-157200000D03*
X146800000Y-152800000D03*
X146800000Y-157200000D03*
X147600000Y-152800000D03*
X147600000Y-157200000D03*
X148400000Y-152800000D03*
X148400000Y-157200000D03*
X149200000Y-152800000D03*
X149200000Y-157200000D03*
X150000000Y-152800000D03*
X150000000Y-157200000D03*
X150800000Y-152800000D03*
X150800000Y-157200000D03*
X151600000Y-152800000D03*
X151600000Y-157200000D03*
%TD*%
D20*
%TO.C,R58*%
X267200000Y-171700000D03*
X268220000Y-171700000D03*
%TD*%
%TO.C,R46*%
X281700000Y-181300000D03*
X282720000Y-181300000D03*
%TD*%
D27*
%TO.C,C24*%
X262060000Y-238200000D03*
X262060000Y-239160000D03*
%TD*%
D25*
%TO.C,R31*%
X282000000Y-279790000D03*
X282000000Y-280810000D03*
%TD*%
D20*
%TO.C,R38*%
X274980000Y-245500000D03*
X276000000Y-245500000D03*
%TD*%
D14*
%TO.C,R19*%
X258190000Y-264535000D03*
X258190000Y-263305000D03*
%TD*%
D12*
%TO.C,C7*%
X270880612Y-215800000D03*
X276225000Y-215800000D03*
%TD*%
D20*
%TO.C,R67*%
X261590000Y-322000000D03*
X262610000Y-322000000D03*
%TD*%
D15*
%TO.C,U8*%
X265040000Y-265875000D03*
X265040000Y-264685000D03*
X264220000Y-265875000D03*
X264220000Y-264685000D03*
D16*
X266080000Y-266280000D03*
X266080000Y-265780000D03*
X266080000Y-265280000D03*
X266080000Y-264780000D03*
X266080000Y-264280000D03*
X263180000Y-264280000D03*
X263180000Y-264780000D03*
X263180000Y-265280000D03*
X263180000Y-265780000D03*
X263180000Y-266280000D03*
%TD*%
D38*
%TO.C,C6*%
X283125000Y-208560000D03*
X283125000Y-207600000D03*
%TD*%
D23*
%TO.C,R20*%
X266160000Y-290340000D03*
X265140000Y-290340000D03*
%TD*%
D39*
%TO.C,C27*%
X258200000Y-250550000D03*
X258200000Y-253500000D03*
%TD*%
D27*
%TO.C,C42*%
X267950000Y-280080000D03*
X267950000Y-281040000D03*
%TD*%
D23*
%TO.C,R49*%
X288510000Y-243200000D03*
X287490000Y-243200000D03*
%TD*%
D36*
%TO.C,C48*%
X291500000Y-277300000D03*
X291500000Y-275750000D03*
%TD*%
D23*
%TO.C,R55*%
X266410000Y-177600000D03*
X265390000Y-177600000D03*
%TD*%
D27*
%TO.C,C10*%
X283225000Y-221545000D03*
X283225000Y-222505000D03*
%TD*%
D11*
%TO.C,C1*%
X276525000Y-186700000D03*
X270708400Y-186700000D03*
%TD*%
D23*
%TO.C,R54*%
X266712500Y-154312500D03*
X265692500Y-154312500D03*
%TD*%
D19*
%TO.C,TP18*%
X293000000Y-258100000D03*
%TD*%
D29*
%TO.C,J12*%
X173400000Y-152800000D03*
X173400000Y-157200000D03*
X174200000Y-152800000D03*
X174200000Y-157200000D03*
X175000000Y-152800000D03*
X175000000Y-157200000D03*
X175800000Y-152800000D03*
X175800000Y-157200000D03*
X176600000Y-152800000D03*
X176600000Y-157200000D03*
X177400000Y-152800000D03*
X177400000Y-157200000D03*
X178200000Y-152800000D03*
X178200000Y-157200000D03*
X179000000Y-152800000D03*
X179000000Y-157200000D03*
X179800000Y-152800000D03*
X179800000Y-157200000D03*
X180600000Y-152800000D03*
X180600000Y-157200000D03*
X181400000Y-152800000D03*
X181400000Y-157200000D03*
X182200000Y-152800000D03*
X182200000Y-157200000D03*
X183000000Y-152800000D03*
X183000000Y-157200000D03*
X183800000Y-152800000D03*
X183800000Y-157200000D03*
X184600000Y-152800000D03*
X184600000Y-157200000D03*
X185400000Y-152800000D03*
X185400000Y-157200000D03*
X186200000Y-152800000D03*
X186200000Y-157200000D03*
X187000000Y-152800000D03*
X187000000Y-157200000D03*
X187800000Y-152800000D03*
X187800000Y-157200000D03*
X188600000Y-152800000D03*
X188600000Y-157200000D03*
X189400000Y-152800000D03*
X189400000Y-157200000D03*
X190200000Y-152800000D03*
X190200000Y-157200000D03*
X191000000Y-152800000D03*
X191000000Y-157200000D03*
X191800000Y-152800000D03*
X191800000Y-157200000D03*
X192600000Y-152800000D03*
X192600000Y-157200000D03*
X193400000Y-152800000D03*
X193400000Y-157200000D03*
X194200000Y-152800000D03*
X194200000Y-157200000D03*
X195000000Y-152800000D03*
X195000000Y-157200000D03*
X195800000Y-152800000D03*
X195800000Y-157200000D03*
X196600000Y-152800000D03*
X196600000Y-157200000D03*
%TD*%
D20*
%TO.C,R42*%
X290980000Y-245800000D03*
X292000000Y-245800000D03*
%TD*%
D28*
%TO.C,R53*%
X274021798Y-173300000D03*
X276125000Y-173300000D03*
%TD*%
D17*
%TO.C,C44*%
X260190000Y-280790000D03*
X260190000Y-282340000D03*
%TD*%
D29*
%TO.C,J5*%
X83400000Y-152800000D03*
X83400000Y-157200000D03*
X84200000Y-152800000D03*
X84200000Y-157200000D03*
X85000000Y-152800000D03*
X85000000Y-157200000D03*
X85800000Y-152800000D03*
X85800000Y-157200000D03*
X86600000Y-152800000D03*
X86600000Y-157200000D03*
X87400000Y-152800000D03*
X87400000Y-157200000D03*
X88200000Y-152800000D03*
X88200000Y-157200000D03*
X89000000Y-152800000D03*
X89000000Y-157200000D03*
X89800000Y-152800000D03*
X89800000Y-157200000D03*
X90600000Y-152800000D03*
X90600000Y-157200000D03*
X91400000Y-152800000D03*
X91400000Y-157200000D03*
X92200000Y-152800000D03*
X92200000Y-157200000D03*
X93000000Y-152800000D03*
X93000000Y-157200000D03*
X93800000Y-152800000D03*
X93800000Y-157200000D03*
X94600000Y-152800000D03*
X94600000Y-157200000D03*
X95400000Y-152800000D03*
X95400000Y-157200000D03*
X96200000Y-152800000D03*
X96200000Y-157200000D03*
X97000000Y-152800000D03*
X97000000Y-157200000D03*
X97800000Y-152800000D03*
X97800000Y-157200000D03*
X98600000Y-152800000D03*
X98600000Y-157200000D03*
X99400000Y-152800000D03*
X99400000Y-157200000D03*
X100200000Y-152800000D03*
X100200000Y-157200000D03*
X101000000Y-152800000D03*
X101000000Y-157200000D03*
X101800000Y-152800000D03*
X101800000Y-157200000D03*
X102600000Y-152800000D03*
X102600000Y-157200000D03*
X103400000Y-152800000D03*
X103400000Y-157200000D03*
X104200000Y-152800000D03*
X104200000Y-157200000D03*
X105000000Y-152800000D03*
X105000000Y-157200000D03*
X105800000Y-152800000D03*
X105800000Y-157200000D03*
X106600000Y-152800000D03*
X106600000Y-157200000D03*
%TD*%
D20*
%TO.C,R34*%
X287000000Y-278850000D03*
X288020000Y-278850000D03*
%TD*%
D17*
%TO.C,C16*%
X271290000Y-238200000D03*
X271290000Y-239750000D03*
%TD*%
D36*
%TO.C,C63*%
X281925000Y-158800000D03*
X281925000Y-157250000D03*
%TD*%
D20*
%TO.C,R39*%
X277000000Y-245500000D03*
X278020000Y-245500000D03*
%TD*%
D29*
%TO.C,J16*%
X218400000Y-282800000D03*
X218400000Y-287200000D03*
X219200000Y-282800000D03*
X219200000Y-287200000D03*
X220000000Y-282800000D03*
X220000000Y-287200000D03*
X220800000Y-282800000D03*
X220800000Y-287200000D03*
X221600000Y-282800000D03*
X221600000Y-287200000D03*
X222400000Y-282800000D03*
X222400000Y-287200000D03*
X223200000Y-282800000D03*
X223200000Y-287200000D03*
X224000000Y-282800000D03*
X224000000Y-287200000D03*
X224800000Y-282800000D03*
X224800000Y-287200000D03*
X225600000Y-282800000D03*
X225600000Y-287200000D03*
X226400000Y-282800000D03*
X226400000Y-287200000D03*
X227200000Y-282800000D03*
X227200000Y-287200000D03*
X228000000Y-282800000D03*
X228000000Y-287200000D03*
X228800000Y-282800000D03*
X228800000Y-287200000D03*
X229600000Y-282800000D03*
X229600000Y-287200000D03*
X230400000Y-282800000D03*
X230400000Y-287200000D03*
X231200000Y-282800000D03*
X231200000Y-287200000D03*
X232000000Y-282800000D03*
X232000000Y-287200000D03*
X232800000Y-282800000D03*
X232800000Y-287200000D03*
X233600000Y-282800000D03*
X233600000Y-287200000D03*
X234400000Y-282800000D03*
X234400000Y-287200000D03*
X235200000Y-282800000D03*
X235200000Y-287200000D03*
X236000000Y-282800000D03*
X236000000Y-287200000D03*
X236800000Y-282800000D03*
X236800000Y-287200000D03*
X237600000Y-282800000D03*
X237600000Y-287200000D03*
X238400000Y-282800000D03*
X238400000Y-287200000D03*
X239200000Y-282800000D03*
X239200000Y-287200000D03*
X240000000Y-282800000D03*
X240000000Y-287200000D03*
X240800000Y-282800000D03*
X240800000Y-287200000D03*
X241600000Y-282800000D03*
X241600000Y-287200000D03*
%TD*%
D17*
%TO.C,C28*%
X271240000Y-266235000D03*
X271240000Y-267785000D03*
%TD*%
D20*
%TO.C,R45*%
X277000000Y-242900000D03*
X278020000Y-242900000D03*
%TD*%
D23*
%TO.C,R23*%
X266070000Y-276940000D03*
X265050000Y-276940000D03*
%TD*%
D40*
%TO.C,U4*%
X267372500Y-222237500D03*
X266422500Y-222237500D03*
X265472500Y-222237500D03*
X265472500Y-224512500D03*
X267372500Y-224512500D03*
%TD*%
D41*
%TO.C,C56*%
X286500000Y-299800000D03*
X286500000Y-301700000D03*
%TD*%
D36*
%TO.C,C46*%
X293000000Y-277300000D03*
X293000000Y-275750000D03*
%TD*%
D27*
%TO.C,C36*%
X268040000Y-293480000D03*
X268040000Y-294440000D03*
%TD*%
D18*
%TO.C,L3*%
X269520100Y-264485000D03*
X271120300Y-264485000D03*
%TD*%
D40*
%TO.C,U21*%
X267200000Y-173525000D03*
X266250000Y-173525000D03*
X265300000Y-173525000D03*
X265300000Y-175800000D03*
X267200000Y-175800000D03*
%TD*%
D36*
%TO.C,C49*%
X295050000Y-284272500D03*
X295050000Y-282722500D03*
%TD*%
D20*
%TO.C,R43*%
X292980000Y-245800000D03*
X294000000Y-245800000D03*
%TD*%
D27*
%TO.C,C37*%
X261590000Y-293940000D03*
X261590000Y-294900000D03*
%TD*%
D41*
%TO.C,C54*%
X292500000Y-299860000D03*
X292500000Y-301760000D03*
%TD*%
D18*
%TO.C,L1*%
X269489900Y-236450000D03*
X271090100Y-236450000D03*
%TD*%
D42*
%TO.C,L6*%
X290850000Y-286800000D03*
X290850000Y-296200000D03*
%TD*%
D40*
%TO.C,U5*%
X267090000Y-199725000D03*
X266140000Y-199725000D03*
X265190000Y-199725000D03*
X265190000Y-202000000D03*
X267090000Y-202000000D03*
%TD*%
D21*
%TO.C,U20*%
X293800000Y-163525000D03*
X293800000Y-169075000D03*
X298650000Y-163525000D03*
X298650000Y-169075000D03*
D22*
X287075000Y-162900000D03*
X287075000Y-164600000D03*
X287075000Y-166300000D03*
X287075000Y-168000000D03*
X287075000Y-169700000D03*
%TD*%
D23*
%TO.C,R11*%
X266310000Y-246450000D03*
X265290000Y-246450000D03*
%TD*%
D20*
%TO.C,R61*%
X258990000Y-319300000D03*
X260010000Y-319300000D03*
%TD*%
%TO.C,R44*%
X275000000Y-242900000D03*
X276020000Y-242900000D03*
%TD*%
D28*
%TO.C,R4*%
X274321798Y-222400000D03*
X276425000Y-222400000D03*
%TD*%
D29*
%TO.C,J13*%
X173400000Y-282800000D03*
X173400000Y-287200000D03*
X174200000Y-282800000D03*
X174200000Y-287200000D03*
X175000000Y-282800000D03*
X175000000Y-287200000D03*
X175800000Y-282800000D03*
X175800000Y-287200000D03*
X176600000Y-282800000D03*
X176600000Y-287200000D03*
X177400000Y-282800000D03*
X177400000Y-287200000D03*
X178200000Y-282800000D03*
X178200000Y-287200000D03*
X179000000Y-282800000D03*
X179000000Y-287200000D03*
X179800000Y-282800000D03*
X179800000Y-287200000D03*
X180600000Y-282800000D03*
X180600000Y-287200000D03*
X181400000Y-282800000D03*
X181400000Y-287200000D03*
X182200000Y-282800000D03*
X182200000Y-287200000D03*
X183000000Y-282800000D03*
X183000000Y-287200000D03*
X183800000Y-282800000D03*
X183800000Y-287200000D03*
X184600000Y-282800000D03*
X184600000Y-287200000D03*
X185400000Y-282800000D03*
X185400000Y-287200000D03*
X186200000Y-282800000D03*
X186200000Y-287200000D03*
X187000000Y-282800000D03*
X187000000Y-287200000D03*
X187800000Y-282800000D03*
X187800000Y-287200000D03*
X188600000Y-282800000D03*
X188600000Y-287200000D03*
X189400000Y-282800000D03*
X189400000Y-287200000D03*
X190200000Y-282800000D03*
X190200000Y-287200000D03*
X191000000Y-282800000D03*
X191000000Y-287200000D03*
X191800000Y-282800000D03*
X191800000Y-287200000D03*
X192600000Y-282800000D03*
X192600000Y-287200000D03*
X193400000Y-282800000D03*
X193400000Y-287200000D03*
X194200000Y-282800000D03*
X194200000Y-287200000D03*
X195000000Y-282800000D03*
X195000000Y-287200000D03*
X195800000Y-282800000D03*
X195800000Y-287200000D03*
X196600000Y-282800000D03*
X196600000Y-287200000D03*
%TD*%
D17*
%TO.C,C68*%
X281025000Y-171750000D03*
X281025000Y-173300000D03*
%TD*%
D39*
%TO.C,C33*%
X258140000Y-266785000D03*
X258140000Y-269735000D03*
%TD*%
%TO.C,C26*%
X258300000Y-238250000D03*
X258300000Y-241200000D03*
%TD*%
D18*
%TO.C,L4*%
X269620100Y-291990000D03*
X271220300Y-291990000D03*
%TD*%
D20*
%TO.C,R41*%
X289190000Y-155000000D03*
X290210000Y-155000000D03*
%TD*%
D17*
%TO.C,C18*%
X269550000Y-238150000D03*
X269550000Y-239700000D03*
%TD*%
D27*
%TO.C,C23*%
X261850000Y-250140000D03*
X261850000Y-251100000D03*
%TD*%
D13*
%TO.C,R10*%
X267090000Y-198000000D03*
X267090000Y-196980000D03*
%TD*%
D25*
%TO.C,R2*%
X283625000Y-202190000D03*
X283625000Y-203210000D03*
%TD*%
D23*
%TO.C,R37*%
X292000000Y-243000000D03*
X290980000Y-243000000D03*
%TD*%
D27*
%TO.C,C21*%
X268050000Y-249740000D03*
X268050000Y-250700000D03*
%TD*%
D25*
%TO.C,R57*%
X265212500Y-147412500D03*
X265212500Y-148432500D03*
%TD*%
D23*
%TO.C,R5*%
X266700000Y-203800000D03*
X265680000Y-203800000D03*
%TD*%
D17*
%TO.C,C25*%
X260300000Y-250400000D03*
X260300000Y-251950000D03*
%TD*%
D27*
%TO.C,C19*%
X268050000Y-238240000D03*
X268050000Y-239200000D03*
%TD*%
%TO.C,C12*%
X282325000Y-200220000D03*
X282325000Y-201180000D03*
%TD*%
D11*
%TO.C,C60*%
X276391600Y-136800000D03*
X270575000Y-136800000D03*
%TD*%
D23*
%TO.C,R3*%
X266410000Y-220350000D03*
X265390000Y-220350000D03*
%TD*%
D20*
%TO.C,R63*%
X258990000Y-322000000D03*
X260010000Y-322000000D03*
%TD*%
D12*
%TO.C,C67*%
X275847194Y-143900000D03*
X270502806Y-143900000D03*
%TD*%
D17*
%TO.C,C41*%
X269500000Y-280340000D03*
X269500000Y-281890000D03*
%TD*%
D13*
%TO.C,R18*%
X261680000Y-263780000D03*
X261680000Y-262760000D03*
%TD*%
D29*
%TO.C,J6*%
X83400000Y-282800000D03*
X83400000Y-287200000D03*
X84200000Y-282800000D03*
X84200000Y-287200000D03*
X85000000Y-282800000D03*
X85000000Y-287200000D03*
X85800000Y-282800000D03*
X85800000Y-287200000D03*
X86600000Y-282800000D03*
X86600000Y-287200000D03*
X87400000Y-282800000D03*
X87400000Y-287200000D03*
X88200000Y-282800000D03*
X88200000Y-287200000D03*
X89000000Y-282800000D03*
X89000000Y-287200000D03*
X89800000Y-282800000D03*
X89800000Y-287200000D03*
X90600000Y-282800000D03*
X90600000Y-287200000D03*
X91400000Y-282800000D03*
X91400000Y-287200000D03*
X92200000Y-282800000D03*
X92200000Y-287200000D03*
X93000000Y-282800000D03*
X93000000Y-287200000D03*
X93800000Y-282800000D03*
X93800000Y-287200000D03*
X94600000Y-282800000D03*
X94600000Y-287200000D03*
X95400000Y-282800000D03*
X95400000Y-287200000D03*
X96200000Y-282800000D03*
X96200000Y-287200000D03*
X97000000Y-282800000D03*
X97000000Y-287200000D03*
X97800000Y-282800000D03*
X97800000Y-287200000D03*
X98600000Y-282800000D03*
X98600000Y-287200000D03*
X99400000Y-282800000D03*
X99400000Y-287200000D03*
X100200000Y-282800000D03*
X100200000Y-287200000D03*
X101000000Y-282800000D03*
X101000000Y-287200000D03*
X101800000Y-282800000D03*
X101800000Y-287200000D03*
X102600000Y-282800000D03*
X102600000Y-287200000D03*
X103400000Y-282800000D03*
X103400000Y-287200000D03*
X104200000Y-282800000D03*
X104200000Y-287200000D03*
X105000000Y-282800000D03*
X105000000Y-287200000D03*
X105800000Y-282800000D03*
X105800000Y-287200000D03*
X106600000Y-282800000D03*
X106600000Y-287200000D03*
%TD*%
D17*
%TO.C,C22*%
X260550000Y-238200000D03*
X260550000Y-239750000D03*
%TD*%
D43*
%TO.C,U23*%
X268580600Y-318125001D03*
X268580600Y-318774999D03*
X268580600Y-319425001D03*
X268580600Y-320074999D03*
X268580600Y-320724998D03*
X268580600Y-321374999D03*
X268580600Y-322024998D03*
X268580600Y-322674999D03*
X274219400Y-322674999D03*
X274219400Y-322025001D03*
X274219400Y-321374999D03*
X274219400Y-320725001D03*
X274219400Y-320075002D03*
X274219400Y-319425001D03*
X274219400Y-318775002D03*
X274219400Y-318125001D03*
%TD*%
D25*
%TO.C,R1*%
X283625000Y-200180000D03*
X283625000Y-201200000D03*
%TD*%
D44*
%TO.C,C52*%
X286950000Y-277300000D03*
X288500000Y-277300000D03*
%TD*%
D19*
%TO.C,TP19*%
X293000000Y-261400000D03*
%TD*%
D17*
%TO.C,C17*%
X271300000Y-249925000D03*
X271300000Y-251475000D03*
%TD*%
D27*
%TO.C,C71*%
X282575000Y-149845000D03*
X282575000Y-150805000D03*
%TD*%
D25*
%TO.C,R8*%
X265150000Y-196970000D03*
X265150000Y-197990000D03*
%TD*%
D17*
%TO.C,C11*%
X281025000Y-200525000D03*
X281025000Y-202075000D03*
%TD*%
D20*
%TO.C,R71*%
X270130000Y-329600000D03*
X271150000Y-329600000D03*
%TD*%
D23*
%TO.C,R35*%
X288500000Y-275800000D03*
X287480000Y-275800000D03*
%TD*%
D20*
%TO.C,R30*%
X294990000Y-279800000D03*
X296010000Y-279800000D03*
%TD*%
%TO.C,R9*%
X267455000Y-220350000D03*
X268475000Y-220350000D03*
%TD*%
D45*
%TO.C,U6*%
X266560000Y-238200000D03*
X266560000Y-237700000D03*
X266560000Y-237200000D03*
X266560000Y-236700000D03*
X263639000Y-236700000D03*
X263639000Y-237200000D03*
X263639000Y-237700000D03*
X263639000Y-238200000D03*
%TD*%
D17*
%TO.C,C29*%
X269490000Y-266235000D03*
X269490000Y-267785000D03*
%TD*%
D41*
%TO.C,C55*%
X289500000Y-299850000D03*
X289500000Y-301750000D03*
%TD*%
D15*
%TO.C,U10*%
X265050000Y-279980000D03*
X265050000Y-278790000D03*
X264230000Y-279980000D03*
X264230000Y-278790000D03*
D16*
X266090000Y-280385000D03*
X266090000Y-279885000D03*
X266090000Y-279385000D03*
X266090000Y-278885000D03*
X266090000Y-278385000D03*
X263190000Y-278385000D03*
X263190000Y-278885000D03*
X263190000Y-279385000D03*
X263190000Y-279885000D03*
X263190000Y-280385000D03*
%TD*%
D39*
%TO.C,C39*%
X258240000Y-294290000D03*
X258240000Y-297240000D03*
%TD*%
D20*
%TO.C,R60*%
X258970000Y-318000000D03*
X259990000Y-318000000D03*
%TD*%
%TO.C,R65*%
X261590000Y-319300000D03*
X262610000Y-319300000D03*
%TD*%
D17*
%TO.C,C40*%
X271250000Y-280340000D03*
X271250000Y-281890000D03*
%TD*%
D28*
%TO.C,R7*%
X274221798Y-200100000D03*
X276325000Y-200100000D03*
%TD*%
D46*
%TO.C,Q1*%
X299967500Y-274035000D03*
X299967500Y-275335000D03*
X301967500Y-274685000D03*
%TD*%
D20*
%TO.C,R47*%
X283690000Y-181300000D03*
X284710000Y-181300000D03*
%TD*%
D35*
%TO.C,F2*%
X261500000Y-166650000D03*
X261500000Y-159538000D03*
%TD*%
D19*
%TO.C,TP16*%
X69100000Y-198000000D03*
%TD*%
D38*
%TO.C,C5*%
X284125000Y-186240580D03*
X284125000Y-185280580D03*
%TD*%
D23*
%TO.C,R6*%
X266575000Y-226275000D03*
X265555000Y-226275000D03*
%TD*%
D13*
%TO.C,R21*%
X261780000Y-291285000D03*
X261780000Y-290265000D03*
%TD*%
D23*
%TO.C,R52*%
X266220000Y-171700000D03*
X265200000Y-171700000D03*
%TD*%
D19*
%TO.C,TP13*%
X297600000Y-120600000D03*
%TD*%
D27*
%TO.C,C69*%
X283125000Y-172140000D03*
X283125000Y-173100000D03*
%TD*%
D40*
%TO.C,U22*%
X267100000Y-150125000D03*
X266150000Y-150125000D03*
X265200000Y-150125000D03*
X265200000Y-152400000D03*
X267100000Y-152400000D03*
%TD*%
D17*
%TO.C,C70*%
X280975000Y-150125000D03*
X280975000Y-151675000D03*
%TD*%
D38*
%TO.C,C64*%
X284875000Y-136150000D03*
X284875000Y-135190000D03*
%TD*%
D23*
%TO.C,R17*%
X266060000Y-262835000D03*
X265040000Y-262835000D03*
%TD*%
D26*
%TO.C,U12*%
X280815600Y-250248670D03*
X280815600Y-250749050D03*
X280815600Y-251249431D03*
X280815600Y-251749809D03*
X280815600Y-252250191D03*
X280815600Y-252750569D03*
X280815600Y-253250950D03*
X280815600Y-253751330D03*
X285184400Y-253751330D03*
X285184400Y-253250950D03*
X285184400Y-252750569D03*
X285184400Y-252250191D03*
X285184400Y-251749809D03*
X285184400Y-251249431D03*
X285184400Y-250749050D03*
X285184400Y-250248670D03*
%TD*%
D20*
%TO.C,R68*%
X286500000Y-257700000D03*
X287520000Y-257700000D03*
%TD*%
D36*
%TO.C,C62*%
X282625000Y-136150000D03*
X282625000Y-134600000D03*
%TD*%
D14*
%TO.C,R25*%
X258200000Y-278640000D03*
X258200000Y-277410000D03*
%TD*%
D27*
%TO.C,C43*%
X261500000Y-280540000D03*
X261500000Y-281500000D03*
%TD*%
D36*
%TO.C,C51*%
X285000000Y-280800000D03*
X285000000Y-279250000D03*
%TD*%
D17*
%TO.C,C35*%
X269590000Y-293740000D03*
X269590000Y-295290000D03*
%TD*%
%TO.C,C34*%
X271340000Y-293740000D03*
X271340000Y-295290000D03*
%TD*%
D20*
%TO.C,R40*%
X286990000Y-155000000D03*
X288010000Y-155000000D03*
%TD*%
D21*
%TO.C,U3*%
X293575000Y-212725000D03*
X293575000Y-218275000D03*
X298425000Y-212725000D03*
X298425000Y-218275000D03*
D22*
X286850000Y-212100000D03*
X286850000Y-213800000D03*
X286850000Y-215500000D03*
X286850000Y-217200000D03*
X286850000Y-218900000D03*
%TD*%
D41*
%TO.C,C53*%
X295500000Y-299900000D03*
X295500000Y-301800000D03*
%TD*%
D36*
%TO.C,C4*%
X280925000Y-208775000D03*
X280925000Y-207225000D03*
%TD*%
D17*
%TO.C,C38*%
X260280000Y-294190000D03*
X260280000Y-295740000D03*
%TD*%
D36*
%TO.C,C50*%
X290000000Y-274800000D03*
X290000000Y-273250000D03*
%TD*%
D13*
%TO.C,R59*%
X267212500Y-148412500D03*
X267212500Y-147392500D03*
%TD*%
D36*
%TO.C,C47*%
X286500000Y-284275000D03*
X286500000Y-282725000D03*
%TD*%
D13*
%TO.C,R24*%
X261690000Y-277885000D03*
X261690000Y-276865000D03*
%TD*%
D17*
%TO.C,C9*%
X281025000Y-221125000D03*
X281025000Y-222675000D03*
%TD*%
D25*
%TO.C,R51*%
X283875000Y-151865000D03*
X283875000Y-152885000D03*
%TD*%
D39*
%TO.C,C45*%
X258150000Y-280890000D03*
X258150000Y-283840000D03*
%TD*%
M02*
